<svg width="205" height="88" viewBox="0 0 205 88" fill="none" xmlns="http://www.w3.org/2000/svg">
<g clip-path="url(#clip0_190_36)">
<path d="M23.4191 36.4352L13.9292 31.6055V41.265L23.4191 36.4352Z" fill="white"/>
<path d="M13.9292 41.2643V50.9238L32.909 41.2643L23.4191 36.4346L13.9292 41.2643Z" fill="#E42B26"/>
<path d="M13.9292 50.9241H42.3989V46.0944L32.909 41.2646L13.9292 50.9241Z" fill="#1C2156"/>
<path d="M13.9292 21.9463V31.6058L23.4191 36.4355L32.909 31.6058L13.9292 21.9463Z" fill="#23A6DE"/>
<path d="M13.9292 21.9463L32.909 31.6058L42.3989 26.776V21.9463H13.9292Z" fill="#1C2156"/>
<path d="M42.399 36.4349V26.7754L32.9091 31.6051L23.4192 36.4349L32.9091 41.2646L42.399 46.0944V36.4349Z" fill="#ABCAE9"/>
<path d="M178.503 39.4528C177.697 39.4592 176.893 39.511 176.093 39.6079C174.618 39.8432 173.807 40.6089 173.807 41.9352C173.807 43.0864 174.549 43.712 175.656 43.712C177.17 43.712 178.503 42.6659 178.503 40.6289V39.4528ZM174.628 46.3496C171.909 46.3496 170.203 44.6229 170.203 41.9903C170.203 39.588 171.717 38.1215 174.23 37.5209C175.641 37.2455 177.076 37.123 178.513 37.1556C178.513 35.0936 177.691 34.3928 175.587 34.3928C174.236 34.4192 172.906 34.74 171.688 35.3338V32.476C173.071 31.8959 174.553 31.6032 176.049 31.6151C180.474 31.6151 182.073 33.6521 182.073 37.4909V43.1665H183.818V46.0343H178.901L178.631 44.6029H178.576C178.09 45.1736 177.484 45.6269 176.804 45.9299C176.123 46.2328 175.385 46.3779 174.643 46.3546M130.217 39.4528C129.414 39.4593 128.611 39.5111 127.813 39.6079C126.338 39.8432 125.526 40.6089 125.526 41.9352C125.526 43.0864 126.269 43.712 127.37 43.712C128.885 43.712 130.217 42.6659 130.217 40.6289V39.4528ZM126.348 46.3496C123.628 46.3496 121.922 44.6229 121.922 41.9903C121.922 39.588 123.437 38.1215 125.949 37.5209C127.36 37.2455 128.796 37.123 130.232 37.1556C130.232 35.0936 129.411 34.3928 127.311 34.3928C125.96 34.4193 124.631 34.7402 123.412 35.3338V32.476C124.795 31.8963 126.278 31.6036 127.774 31.6151C132.199 31.6151 133.802 33.6521 133.802 37.4909V43.1665H135.542V46.0343H130.625L130.345 44.6029H130.296C129.808 45.1728 129.203 45.6255 128.522 45.9284C127.842 46.2313 127.104 46.3769 126.362 46.3546M75.6086 39.4528C74.8016 39.4593 73.9956 39.511 73.1943 39.6079C71.7192 39.8432 70.9128 40.6089 70.9128 41.9352C70.9128 43.0864 71.6602 43.712 72.7616 43.712C74.276 43.712 75.6086 42.6659 75.6086 40.6289V39.4528ZM71.7339 46.3546C69.0148 46.3546 67.3086 44.6279 67.3086 41.9953C67.3086 39.593 68.823 38.1265 71.3356 37.5259C72.7465 37.2504 74.1821 37.1279 75.6184 37.1606C75.6184 35.0985 74.8022 34.3979 72.6927 34.3979C71.3418 34.4237 70.0121 34.7446 68.7935 35.3388V32.476C70.1764 31.896 71.6593 31.6033 73.1549 31.6151C77.5803 31.6151 79.1832 33.6521 79.1832 37.4909V43.1665H80.9288V46.0343H76.0118L75.7266 44.6029H75.6773C75.1899 45.1731 74.5842 45.6259 73.904 45.9289C73.2237 46.2318 72.4859 46.3772 71.7437 46.3546M147.712 38.9323C147.712 36.2997 146.434 34.548 144.457 34.548C142.48 34.548 141.227 36.3198 141.227 38.9073C141.227 41.4949 142.48 43.3166 144.383 43.3166C146.35 43.3166 147.717 41.5399 147.717 38.9273M151.385 38.9273C151.385 43.3166 148.927 46.3496 145.357 46.3496C143.228 46.3496 141.969 45.4838 141.33 44.5979H141.261V50.5387L137.672 52.0402V34.7282H135.852V31.8604H140.981L141.212 33.7122H141.261C141.723 32.9815 142.8 31.5951 145.337 31.5951C149.054 31.5951 151.365 34.493 151.365 38.9323M98.9743 31.5951C98.1145 31.559 97.2587 31.7323 96.4779 32.1005C95.6971 32.4687 95.0139 33.0212 94.485 33.7122H94.431L94.1999 31.8604H88.8452V34.7282H90.8464V46.0343H94.4654V39.4828C94.4654 35.9794 96.2847 34.6831 97.8483 34.6831C99.3234 34.6831 100.002 35.6491 100.002 37.8162V46.0343H103.591V36.9804C103.591 33.4319 102.003 31.6001 98.9547 31.6001M115.392 42.9863C111.7 42.9863 109.521 40.4538 109.521 36.3798C109.521 32.4109 111.7 29.7233 115.083 29.7233C115.902 29.7208 116.719 29.8166 117.517 30.0085V34.0125L120.727 32.6562V27.9415C119.057 26.9755 117.16 26.4894 115.24 26.5351C109.571 26.5351 105.701 30.0836 105.701 36.4299C105.701 42.4358 109.143 46.3546 115.24 46.3546C117.177 46.3533 119.083 45.8668 120.791 44.9382L120 41.8602C118.575 42.6073 116.995 42.9936 115.392 42.9863ZM189.325 43.1715V25.6543L185.711 27.1558V46.0343H191.071V43.1665H189.325V43.1715ZM62.3718 40.2937C62.3718 38.4669 61.0639 37.4709 58.8069 37.4709H55.365V43.1415H58.8561C61.3687 43.1415 62.3964 41.9904 62.3964 40.2937M55.3453 34.6281H58.271C60.3509 34.6281 61.3491 33.6271 61.3491 32.2007C61.3491 30.5541 60.3657 29.6982 58.4775 29.6982H55.3453V34.6281ZM66.1924 40.4839C66.1924 44.1625 63.3454 46.0143 59.0626 46.0143H51.6231V29.7183H49.3662V26.8455H58.448C60.9065 26.8455 62.1456 27.1858 63.1192 27.8114C63.7449 28.2104 64.2562 28.7703 64.6015 29.4346C64.9468 30.0989 65.1139 30.8441 65.086 31.5951C65.086 33.5971 63.8568 35.1486 61.8555 35.6941V35.7492C64.5501 36.2197 66.1924 38.0214 66.1924 40.5039M152.408 34.7282H154.375V46.0343H157.979V31.8604H152.408V34.7282ZM154.375 29.403H157.979V25.9345H154.36V29.408L154.375 29.403ZM81.273 34.7282H83.2398V46.0343H86.8587V31.8604H81.273V34.7282ZM83.2398 29.403H86.8587V25.9345H83.2398V29.408V29.403ZM165.536 31.8554H169.205V34.7282H165.536V40.9843C165.536 42.5509 165.871 43.4868 167.356 43.4868C167.909 43.4561 168.458 43.3774 168.998 43.2516V45.9943C168.075 46.2327 167.128 46.3653 166.176 46.3897C163.353 46.3897 161.942 45.0033 161.942 41.9503V34.7282H159.975V31.8604H161.942V29.428L165.536 27.9265V31.8704V31.8554Z" fill="#1C2156"/>
<path d="M52.7887 56.5947H50.876L53.9639 65.8789H55.9799L59.0678 56.5947H57.2976L55.0309 63.9069L52.7887 56.5947Z" fill="#1C2156"/>
<path d="M62.3573 64.3874V61.7548H66.1238V60.2934H62.3573V58.0411H66.409V56.5947H60.5479V65.8789H66.5417V64.3874H62.3573Z" fill="#1C2156"/>
<path d="M70.2097 59.1522L74.3007 65.8789H76.0413V56.5947H74.3302V62.986L70.4408 56.5947H68.4985V65.8789H70.2097V59.1522Z" fill="#1C2156"/>
<path d="M77.551 56.5947V58.0411H80.1669V65.8789H81.9665V58.0411H84.5627V56.5947H77.551Z" fill="#1C2156"/>
<path d="M91.4661 56.5947H93.2755V62.1952C93.2755 63.4415 93.0887 64.2873 92.4741 64.988C91.8594 65.6887 90.999 66.029 89.6419 66.029C88.2847 66.029 87.4144 65.6937 86.8096 64.988C86.2048 64.2823 85.9934 63.4515 85.9934 62.2103V56.5947H87.8029V62.3003C87.8029 63.1061 87.8914 63.4715 88.1766 63.8018C88.5719 64.1783 89.0931 64.3877 89.6345 64.3877C90.1759 64.3877 90.697 64.1783 91.0924 63.8018C91.3825 63.4515 91.4661 63.0861 91.4661 62.3003V56.5947Z" fill="#1C2156"/>
<path d="M99.7367 58.3065C99.3909 58.0786 98.9824 57.9698 98.5713 57.9961H97.2929V60.894H98.5566C98.9723 60.9204 99.3855 60.8117 99.7367 60.5837C99.9063 60.4484 100.044 60.2756 100.138 60.0783C100.232 59.881 100.281 59.6645 100.281 59.4451C100.281 59.2257 100.232 59.0091 100.138 58.8119C100.044 58.6146 99.9063 58.4418 99.7367 58.3065ZM100.553 65.8789L98.4238 62.2703H97.288V65.8789H95.4834V56.5948H98.7729C99.5846 56.5452 100.39 56.7647 101.069 57.2204C101.449 57.5304 101.739 57.9391 101.908 58.4033C102.078 58.8675 102.121 59.3698 102.033 59.8568C101.944 60.3438 101.728 60.7975 101.407 61.1695C101.086 61.5416 100.672 61.8182 100.209 61.97L102.623 65.8739H100.553V65.8789Z" fill="#1C2156"/>
<path d="M106.03 64.3874V61.7548H109.797V60.2934H106.03V58.0411H110.082V56.5947H104.221V65.8789H110.21V64.3874H106.03Z" fill="#1C2156"/>
<path d="M114.709 66.0096C113.451 66.009 112.242 65.5121 111.336 64.6232L112.241 63.322C112.904 63.9827 113.774 64.3864 114.699 64.4631C115.776 64.4631 116.322 64.0277 116.322 63.322C116.322 62.6163 115.648 62.361 115.284 62.2109C114.92 62.0607 113.765 61.6403 113.519 61.5402C113.009 61.3863 112.561 61.0679 112.244 60.6329C111.926 60.1979 111.756 59.6697 111.759 59.1278C111.759 57.9267 112.59 56.4502 115.034 56.4502C116.17 56.4538 117.263 56.8915 118.097 57.6764L117.32 58.9377C116.679 58.3351 115.851 57.9808 114.979 57.9367C114.045 57.9367 113.504 58.287 113.504 58.9777C113.504 59.6684 114.168 59.9136 114.488 60.0588C114.807 60.2038 115.963 60.6143 116.223 60.7194C117.586 61.2199 118.092 62.1208 118.092 63.1568C118.092 64.4881 117.158 66.0547 114.65 66.0547" fill="#1C2156"/>
</g>
<defs>
<clipPath id="clip0_190_36">
<rect width="179" height="46" fill="white" transform="translate(13 21)"/>
</clipPath>
</defs>
</svg>
