<svg width="205" height="88" viewBox="0 0 205 88" fill="none" xmlns="http://www.w3.org/2000/svg">
<path d="M35.3497 44.0012C35.3497 32.8923 45.1197 23.8525 57.1305 23.8525H147.868C159.877 23.8525 169.649 32.8923 169.649 44.0025C169.649 55.1115 159.877 64.1483 147.868 64.1483H57.1305C45.12 64.1487 35.3497 55.1115 35.3497 44.0012ZM56.7963 17.8372C41.7285 17.8372 29 29.8187 29 44.0012C29 58.1838 41.7285 70.1639 56.7963 70.1639H148.201C163.27 70.1639 176 58.1834 176 44.0025C176 29.8187 163.27 17.8369 148.201 17.8369H56.7963V17.8372Z" fill="#CE123C"/>
<path d="M81.7928 30.5705V57.4704H102.198V52.1784H87.5493V46.6891H101.55V41.4396H87.5493V35.8624H102.198V30.5705H81.7928ZM106.663 30.5705V57.4704H112.423V46.6944H125.912V41.404H112.423V35.8624H126.483V30.5705H106.663ZM147.658 30.5705L147.587 30.6965C147.534 30.7896 142.65 39.4541 141.321 41.8574C140.914 41.1352 134.949 30.5705 134.949 30.5705H128.437L128.648 30.9406C129.03 31.6092 137.718 46.8302 138.324 47.8896V57.4707H144.273V47.8883C144.796 46.9743 154.149 30.5708 154.149 30.5708L147.658 30.5705ZM64.4821 35.8556C68.9025 35.9242 72.5011 39.5747 72.5011 43.9938C72.5011 48.4156 68.9028 52.0647 64.4795 52.1291C64.4795 52.1291 60.8933 52.1317 60.4549 52.1317V35.8556H64.4821ZM54.7628 57.4704L64.9178 57.4593C68.4903 57.425 71.8419 56.0096 74.3562 53.473C76.8748 50.9368 78.2615 47.5698 78.2615 43.9935C78.2615 40.4198 76.8748 37.0531 74.3562 34.514C71.8389 31.9777 68.486 30.5649 64.9149 30.5345C64.9136 30.5345 54.7625 30.5303 54.7625 30.5303L54.7628 57.4704Z" fill="#CE123C"/>
</svg>
