<svg width="205" height="88" viewBox="0 0 205 88" fill="none" xmlns="http://www.w3.org/2000/svg">
<g clip-path="url(#clip0_189_10)">
<path d="M87.5859 45.4753C87.4892 45.6206 87.5375 45.7901 87.5375 45.9354C87.5375 48.2846 87.5375 50.6095 87.5375 52.9587C87.5375 53.6126 87.465 54.2422 87.2716 54.8719C86.6915 56.882 84.9993 58.0929 82.8962 57.9476C80.3096 57.7781 78.835 56.2039 78.6658 53.4673C78.6416 53.2009 78.6416 52.9102 78.6416 52.6438C78.6416 46.6135 78.6416 40.6075 78.6416 34.5771C78.6416 32.6881 79.3426 31.2108 81.1315 30.4843C82.9687 29.7335 84.7092 29.9999 86.208 31.3561C87.0299 32.0827 87.6101 33.0514 88.2627 33.9233C90.2692 36.6599 92.3965 39.3239 94.282 42.1574C94.4754 42.448 94.6446 42.7386 94.9347 43.005C94.9347 42.8597 94.9347 42.6902 94.9347 42.5449C94.9347 40.0504 94.9347 37.5318 94.9347 35.0373C94.9347 33.9959 95.1039 33.003 95.6357 32.1069C96.6027 30.4601 98.1256 29.9273 99.9145 30.121C102.018 30.3148 103.42 31.7436 103.71 33.8748C103.782 34.3592 103.806 34.8435 103.806 35.3279C103.806 41.3582 103.806 47.4127 103.806 53.443C103.806 55.3078 103.154 56.7851 101.413 57.5601C99.5519 58.3593 97.763 58.0687 96.2401 56.6883C95.2973 55.8406 94.5963 54.7508 93.7985 53.7337C91.6954 51.0455 89.4473 48.4541 87.6584 45.5237C87.6584 45.4995 87.6342 45.4995 87.5859 45.4753Z" fill="#FE6D01"/>
<path d="M152.782 45.5242C152.782 45.6937 152.782 45.8632 152.782 46.0328C152.782 48.5757 152.758 51.0943 152.734 53.6372C152.734 54.3638 152.517 55.0419 152.202 55.6716C151.453 57.1973 149.857 58.0692 148.093 57.9239C145.579 57.7301 144.08 56.1559 143.911 53.5888C143.911 53.4435 143.886 53.2982 143.886 53.1529C143.886 46.8077 143.862 40.4626 143.886 34.1175C143.886 32.4948 144.66 31.2597 146.11 30.5574C147.754 29.7824 149.35 29.9035 150.897 30.8965C151.356 31.1871 151.743 31.5746 152.057 31.9863C154.499 35.2799 157.013 38.5009 159.333 41.8915C159.599 42.279 159.841 42.6664 160.155 43.175C160.155 42.8844 160.155 42.7149 160.155 42.5454C160.155 40.0025 160.155 37.4353 160.155 34.8924C160.155 33.6815 160.421 32.5191 161.219 31.5503C162.404 30.1215 163.999 29.8793 165.691 30.1941C167.287 30.509 168.278 31.5746 168.737 33.1003C168.955 33.8268 169.003 34.5534 169.003 35.3041C169.003 41.3587 169.003 47.4132 169.003 53.4677C169.003 55.3083 168.326 56.7856 166.61 57.5364C164.821 58.3113 163.105 58.0692 161.582 56.8098C161.34 56.6161 161.098 56.3739 160.905 56.1317C158.487 53.0076 155.901 50.0045 153.653 46.7593C153.363 46.3476 153.097 45.9359 152.831 45.5242C152.855 45.5 152.831 45.5 152.782 45.5242Z" fill="#FE6D01"/>
<path d="M33.5575 30.63C35.1288 30.6542 36.9176 30.5089 38.6823 30.8479C43.5896 31.7682 47.3607 34.2384 49.077 39.0578C50.8417 44.0226 50.2615 48.7451 46.7564 52.8622C44.6049 55.4051 41.704 56.7371 38.4648 57.1972C35.4672 57.6331 32.4455 57.3425 29.448 57.3909C29.3029 57.3909 29.1579 57.3425 29.0128 57.3183C26.6438 56.9066 25 54.9691 25 52.5715C25 46.8803 25 41.1648 25 35.4736C25 32.7854 27.0548 30.6784 29.7622 30.63C30.9467 30.6057 32.1554 30.63 33.5575 30.63ZM33.8718 44.0226C33.8718 45.4999 33.8718 46.9529 33.8718 48.4303C33.8718 48.6482 33.8476 48.842 34.186 48.842C35.1288 48.8177 36.0474 48.8904 36.9902 48.7693C39.4559 48.4787 41.0997 46.6139 41.1239 44.0468C41.148 41.5281 39.5042 39.5906 37.0385 39.2758C36.1199 39.1547 35.2013 39.2516 34.2827 39.2032C33.9443 39.1789 33.8476 39.3 33.8476 39.6391C33.8718 41.0922 33.8718 42.5695 33.8718 44.0226Z" fill="#FE6D01"/>
<path d="M115.724 38.4281C117.32 36.3696 118.963 34.4079 120.511 32.3736C121.405 31.2111 122.469 30.3877 123.967 30.2182C126.578 29.9518 129.092 32.3736 128.899 34.9892C128.802 36.2001 128.319 37.2172 127.569 38.1375C126.046 39.9539 124.499 41.746 122.952 43.5382C122.735 43.8046 122.735 43.9499 122.952 44.192C124.62 46.0326 126.24 47.9216 127.884 49.7622C128.778 50.7794 129.286 51.9176 129.237 53.2738C129.141 56.18 126.216 58.4323 123.532 57.6331C122.614 57.3667 121.864 56.8097 121.26 56.0589C119.519 53.9277 117.731 51.8207 116.038 49.6411C115.966 49.5442 115.893 49.4474 115.797 49.3263C115.627 49.4232 115.7 49.5685 115.7 49.6653C115.7 50.9489 115.724 52.2082 115.676 53.4918C115.603 56.0831 113.766 57.8995 111.252 57.8753C108.714 57.8753 106.828 56.0589 106.828 53.4918C106.804 47.1224 106.804 40.7289 106.828 34.3595C106.852 31.7924 108.762 29.976 111.276 30.0002C113.79 30.0245 115.603 31.7924 115.676 34.3595C115.748 35.7641 115.724 37.0961 115.724 38.4281Z" fill="#FE6D01"/>
<path d="M75.6441 41.4552C75.6199 43.1989 75.7166 45.3786 75.5957 47.534C75.3056 52.8862 71.317 57.1244 65.9988 57.8025C63.6297 58.0931 61.3332 57.972 59.1092 57.0517C55.1447 55.4291 52.9691 52.4018 52.3648 48.2121C52.2922 47.6793 52.2681 47.1223 52.2439 46.5653C52.2439 42.5693 52.2197 38.5975 52.2439 34.6015C52.2681 31.9375 54.1295 30.0485 56.6919 30.0727C59.2785 30.0969 61.1157 31.986 61.1157 34.6984C61.1157 38.4522 61.1157 42.2302 61.1157 45.984C61.1157 47.2434 61.5508 48.2605 62.7111 48.8418C64.5242 49.7621 66.5547 48.4785 66.7481 46.3715C66.7723 46.1051 66.7723 45.8145 66.7723 45.5481C66.7723 41.8912 66.7723 38.21 66.7723 34.5531C66.7723 32.1555 68.3919 30.3391 70.7368 30.0969C73.0575 29.8548 75.0397 31.2836 75.5232 33.5844C75.5957 33.9476 75.6199 34.3109 75.6199 34.6984C75.6441 36.8054 75.6441 38.9123 75.6441 41.4552Z" fill="#FE6D01"/>
<path d="M132.017 43.9738C132.017 40.8012 131.993 37.6529 132.017 34.4803C132.041 32.6397 132.815 31.2109 134.531 30.4843C136.296 29.7336 138.012 29.9273 139.487 31.2351C140.381 32.0101 140.841 33.0757 140.841 34.2381C140.865 40.7528 140.889 47.2433 140.841 53.7579C140.816 56.204 138.81 58.0203 136.393 57.9477C133.854 57.875 132.041 56.1071 132.017 53.6126C131.993 50.3916 132.017 47.1948 132.017 43.9738Z" fill="#FE6D01"/>
<path d="M171.71 36.4911C171.686 35.4013 171.71 34.3357 171.952 33.2701C172.435 31.042 174.297 29.7827 176.593 30.1459C178.793 30.485 180.195 32.3013 179.978 34.5294C179.784 36.37 179.277 38.1379 178.551 39.8332C178.116 40.8261 177.464 41.6253 176.4 41.9886C174.659 42.5698 172.846 41.7222 172.194 39.9785C171.759 38.8644 171.734 37.6778 171.71 36.4911Z" fill="#F40290"/>
</g>
<defs>
<clipPath id="clip0_189_10">
<rect width="155" height="28" fill="white" transform="translate(25 30)"/>
</clipPath>
</defs>
</svg>
