<svg width="205" height="88" viewBox="0 0 205 88" fill="none" xmlns="http://www.w3.org/2000/svg">
<path fill-rule="evenodd" clip-rule="evenodd" d="M61.5 28.454L50.15 36.488L39.002 28.582L27.838 36.5L16.5 28.459L39.002 12.5L61.5 28.454Z" fill="#FF555F"/>
<path fill-rule="evenodd" clip-rule="evenodd" d="M28.089 51.94V36.394L16.5 28.5V59.833L39.5 75.5V59.712L28.089 51.94ZM39.5 60.5H50.5V44.5001H39.5V60.5Z" fill="#25A5BD"/>
<path fill-rule="evenodd" clip-rule="evenodd" d="M39.5 75.5L62.5 60V44.5L39.5 59.88V75.5Z" fill="#1E2C4C"/>
<path fill-rule="evenodd" clip-rule="evenodd" d="M50.948 52.5L39.5 44.477L50.894 36.5L62.5 44.488L50.948 52.5Z" fill="#FF555F"/>
<path fill-rule="evenodd" clip-rule="evenodd" d="M85.5999 49.104C87.9879 49.104 89.9699 47.0619 89.9699 44.5029C89.9699 41.943 87.9879 39.9019 85.5999 39.9019C83.2479 39.9019 81.2649 41.943 81.2649 44.502C81.2649 47.0619 83.2469 49.104 85.5999 49.104ZM81.7699 52.7649C82.4749 54.1249 83.8869 55.065 85.4999 55.065C87.8529 55.065 89.7349 53.0889 89.7349 50.659V50.4969L89.668 50.4666C88.358 51.7296 86.676 52.5076 84.794 52.5076C80.761 52.5076 77.5 48.9116 77.5 44.5046C77.5 40.0655 80.761 36.5016 84.794 36.5016C86.676 36.5016 88.357 37.2796 89.668 38.5756L89.7349 38.5416V36.9216H93.4999V50.6596C93.4999 55.0016 90.1719 58.5006 85.6679 58.5006C82.6429 58.5006 80.0209 56.9456 78.6099 54.5806L81.7699 52.7649ZM106.475 42.395L106.509 42.33C105.677 40.84 104.214 39.836 102.518 39.836C100.755 39.836 99.3909 40.776 98.4929 42.33L98.5269 42.395H106.475ZM106.042 47.609L108.637 50.103C107.14 51.593 105.045 52.5 102.749 52.5C98.1599 52.5 94.4999 48.937 94.4999 44.5C94.4999 40.063 98.0599 36.4999 102.517 36.4999C103.567 36.4982 104.607 36.7041 105.578 37.1058C106.548 37.5074 107.43 38.0968 108.172 38.8403C108.913 39.5837 109.501 40.4665 109.901 41.4378C110.3 42.4091 110.504 43.4497 110.5 44.5C110.5 45.213 110.433 45.4069 110.433 45.4069H98.226C98.226 47.0909 100.255 49.067 102.583 49.067C103.947 49.067 105.143 48.484 106.042 47.609ZM116.144 44.716V52.5H112.5V36.9319H116.144V38.8279L116.21 38.862C117.446 37.2989 119.106 36.4999 120.83 36.4999C127.337 36.4999 127.5 42.5539 127.5 44.417V52.5H123.856V44.716C123.856 42.853 123.822 39.9919 120.049 39.9919C117.902 39.9919 116.144 42.088 116.144 44.716ZM137.416 39.9679C135.001 39.9679 133.056 42.05 133.056 44.626C133.056 47.236 135.001 49.3159 137.416 49.3159C139.764 49.3159 141.743 47.236 141.743 44.626C141.743 42.05 139.764 39.9679 137.416 39.9679ZM138.221 52.8179C136.309 52.8179 134.666 52.058 133.324 50.704L133.256 50.738V58.501H129.5V36.931H133.256V38.549L133.324 38.583C134.666 37.295 136.309 36.502 138.221 36.502C142.246 36.502 145.5 40.136 145.5 44.662C145.5 49.187 142.246 52.8179 138.221 52.8179ZM154.6 49.0659C156.988 49.0659 158.937 47.058 158.937 44.5C158.937 41.941 156.987 39.8999 154.601 39.8999C152.248 39.8999 150.265 41.941 150.265 44.5C150.265 47.058 152.247 49.0659 154.6 49.0659ZM153.795 36.4999C155.677 36.4999 157.358 37.278 158.669 38.573L158.736 38.539V36.9189H162.5V52.079H158.735V50.5239L158.668 50.4589C157.358 51.7219 155.676 52.5 153.794 52.5C149.761 52.5 146.5 48.937 146.5 44.4999C146.5 40.0629 149.761 36.4999 153.795 36.4999ZM178.5 50.103C177.734 50.8673 176.825 51.4725 175.824 51.8839C174.824 52.2953 173.752 52.5046 172.67 52.5C168.124 52.5 164.5 48.937 164.5 44.5C164.5 40.063 168.124 36.4999 172.67 36.4999C174.942 36.4999 177.018 37.407 178.5 38.897L175.898 41.293C175.486 40.8498 174.986 40.4972 174.43 40.2575C173.875 40.0179 173.275 39.8965 172.67 39.901C170.166 39.901 168.19 41.973 168.19 44.5C168.19 47.026 170.166 49.0659 172.67 49.0659C173.287 49.0647 173.898 48.9377 174.464 48.6927C175.03 48.4477 175.541 48.0899 175.964 47.6409L178.5 50.103ZM185.886 39.819V51.4999H182.114V39.819H179.5V36.3139H182.114V29.5H185.886V36.3139H188.5V39.819H185.886Z" fill="#25A5BD"/>
</svg>
