<svg width="205" height="88" viewBox="0 0 205 88" fill="none" xmlns="http://www.w3.org/2000/svg">
<g clip-path="url(#clip0_189_12)">
<path d="M172.275 34.1506C172.275 33.5026 172.897 33.2377 173.906 33.2377C174.897 33.2377 175.538 33.4795 175.538 34.1506C175.538 34.9837 174.531 35.0792 173.899 35.0792C172.892 35.0792 172.275 34.8138 172.275 34.1506ZM176.5 34.1506C176.5 32.8815 175.53 32 173.899 32C172.722 32 171.313 32.5871 171.313 34.1506C171.313 35.6468 172.562 36.3172 173.899 36.3172C175.255 36.3172 176.5 35.6467 176.5 34.1506ZM172.283 40.1079V39.2048C172.283 38.6461 172.635 38.4426 172.92 38.4426C173.236 38.4426 173.569 38.6572 173.569 39.2048V40.1079H172.283ZM174.436 40.1079V39.2463L176.427 38.4721V37.1607L174.201 38.0965C174.002 37.5514 173.473 37.2195 172.9 37.2195C171.97 37.2195 171.387 37.8291 171.387 39.0442V41.2865H176.427V40.1079H174.436ZM173.261 42.4103C172.048 42.5429 171.313 43.1905 171.313 44.4589C171.313 45.9764 172.51 46.7275 173.906 46.7275C175.28 46.7275 176.5 45.9983 176.5 44.4956C176.5 43.3312 175.818 42.5357 174.664 42.4103L174.59 43.5594C175.075 43.6261 175.538 43.8837 175.538 44.4367C175.538 45.3285 174.648 45.4094 173.958 45.4094C173.347 45.4094 172.261 45.3285 172.261 44.4956C172.261 43.847 172.781 43.6553 173.34 43.6487L173.261 42.4103ZM176.427 47.8636H171.387V49.0422H176.427V47.8636ZM176.427 52.948V53.7585L172.32 54.9763V55.0042H176.427V55.9982H171.387V54.1495L174.406 53.2648L171.387 52.3368V50.4877H176.427V51.6663H172.32V51.6954L176.427 52.948ZM72.6293 55.9982H53.553C52.0763 50.5016 48.9473 38.8968 48.9473 38.8968C48.9473 38.8968 48.893 38.8968 48.8923 38.8968V55.9982H41.0944V32.3673H54.633C56.0583 37.8171 59.0438 49.0307 59.0438 49.0307H59.0991V32.3673H66.915V35.9576C65.0101 37.9745 63.8538 40.5531 63.8538 43.7883C63.8538 48.4321 66.4554 54.1934 72.6293 55.9982ZM165.319 32.3673V55.9982H157.147V37.4901H157.032L152.336 55.9982H144.793L140.117 37.4901H139.991V55.9982H125.702L124.277 50.9079H116.598L115.174 55.9982H101.519C101.519 55.9982 101.057 52.5154 100.937 51.6451C100.533 48.7175 99.6519 48.0081 97.9084 48.0081C96.8482 48.0081 95.5239 48.0081 95.5239 48.0081V55.9982H81.5368C85.5663 55.0798 89.2051 53.2443 91.2909 51.981L88.3542 40.8115L80.5435 42.8762L82.2091 49.2109C81.7193 49.5586 80.0936 50.1314 78.9797 50.1314C75.251 50.1314 73.477 46.3836 73.477 43.1549C73.477 37.9582 78.7587 35.958 83.4149 35.958C84.4976 35.958 85.8961 36.0525 86.0914 36.0745L85.117 32.3673C92.0013 32.3673 99.8135 32.3673 101.395 32.3673C107.91 32.3673 110.435 35.4645 110.435 38.7584C110.435 43.7488 105.69 44.6874 104.785 44.8465C104.77 44.8488 104.771 44.9857 104.785 44.9884C106.681 45.3499 108.076 46.2701 108.963 47.8747C108.933 47.8206 113.948 33.6667 114.404 32.3673H126.917L132.196 47.188H132.267V32.3673H145.724C145.724 32.3673 148.841 45.3062 148.859 45.307C149.876 40.9986 151.915 32.3673 151.915 32.3673H165.319ZM28.5 32.3673H37.5669C37.5669 32.3673 37.5532 48.0706 37.5532 55.9982C37.4979 55.9982 28.5563 56.0023 28.5 55.9982L28.5 32.3673ZM120.366 37.442L117.832 45.2334H123.057L120.499 37.442H120.366ZM95.5239 42.6814C95.5239 42.6814 97.3254 42.6814 98.2192 42.6814C100.423 42.6814 101.341 41.5411 101.341 40.1421C101.341 38.3568 99.8234 37.6553 98.2192 37.6553C97.2667 37.6553 95.5239 37.6559 95.5239 37.6559V42.6814Z" fill="#3F71C0"/>
</g>
<defs>
<clipPath id="clip0_189_12">
<rect width="148" height="24" fill="white" transform="translate(28.5 32)"/>
</clipPath>
</defs>
</svg>
