<svg width="205" height="88" viewBox="0 0 205 88" fill="none" xmlns="http://www.w3.org/2000/svg">
<g clip-path="url(#clip0_189_14)">
<path d="M108.357 54.3848H125.52V52.294H111.299V45.6037H121.981V43.4882H111.299V37.3244H125.52V35.2412H108.357V54.3848Z" fill="black"/>
<path d="M117.276 32.1475L114.952 34.7509L122.247 32.1475H117.276Z" fill="black"/>
<path d="M154.332 52.294V35.2412H151.65V54.3848H169V52.294H154.332Z" fill="black"/>
<path d="M136.641 35.2412L126.881 54.3848H130.18L132.677 49.4298H144.382L146.901 54.3848H150.166L140.398 35.2412H136.641ZM133.912 47.0303L138.511 37.8865L143.164 47.0303H133.912Z" fill="black"/>
<path d="M99.0435 46.3799C103.441 45.2096 103.868 41.9464 103.846 40.7798C103.583 37.3599 101.273 35.2412 97.1217 35.2412H85.0237V54.3848H87.7816V46.3543H95.6577L101.452 54.3848H104.928C104.928 54.3848 100.758 48.9802 99.0435 46.3799ZM96.7451 44.0924H87.7816V37.5071H97.0575C99.1932 37.5071 100.394 38.5014 100.827 39.7645C101.114 40.6304 100.93 41.767 100.456 42.5408C99.6811 43.8201 98.2085 44.0924 96.7451 44.0924Z" fill="black"/>
<path d="M68.45 32C60.6648 32 55.3586 37.4744 55.3586 44.1003C55.3586 51.0757 61.2201 56 68.45 56C75.6751 56 81.5342 51.146 81.5342 44.1003C81.5342 37.4744 76.1623 32 68.45 32ZM68.3566 53.6237C62.9704 53.6237 58.5325 49.3069 58.5325 44.1068C58.5325 38.9138 62.7609 34.3903 68.5654 34.3903C74.226 34.3903 78.3871 38.9138 78.3871 44.1068C78.3871 49.3068 73.7404 53.6237 68.3566 53.6237Z" fill="black"/>
<path d="M48.4128 42.0135H50.4029L54.015 35.2412H51.1083L48.4128 42.0135Z" fill="black"/>
<path d="M38.6841 52.294V35.2412H36V54.3848H53.3497V52.294H38.6841Z" fill="black"/>
</g>
<defs>
<clipPath id="clip0_189_14">
<rect width="133" height="24" fill="white" transform="translate(36 32)"/>
</clipPath>
</defs>
</svg>
