<svg width="205" height="88" viewBox="0 0 205 88" fill="none" xmlns="http://www.w3.org/2000/svg">
<g clip-path="url(#clip0_189_23)">
<path d="M37.5311 29.2385C36.3832 28.5993 35.0347 28.2792 33.4855 28.2792H23.5V52.6896H27.8387V43.3263H33.4855C35.0347 43.3263 36.3832 43.007 37.5311 42.367C38.679 41.7277 39.5567 40.8412 40.165 39.7084C40.7733 38.5754 41.0774 37.2761 41.0774 35.8111C41.0774 34.3462 40.7725 33.0445 40.165 31.9052C39.5567 30.7659 38.6782 29.877 37.5311 29.2377V29.2385ZM36.2916 37.7034C36.0277 38.2674 35.6233 38.7146 35.0782 39.0459C34.5331 39.3771 33.8473 39.5427 33.021 39.5427H27.8387V32.0628H33.021C34.2376 32.0628 35.1532 32.4148 35.767 33.1181C36.3809 33.8214 36.6882 34.719 36.6882 35.812C36.6882 36.5096 36.5562 37.1401 36.2924 37.7042L36.2916 37.7034ZM72.7483 35.1143L65.4836 55.4794C64.9559 56.9668 64.2615 58.0597 63.4004 58.7574C62.5393 59.4542 61.4664 59.8031 60.1811 59.8031H57.9707V56.4035H59.8714C60.4679 56.4035 60.9616 56.1915 61.3519 55.7675C61.7421 55.3427 62.431 53.5441 62.6032 52.9688L56.1703 35.1143H60.3707L64.5372 47.7203C64.8129 46.6858 68.623 35.1143 68.623 35.1143H72.7491H72.7483ZM85.4538 43.9976C86.1885 44.7472 86.5559 45.8953 86.5559 47.4411C86.5559 48.5108 86.2778 49.4637 85.7208 50.3005C85.1639 51.1374 84.415 51.7919 83.4742 52.2623C82.5333 52.7328 81.511 52.9688 80.4098 52.9688H78.998C77.862 52.9688 76.8026 52.7472 75.8214 52.3063C74.8403 51.8647 74.0431 51.2551 73.4886 50.3886C72.9182 49.4972 72.6504 48.3084 72.6275 47.2154H76.6217C76.6904 47.9243 76.8129 48.8028 77.3019 49.2204C77.8517 49.6901 78.4008 49.8133 79.032 49.8133H80.2028C80.845 49.8133 81.3846 49.6509 81.8207 49.3253C82.2568 48.9996 82.4748 48.494 82.4748 47.8083C82.4748 47.2274 82.3081 46.777 81.9755 46.457C81.6422 46.1378 81.1318 45.9138 80.4429 45.7857L77.1202 45.1232C75.7314 44.8441 74.6728 44.2776 73.9436 43.423C73.2144 42.5686 72.8503 41.4853 72.8503 40.1715C72.8503 39.1491 73.1196 38.2305 73.6592 37.4169C74.1988 36.6032 74.9216 35.976 75.8285 35.5335C76.7355 35.0919 77.7111 34.8711 78.7555 34.8711H80.0811C81.1366 34.8711 82.1185 35.0863 83.0254 35.5159C83.9324 35.9464 84.6663 36.5536 85.2288 37.3377C85.7911 38.1226 86.0835 39.5491 86.1064 40.5716H82.2157C82.1691 39.9676 82.0672 39.1082 81.5703 38.629C81.0947 38.1698 80.5851 38.009 80.0116 38.009H78.8922C78.3068 38.009 77.8249 38.169 77.4457 38.4882C77.0673 38.8082 76.8777 39.2467 76.8777 39.8044C76.8777 40.258 77.0357 40.6532 77.3509 40.99C77.6661 41.3269 78.1282 41.5597 78.7365 41.6877L82.128 42.4029C83.6085 42.7174 84.716 43.2487 85.4507 43.9984L85.4538 43.9976ZM102.519 48.81C102.381 48.6188 102.312 48.3251 102.312 47.9299V41.3917C102.312 40.1715 102.053 39.0586 101.537 38.0529C101.02 37.0481 100.274 36.26 99.2986 35.6903C98.3229 35.1207 97.175 34.8359 95.855 34.8359H94.5981C93.4273 34.8359 92.3371 35.0831 91.3267 35.5767C90.3163 36.0712 89.4899 36.7712 88.8477 37.6777C88.2046 38.5842 87.9407 39.4099 87.8491 40.5724H91.8947C91.9524 39.7587 92.1356 39.2939 92.6523 38.829C93.1682 38.3642 93.8405 38.1665 94.5981 38.1665H95.855C96.291 38.1665 96.6987 38.2978 97.0771 38.5586C97.4555 38.8202 97.7541 39.1866 97.9722 39.6571C98.1902 40.1276 98.2992 40.654 98.2992 41.2349V41.5845L93.7022 42.2814C91.8544 42.5838 90.3763 43.1943 89.2687 44.112C88.1611 45.0304 87.6074 46.2858 87.6074 47.8779C87.6074 48.9012 87.8452 49.7965 88.3215 50.5629C88.7979 51.3303 89.4718 51.9231 90.3447 52.3415C91.2169 52.7599 92.2265 52.9696 93.3752 52.9696C94.6028 52.9696 95.6875 52.7256 96.6292 52.2375C97.5701 51.7495 98.2645 51.0815 98.7124 50.2325C98.7582 51.0815 99.0308 51.7031 99.53 52.0983C100.029 52.4935 100.709 52.6912 101.57 52.6912H104.272V49.2564C103.756 49.2564 103.368 49.2308 103.11 49.178C102.852 49.1261 102.654 49.0044 102.516 48.8116L102.519 48.81ZM98.3008 45.4017C98.3008 46.2618 98.1254 47.0234 97.7755 47.6859C97.4255 48.3484 96.9317 48.8628 96.295 49.2293C95.6575 49.5957 94.9259 49.7781 94.0996 49.7781C93.3988 49.7781 92.8253 49.5869 92.3782 49.2028C91.9302 48.8196 91.7067 48.3196 91.7067 47.7035C91.7067 46.9362 91.9563 46.3754 92.4556 46.0209C92.9549 45.6665 93.7267 45.396 94.7711 45.2104L98.3 44.548V45.4025L98.3008 45.4017ZM58.1255 49.2549C57.6089 49.2549 57.221 49.2293 56.9634 49.1765C56.7051 49.1244 56.5068 49.0028 56.3694 48.81C56.2319 48.6188 56.1624 48.3251 56.1624 47.9299V41.3917C56.1624 40.1715 55.904 39.0586 55.3874 38.0529C54.8707 37.0481 54.125 36.26 53.1493 35.6903C52.1737 35.1207 51.0258 34.8359 49.7058 34.8359H48.4489C47.2781 34.8359 46.1879 35.0831 45.1775 35.5767C44.1671 36.0712 43.3408 36.7712 42.6985 37.6777C42.0554 38.5842 41.7916 39.4099 41.6999 40.5724H45.7455C45.8032 39.7587 45.9865 39.2939 46.5031 38.829C47.019 38.3642 47.6913 38.1665 48.4489 38.1665H49.7058C50.1418 38.1665 50.5494 38.2978 50.9278 38.5586C51.3062 38.8202 51.6049 39.1866 51.8229 39.6571C52.0409 40.1276 52.15 40.654 52.15 41.2349V41.5845L47.553 42.2814C45.7052 42.5838 44.2271 43.1943 43.1196 44.112C42.012 45.0304 41.4582 46.2858 41.4582 47.8779C41.4582 48.9012 41.696 49.7965 42.1724 50.5629C42.6487 51.3303 43.3226 51.9231 44.1955 52.3415C45.0677 52.7599 46.0773 52.9696 47.226 52.9696C48.4536 52.9696 49.5383 52.7256 50.4799 52.2375C51.4208 51.7495 52.1152 51.0815 52.5631 50.2325C52.609 51.0815 52.8815 51.7031 53.3808 52.0983C53.8801 52.4935 54.5595 52.6912 55.4206 52.6912H58.1232V49.2564L58.1255 49.2549ZM52.1515 45.4017C52.1515 46.2618 51.9762 47.0234 51.6262 47.6859C51.2762 48.3484 50.7825 48.8628 50.1457 49.2293C49.5083 49.5957 48.7768 49.7781 47.9504 49.7781C47.2497 49.7781 46.6761 49.5869 46.229 49.2028C45.7811 48.8196 45.5575 48.3196 45.5575 47.7035C45.5575 46.9362 45.8071 46.3754 46.3064 46.0209C46.8057 45.6665 47.5775 45.396 48.6219 45.2104L52.1508 44.548V45.4025L52.1515 45.4017ZM115.282 38.5146H110.565V52.6896H106.52V38.5146H103.146V35.1143H106.52V33.4581C106.52 31.7732 106.939 30.4882 107.777 29.605C108.614 28.7217 109.79 28.28 111.306 28.28H115.282V31.6804H112.528C111.862 31.6804 111.368 31.858 111.047 32.2124C110.726 32.5668 110.565 33.1101 110.565 33.843V35.1159H115.282V38.5162V38.5146ZM127.695 35.9688C126.616 35.2135 125.399 34.8351 124.045 34.8351H122.72C121.435 34.8351 120.214 35.2039 119.061 35.9424C117.908 36.6808 116.975 37.7417 116.264 39.1243C115.552 40.5076 115.196 42.0829 115.196 43.8495C115.196 45.6161 115.526 47.177 116.186 48.5659C116.846 49.9549 117.758 51.0358 118.923 51.8087C120.088 52.5816 121.377 52.968 122.788 52.968H124.063C125.267 52.968 126.378 52.7 127.394 52.1656C128.41 51.6311 129.244 50.8958 129.899 49.9597C130.553 49.0244 130.937 47.9811 131.052 46.8298H127.195C127.046 47.5971 126.688 48.2395 126.12 48.7564C125.551 49.274 124.877 49.5324 124.097 49.5324H122.822C122.156 49.5324 121.551 49.2973 121.006 48.826C120.461 48.3556 120.027 47.6811 119.706 46.8034C119.484 46.1978 119.342 45.5257 119.273 44.7896H131.138C131.152 44.6672 131.207 43.6799 131.207 43.2727C131.207 41.7389 130.891 40.326 130.26 39.0355C129.629 37.7458 128.774 36.7225 127.695 35.9672V35.9688ZM119.425 41.7749C119.506 41.4069 119.611 41.0581 119.741 40.7292C120.085 39.858 120.536 39.1955 121.093 38.7419C121.649 38.289 122.232 38.0618 122.841 38.0618H124.045C124.585 38.0618 125.09 38.225 125.56 38.5499C126.031 38.8754 126.406 39.3259 126.688 39.9011C126.968 40.4764 127.121 41.1013 127.144 41.7757H119.424L119.425 41.7749ZM181.5 40.6172V40.6316C181.5 40.7677 181.446 40.8989 181.352 40.9949L169.327 53.1728C169.28 53.2209 169.215 53.248 169.148 53.248H169.072C168.932 53.248 168.818 53.1328 168.818 52.9912V40.6316C168.818 40.7677 168.764 40.8989 168.67 40.9949L156.719 53.0976C156.625 53.1936 156.495 53.248 156.36 53.248H156.346C156.212 53.248 156.083 53.1936 155.988 53.0976L144.037 40.9949C143.943 40.8989 143.889 40.7677 143.889 40.6316V40.6172C143.889 40.4812 143.943 40.35 144.037 40.254L155.987 28.1504C156.081 28.0544 156.21 28 156.345 28H156.36C156.494 28 156.623 28.0544 156.718 28.1504L168.668 40.2531C168.763 40.3492 168.817 40.4804 168.817 40.6164V28.2568C168.817 28.1152 168.93 28 169.07 28H169.146C169.213 28 169.278 28.0272 169.325 28.0752L181.35 40.2531C181.445 40.3492 181.498 40.4804 181.498 40.6164L181.5 40.6172Z" fill="black"/>
</g>
<defs>
<clipPath id="clip0_189_23">
<rect width="158" height="32" fill="white" transform="translate(23.5 28)"/>
</clipPath>
</defs>
</svg>
