<svg width="205" height="88" viewBox="0 0 205 88" fill="none" xmlns="http://www.w3.org/2000/svg">
<g clip-path="url(#clip0_189_17)">
<mask id="mask0_189_17" style="mask-type:luminance" maskUnits="userSpaceOnUse" x="10" y="13" width="183" height="62">
<path d="M192.003 13.6309H10.4517V74.4213H192.003V13.6309Z" fill="white"/>
</mask>
<g mask="url(#mask0_189_17)">
<path d="M41.2707 34.7109C38.4122 34.7109 36.7548 36.0074 35.9621 36.8717C35.866 36.1035 35.3615 35.1191 33.3918 35.1191H29.092V39.5847H30.8456C31.1338 39.5847 31.2299 39.6808 31.2299 39.9689V60.4004H36.3224V52.7656V52.1894C37.1151 52.9097 38.6284 53.918 41.0065 53.918C45.9788 53.918 49.4619 49.9806 49.4619 44.3145C49.4859 38.5764 46.171 34.7109 41.2707 34.7109ZM40.2378 49.4764C37.4994 49.4764 36.2503 46.8594 36.2503 44.4105C36.2503 40.5691 38.3401 39.2006 40.3099 39.2006C42.712 39.2006 44.3454 41.2654 44.3454 44.3625C44.3214 47.9158 42.2556 49.4764 40.2378 49.4764Z" fill="#203232"/>
</g>
<mask id="mask1_189_17" style="mask-type:luminance" maskUnits="userSpaceOnUse" x="10" y="13" width="183" height="62">
<path d="M192.003 13.6309H10.4517V74.4213H192.003V13.6309Z" fill="white"/>
</mask>
<g mask="url(#mask1_189_17)">
<path d="M56.3317 48.6836V37.8556C56.3317 36.0309 55.443 35.1426 53.6414 35.1426H49.0774V39.6082H50.8309C51.1192 39.6082 51.2153 39.7043 51.2153 39.9924V50.7724C51.2153 52.621 52.08 53.4854 53.9056 53.4854H58.4696V49.0437H56.7161C56.4519 49.0677 56.3317 48.9477 56.3317 48.6836Z" fill="#203232"/>
</g>
<mask id="mask2_189_17" style="mask-type:luminance" maskUnits="userSpaceOnUse" x="10" y="13" width="183" height="62">
<path d="M192.003 13.6309H10.4517V74.4213H192.003V13.6309Z" fill="white"/>
</mask>
<g mask="url(#mask2_189_17)">
<path d="M69.6396 34.7109C66.7811 34.7109 65.1236 36.0074 64.3069 36.8717C64.2109 36.1035 63.7064 35.1191 61.7367 35.1191H57.4609V39.5847H59.2145C59.5027 39.5847 59.5988 39.6808 59.5988 39.9689V60.4004H64.7393V52.7656V52.1894C65.532 52.9097 67.0694 53.918 69.4234 53.918C74.3958 53.918 77.8788 49.9806 77.8788 44.3145C77.8788 38.5764 74.5639 34.7109 69.6396 34.7109ZM68.6067 49.4764C65.8683 49.4764 64.6192 46.8594 64.6192 44.4105C64.6192 40.5691 66.709 39.2006 68.6788 39.2006C71.0809 39.2006 72.7143 41.2654 72.7143 44.3625C72.7143 47.9158 70.6485 49.4764 68.6067 49.4764Z" fill="#203232"/>
</g>
<mask id="mask3_189_17" style="mask-type:luminance" maskUnits="userSpaceOnUse" x="10" y="13" width="183" height="62">
<path d="M192.003 13.6309H10.4517V74.4213H192.003V13.6309Z" fill="white"/>
</mask>
<g mask="url(#mask3_189_17)">
<path d="M87.4632 34.7109C81.9624 34.7109 78.1431 38.6724 78.1431 44.3145C78.1431 49.8846 82.2747 53.918 87.9917 53.918C92.4836 53.918 95.222 51.2531 95.3421 51.157L95.5583 50.965L93.3484 47.2916L93.0121 47.6037C92.9881 47.6277 90.9703 49.4764 88.304 49.4764C85.7577 49.4764 83.8841 47.9158 83.4277 45.4669H95.5103L95.5343 45.1308C95.5343 45.0828 95.6544 44.0024 95.6544 43.4742C95.6544 38.2402 92.3635 34.7109 87.4632 34.7109ZM83.6199 41.6735C84.1724 39.8728 85.5656 38.8405 87.4632 38.8405C89.0006 38.8405 90.1776 40.0169 90.3938 41.6735H83.6199Z" fill="#203232"/>
</g>
<mask id="mask4_189_17" style="mask-type:luminance" maskUnits="userSpaceOnUse" x="10" y="13" width="183" height="62">
<path d="M192.003 13.6309H10.4517V74.4213H192.003V13.6309Z" fill="white"/>
</mask>
<g mask="url(#mask4_189_17)">
<path d="M114.199 48.6841V30.9415C114.199 29.1168 113.31 28.2285 111.484 28.2285H106.92V32.6942H108.674C108.962 32.6942 109.058 32.7902 109.058 33.0783V36.2955C108.313 35.6233 106.848 34.7349 104.302 34.7349C99.3536 34.7349 95.8945 38.6964 95.8945 44.3385C95.8945 50.0766 99.2094 53.942 104.11 53.942C106.92 53.942 108.554 52.6455 109.346 51.7332C109.442 52.5255 109.971 53.5339 111.869 53.5339H116.288V49.0922H114.583C114.295 49.0682 114.199 48.9482 114.199 48.6841ZM105.095 49.4764C102.668 49.4764 101.107 47.4596 101.107 44.3145C101.107 41.2653 102.741 39.2246 105.167 39.2246C107.929 39.2246 109.154 41.7695 109.154 44.2905C109.154 48.1319 107.064 49.4764 105.095 49.4764Z" fill="#203232"/>
</g>
<mask id="mask5_189_17" style="mask-type:luminance" maskUnits="userSpaceOnUse" x="10" y="13" width="183" height="62">
<path d="M192.003 13.6309H10.4517V74.4213H192.003V13.6309Z" fill="white"/>
</mask>
<g mask="url(#mask5_189_17)">
<path d="M127.65 34.8789C125.537 34.8789 123.567 36.1034 122.414 38.0481V37.6399C122.414 35.9833 121.501 35.119 119.699 35.119H115.328V39.5846H117.081C117.369 39.5846 117.466 39.6807 117.466 39.9688V53.4858H122.558V46.1391C122.558 45.1787 122.678 44.2424 122.918 43.3781C123.687 40.8331 125.729 39.9448 127.362 39.9448C127.939 39.9448 128.371 40.0168 128.371 40.0168L128.803 40.0888V35.023L128.491 34.9749C128.491 34.9509 128.059 34.8789 127.65 34.8789Z" fill="#203232"/>
</g>
<mask id="mask6_189_17" style="mask-type:luminance" maskUnits="userSpaceOnUse" x="10" y="13" width="183" height="62">
<path d="M192.003 13.6309H10.4517V74.4213H192.003V13.6309Z" fill="white"/>
</mask>
<g mask="url(#mask6_189_17)">
<path d="M136.058 48.6836V37.8556C136.058 36.0309 135.169 35.1426 133.367 35.1426H129.236V39.6082H130.557C130.845 39.6082 130.941 39.7043 130.941 39.9924V50.7724C130.941 52.621 131.806 53.4854 133.631 53.4854H138.195V49.0437H136.442C136.178 49.0677 136.058 48.9477 136.058 48.6836Z" fill="#203232"/>
</g>
<mask id="mask7_189_17" style="mask-type:luminance" maskUnits="userSpaceOnUse" x="10" y="13" width="183" height="62">
<path d="M192.003 13.6309H10.4517V74.4213H192.003V13.6309Z" fill="white"/>
</mask>
<g mask="url(#mask7_189_17)">
<path d="M155.299 35.1426H152.584C150.999 35.1426 150.134 35.6948 149.63 37.0393L146.315 46.3067C146.195 46.6428 146.099 47.027 146.002 47.4111C145.906 47.051 145.786 46.6428 145.666 46.3067L142.351 37.0393C141.847 35.6708 141.03 35.1426 139.397 35.1426H136.514V39.6082H137.259C137.667 39.6082 137.787 39.7523 137.883 39.9924L143.024 53.5094H148.765L153.905 39.9924C154.001 39.7523 154.122 39.6082 154.53 39.6082H155.323V35.1426H155.299Z" fill="#203232"/>
</g>
<mask id="mask8_189_17" style="mask-type:luminance" maskUnits="userSpaceOnUse" x="10" y="13" width="183" height="62">
<path d="M192.003 13.6309H10.4517V74.4213H192.003V13.6309Z" fill="white"/>
</mask>
<g mask="url(#mask8_189_17)">
<path d="M164.09 34.7109C158.589 34.7109 154.77 38.6724 154.77 44.3145C154.77 49.8846 158.902 53.918 164.619 53.918C169.111 53.918 171.849 51.2531 171.969 51.157L172.185 50.965L169.975 47.2916L169.639 47.6037C169.615 47.6277 167.597 49.4764 164.955 49.4764C162.409 49.4764 160.535 47.9158 160.079 45.4669H172.161L172.185 45.1308C172.185 45.0828 172.281 44.0024 172.281 43.4742C172.281 38.2402 168.99 34.7109 164.09 34.7109ZM160.247 41.6735C160.799 39.8728 162.193 38.8405 164.09 38.8405C165.628 38.8405 166.805 40.0169 167.021 41.6735H160.247Z" fill="#203232"/>
</g>
<mask id="mask9_189_17" style="mask-type:luminance" maskUnits="userSpaceOnUse" x="10" y="13" width="183" height="62">
<path d="M192.003 13.6309H10.4517V74.4213H192.003V13.6309Z" fill="white"/>
</mask>
<g mask="url(#mask9_189_17)">
<path d="M55.9716 28.2041H51.4316V32.9819H55.9716V28.2041Z" fill="#203232"/>
</g>
<mask id="mask10_189_17" style="mask-type:luminance" maskUnits="userSpaceOnUse" x="10" y="13" width="183" height="62">
<path d="M192.003 13.6309H10.4517V74.4213H192.003V13.6309Z" fill="white"/>
</mask>
<g mask="url(#mask10_189_17)">
<path d="M135.721 28.2041H131.181V32.9819H135.721V28.2041Z" fill="#203232"/>
</g>
<mask id="mask11_189_17" style="mask-type:luminance" maskUnits="userSpaceOnUse" x="10" y="13" width="183" height="62">
<path d="M192.003 13.6309H10.4517V74.4213H192.003V13.6309Z" fill="white"/>
</mask>
<g mask="url(#mask11_189_17)">
<path d="M172.185 35.1431H172.858V36.9678H173.362V35.1431H174.035V34.7109H172.185V35.1431Z" fill="#203232"/>
</g>
<mask id="mask12_189_17" style="mask-type:luminance" maskUnits="userSpaceOnUse" x="10" y="13" width="183" height="62">
<path d="M192.003 13.6309H10.4517V74.4213H192.003V13.6309Z" fill="white"/>
</mask>
<g mask="url(#mask12_189_17)">
<path d="M176.029 34.7109L175.524 36.2715L174.996 34.7109H174.299V36.9678H174.755V35.3832H174.779L175.332 36.9678H175.716L176.269 35.3832V36.9678H176.725V34.7109H176.029Z" fill="#203232"/>
</g>
</g>
<defs>
<clipPath id="clip0_189_17">
<rect width="158" height="42" fill="white" transform="translate(23.5 23)"/>
</clipPath>
</defs>
</svg>
