<svg width="205" height="88" viewBox="0 0 205 88" fill="none" xmlns="http://www.w3.org/2000/svg">
<path d="M32.3542 58.9629V53.0302H24.0077C21.5067 53.0302 19.5 51.0526 19.5 48.6097V33.5162C19.5 31.0733 21.5357 29.0957 24.0077 29.0957H30.493V33.5452H25.4036C24.5893 33.5452 23.9495 34.185 23.9495 34.9993V47.1265C23.9495 47.9408 24.5893 48.5806 25.4036 48.5806H36.8038V52.245C39.7992 50.9654 41.6314 50.0929 43.8998 49.0459C44.3942 48.8133 44.7141 48.2026 44.7141 47.65V34.9993C44.7141 34.185 44.0743 33.5452 43.26 33.5452H37.938V29.0957H44.685C47.1861 29.0957 49.1927 31.0733 49.1927 33.5162V48.6097C49.1927 50.5582 48.1458 51.8087 47.157 52.3322C45.0922 53.5827 32.3542 58.9629 32.3542 58.9629Z" fill="#EB6730"/>
<path d="M129.576 34.0391C131.96 34.0392 134.055 34.8827 135.654 36.3076L136.177 34.5332H139.928V53.0293H136.003L135.566 51.3721C133.967 52.7678 131.902 53.5819 129.576 53.582C124.021 53.582 119.862 49.3941 119.862 43.7812C119.862 38.1976 123.992 34.0391 129.576 34.0391ZM83.6843 48.2314H92.9031V53.0586H78.5076V29.0664H83.6843V48.2314ZM176.194 39.9141L179.626 34.5625H185.122L179.16 43.3164L185.5 53.0586H179.829L176.165 46.9512L172.413 53.0586H166.917L173.198 43.5488L167.324 34.5625H172.995L176.194 39.9141ZM150.835 34.5332H155.953V38.5469H150.922V45.7598C150.922 47.5335 151.94 48.5801 153.772 48.5801H156.04V53.0303H152.492C148.421 53.0302 145.92 50.5282 145.92 46.4277V38.5469H142.575V37.4707L149.875 29.7061H150.835V34.5332ZM164.473 53.0303H159.471V36.1914H164.473V53.0303ZM66.2351 29.0371C71.0335 29.0372 74.6101 32.3526 74.6101 36.9766C74.6101 40.1174 72.8942 42.6765 70.2478 43.9561L75.5408 53.0293H69.7537L65.0427 44.8574H61.7273V53.0293H56.5505V29.0371H66.2351ZM105.146 29.0371C112.184 29.0662 117.302 34.0972 117.302 41.0186C117.302 47.9692 112.184 53.0293 105.146 53.0293H96.073V29.0371H105.146ZM130.011 38.7217C127.103 38.7218 124.98 40.9023 124.98 43.7812C124.98 46.6894 127.103 48.8417 130.011 48.8418C132.891 48.8418 135.043 46.6604 135.043 43.7812C135.043 40.8732 132.92 38.7217 130.011 38.7217ZM101.25 48.2021H105.001C109.13 48.2312 111.981 45.2064 111.981 41.0186C111.981 36.8018 109.13 33.8643 105.001 33.8643H101.25V48.2021ZM61.7273 40.0596H65.8855C68.0666 40.0596 69.3464 38.7503 69.3464 36.9473C69.3464 35.1443 68.0375 33.8359 65.8855 33.8359H61.7273V40.0596ZM164.445 33.7197H159.471V29.0664H164.445V33.7197Z" fill="#59595C"/>
</svg>
