<svg width="205" height="88" viewBox="0 0 205 88" fill="none" xmlns="http://www.w3.org/2000/svg">
<path d="M55.3947 41.154C49.987 39.8258 48.9538 39.571 48.9538 38.0585C48.9538 36.5461 50.7058 35.6408 52.222 35.6408C54.4906 35.6408 56.3325 36.275 56.4729 38.7958H61.072C61.072 33.9819 56.9277 32.0195 52.4241 32.0195C48.5326 32.0195 44.3547 34.0578 44.3547 38.3296C44.3547 42.2382 47.5892 43.4308 50.7957 44.2494C54.0021 45.0679 57.2085 45.442 57.2085 47.6917C57.2085 49.9415 54.6759 50.2884 53.0025 50.2884C50.47 50.2884 48.2182 49.2042 48.2182 46.4395H43.6359C43.6359 51.5732 48.0441 53.85 52.8285 53.85C58.691 53.85 61.802 50.9986 61.802 47.1605C61.8076 42.4984 56.9614 41.5334 55.3947 41.154ZM77.7555 38.3296H72.7353L67.3276 43.7506V32.5833H63.043V53.4163H67.3444V48.223L69.001 46.7159L73.2856 53.4489H78.4743L71.9267 43.8699L77.7555 38.3296ZM88.7955 46.2443C88.7955 49.2638 87.796 50.5595 85.4824 50.5595C83.4833 50.5595 82.7308 49.3343 82.7308 46.8623V38.3296H78.4911V47.6158C78.4911 51.3455 79.6479 53.8338 84.1965 53.8338C86.1282 53.85 87.9307 52.9013 88.964 51.3292H89.0595V53.4272H93.1419V38.3296H88.8573L88.7955 46.2443ZM35.3812 37.0773C34.5389 34.8276 40.2273 29 29.7994 29C20.9157 29.0054 20.0903 37.5164 19.6972 38.1832C19.1202 38.9268 18.69 39.7666 18.4281 40.6606C18.1922 41.7611 18.4281 42.97 19.1637 42.97C20.2587 42.97 18.911 40.8395 20.2587 40.8395C21.9658 40.8395 23.9649 43.5121 24.5096 45.0192C23.5999 46.5262 22.3196 47.6321 21.3818 47.2093C20.8519 47.0344 20.3892 46.7088 20.0544 46.2753C19.7197 45.8419 19.5286 45.3208 19.5063 44.7806C19.5063 43.7994 18.5685 43.8319 18.6639 45.0842C18.7763 46.5316 19.5905 47.8435 20.854 48.6296C22.2755 49.7191 23.4203 51.108 24.2008 52.6899C24.622 53.6874 25.1723 54.197 26.6885 54.197C28.2046 54.197 27.0478 55.4655 28.0811 55.4655C29.1143 55.4655 28.5022 54.0614 29.1143 54.0614C29.7264 54.0614 29.1143 55.4059 30.2711 55.4059C32.04 55.4059 31.2426 53.2754 31.8322 52.9176C32.4275 52.5544 39.9803 48.6621 39.8511 43.8591C39.722 39.056 36.2404 39.3271 35.3812 37.0773ZM27.9688 50.6624C27.5491 50.4296 27.0843 50.2825 26.6032 50.2302C26.1221 50.178 25.6351 50.2218 25.1723 50.3589C24.4984 50.6028 23.8414 50.2396 24.3917 48.5916C24.6388 47.7568 25.0094 46.9599 25.4867 46.2226C26.8064 47.5399 28.0193 48.9494 29.1312 50.4348C29.1929 50.9172 28.3956 51.1016 27.9744 50.6137V50.6624H27.9688ZM33.1294 47.9302C30.8664 47.9953 28.9796 46.2823 28.9122 44.0976C28.8448 41.9129 30.6193 40.0914 32.8823 40.0264C35.1453 39.9613 37.0321 41.6744 37.0995 43.8591V43.9458C37.1332 46.0871 35.3643 47.8544 33.1462 47.8869H33.1294V47.9302ZM148.123 37.923C147.173 37.9121 146.236 38.1367 145.401 38.5751C144.566 39.0136 143.862 39.6514 143.355 40.4275H143.26V38.3296H139.161V53.4272H143.428V45.5016C143.428 42.4821 144.428 41.1865 146.742 41.1865C148.741 41.1865 149.493 42.4116 149.493 44.8836V53.4001H153.795V44.0976C153.828 40.4004 152.671 37.923 148.123 37.923ZM182.338 38.3296L178.913 48.6241L175.38 38.2971H170.815V32.5833H166.53V40.1294C166.012 39.3995 165.31 38.8097 164.489 38.4159C163.668 38.0222 162.757 37.8376 161.842 37.8797C157.242 37.8797 154.929 41.6364 154.929 45.6968C154.929 49.7571 157.226 53.7741 161.931 53.7741C163.818 53.8771 165.615 52.9827 166.62 51.4322V53.3621H170.703V38.5573L176.268 52.4731C176.514 52.931 176.562 53.4647 176.401 53.9567C176.24 54.4487 175.883 54.8588 175.409 55.0969C175.212 55.1944 174.999 55.2595 174.785 55.292C173.948 55.2866 173.112 55.2378 172.281 55.1402V58.5501C173.151 58.6368 174.033 58.6856 174.909 58.6856C177.329 59 179.626 57.5472 180.288 55.2757L186.808 38.2917L182.338 38.3296ZM162.976 50.695C160.32 50.695 159.208 48.2176 159.208 45.8486C159.208 43.4796 160.179 41.0781 162.976 41.0781C165.772 41.0781 166.665 43.4199 166.665 45.8648C166.665 48.3097 165.823 50.695 162.976 50.695ZM94.9557 53.4109H99.2571V32.5833H94.9557V53.4109ZM137.347 42.2111C137.347 38.5898 133.596 37.923 130.485 37.923C126.981 37.923 123.387 39.0831 123.134 42.9646H127.436C127.576 41.3329 128.637 40.6877 130.283 40.6877C131.922 40.6877 133.068 40.9425 133.068 42.7261C133.068 44.5096 130.631 44.3253 128.003 44.7047C125.375 45.0842 122.685 45.8648 122.685 49.2313C122.685 52.2508 125.043 53.7579 128.003 53.7579C129.946 53.85 131.844 53.1724 133.259 51.8876C133.292 52.4026 133.394 52.9068 133.556 53.3947H137.903C137.465 52.3321 137.279 51.1883 137.358 50.0445L137.347 42.2111ZM133.051 47.5725C133.127 48.0347 133.092 48.5077 132.946 48.9542C132.801 49.4007 132.55 49.8085 132.214 50.1454C131.877 50.4824 131.464 50.7392 131.007 50.8958C130.55 51.0523 130.062 51.1042 129.581 51.0473C128.188 51.0473 126.953 50.6679 126.953 49.1175C126.953 47.567 128.154 47.1713 129.485 46.9003C130.726 46.8623 131.945 46.5641 133.051 46.022V47.5725ZM101.324 53.4109H105.625V32.5833H101.324V53.4109ZM114.863 50.695C112.173 50.695 111.297 48.0983 111.297 45.9407C111.297 43.7832 112.156 41.0781 114.941 41.0781C115.712 41.0231 116.475 41.2655 117.061 41.7523C117.647 42.239 118.01 42.9304 118.069 43.6747H122.32C122.056 39.8258 118.659 37.9555 114.986 37.9555C109.904 37.9555 107.012 41.425 107.012 46.1196C106.776 50.1583 109.977 53.6115 114.155 53.8392C114.38 53.85 114.604 53.8554 114.829 53.8446C118.675 54.1373 122.045 51.3672 122.348 47.6538H118.266C118.23 48.4919 117.852 49.2823 117.214 49.8522C116.576 50.4221 115.731 50.7251 114.863 50.695Z" fill="black"/>
</svg>
