<svg width="205" height="88" viewBox="0 0 205 88" fill="none" xmlns="http://www.w3.org/2000/svg">
<path d="M26.748 31.2281H32.0868V35.9912H35.934V39.786H32.0868V47.6111C32.0868 49.2599 32.6103 49.574 34.3899 49.574H35.934V53.4473H32.5318C28.2135 53.4473 26.748 52.6098 26.748 48.5533V39.786H24V35.9912H26.748V31.2281ZM54.0443 48.0037C52.4741 52.1387 48.8101 53.9184 45.3294 53.9184C39.6503 53.9184 35.7508 50.49 35.7508 44.6538C35.7508 39.0532 39.9905 35.5201 45.12 35.5201C50.93 35.5201 54.4893 39.9169 54.1229 46.1194H41.1682C41.3252 48.6057 43.2619 49.731 45.1985 49.731C47.2399 49.731 48.5223 48.9982 49.1242 47.9775L54.0443 48.0037ZM41.2467 42.8742H48.8101C48.7055 40.6758 47.1875 39.5766 45.1462 39.5766C43.2095 39.5766 41.5346 40.5711 41.2467 42.8742ZM72.4949 42.4031H67.5224C67.0513 40.3618 65.769 39.6552 64.1987 39.6552C62.2882 39.6552 60.4039 40.9637 60.4039 44.7062C60.4039 48.501 62.2882 49.7572 64.1987 49.7572C66.1615 49.7572 67.3916 48.7365 67.7841 47.0616H72.7566C71.5528 52.2434 67.3654 53.8922 63.8585 53.8922C58.1009 53.8922 54.9342 50.2021 54.9342 44.6277C54.9342 39.0532 58.5719 35.494 63.8585 35.494C67.4701 35.494 71.4481 37.1427 72.4949 42.4031ZM78.6975 38.3204C79.4564 37.0119 81.3669 35.6248 84.1149 35.6248C88.5901 35.6248 90.0033 38.2681 90.0033 43.005V53.4996H84.6645V44.3659C84.6645 41.8797 84.5859 39.8384 81.995 39.8384C79.692 39.8384 78.7236 41.3301 78.7236 44.6015V53.552H73.3847V29.998H78.7236L78.6975 38.3204ZM102.304 41.1469C101.937 39.8384 100.576 39.472 98.9015 39.472C97.0434 39.472 96.1274 39.9169 96.1274 40.7805C96.1274 41.5918 96.7555 42.0629 98.2734 42.3508L101.545 42.9265C105.732 43.6855 107.747 44.9417 107.747 48.0037C107.747 51.9294 104.136 53.9184 99.2941 53.9184C94.6356 53.9184 91.3381 51.9555 90.7361 47.8205H95.7086C96.1797 49.4955 97.5406 50.0189 99.3726 50.0189C101.283 50.0189 102.618 49.4955 102.618 48.4486C102.618 47.6897 101.937 47.1662 99.8698 46.826L96.7555 46.3026C93.3794 45.753 91.0763 44.0519 91.0763 40.9637C91.0763 37.483 94.7403 35.5725 99.0585 35.5725C103.037 35.5725 106.674 37.1689 107.329 41.1731L102.304 41.1469ZM110.495 31.2281H115.834V35.9912H119.681V39.786H115.834V47.6111C115.834 49.2599 116.358 49.574 118.137 49.574H119.655V53.4473H116.279C111.961 53.4473 110.495 52.6098 110.495 48.5533V39.786H107.747V35.9912H110.495V31.2281ZM131.877 41.8797C131.877 39.786 130.882 39.1056 128.92 39.1056C127.192 39.1056 126.041 39.9954 125.805 41.6703H120.807C121.068 38.3728 124.183 35.4678 129.365 35.4678C134.416 35.4678 137.268 37.5091 137.164 42.8219L137.085 46.6167V48.4486C137.085 50.3591 137.216 52.4266 137.478 53.4996H132.217L132.139 51.3798C130.83 53.2379 128.763 53.9184 126.25 53.9184C122.927 53.9184 120.205 51.9817 120.205 48.7888C120.205 44.4968 125.046 43.1097 131.825 42.5863L131.877 41.8797ZM132.034 45.7268C128.292 46.0932 125.805 46.4596 125.805 48.3963C125.805 49.5216 126.878 50.2806 128.265 50.2806C130.411 50.2806 132.034 49.3646 132.034 46.1456V45.7268ZM149.412 41.1469C148.941 41.0684 148.417 41.016 147.946 41.0422C145.355 41.0422 144.02 41.9844 144.02 44.7062V53.4735H138.655V35.9912H143.811V39.3149C144.622 37.2213 146.088 35.9912 148.574 35.8865H148.967C149.124 35.8865 149.255 35.8865 149.412 35.9127V41.1469ZM161.241 41.1469C160.874 39.8384 159.514 39.472 157.839 39.472C155.981 39.472 155.065 39.9169 155.065 40.7805C155.065 41.5918 155.693 42.0629 157.211 42.3508L160.456 42.9265C164.643 43.6855 166.658 44.9417 166.658 48.0037C166.658 51.9294 163.047 53.9184 158.205 53.9184C153.573 53.9184 150.249 51.9555 149.647 47.8205H154.62C155.091 49.4955 156.452 50.0189 158.284 50.0189C160.194 50.0189 161.529 49.4955 161.529 48.4486C161.529 47.6897 160.848 47.1662 158.781 46.826L155.666 46.3026C152.29 45.753 150.014 44.0519 150.014 40.9637C150.014 37.483 153.677 35.5725 157.996 35.5725C161.974 35.5725 165.611 37.1689 166.266 41.1731L161.241 41.1469Z" fill="black"/>
<path d="M166.554 58.0014V53.5H181V58.0014H166.554Z" fill="#39C463"/>
</svg>
