<svg width="161" height="40" viewBox="0 0 161 40" fill="none" xmlns="http://www.w3.org/2000/svg">
<path d="M21.9453 29.9521C22.2077 29.9522 22.4238 30.1653 22.4238 30.4307V32.3203C22.4238 32.5828 22.6361 32.7987 22.9014 32.7988H24.791C25.0534 32.7988 25.2695 33.0119 25.2695 33.2773V39.5215C25.2695 39.784 25.0564 40 24.791 40H0.525391C0.262961 40 0.046875 39.7869 0.046875 39.5215V30.4307C0.046875 30.1682 0.260045 29.9521 0.525391 29.9521H21.9453ZM39.5225 16.6338C39.7847 16.634 40 16.847 40 17.1123H39.9971V39.5215C39.997 39.7839 39.7847 39.9998 39.5195 40H29.0137C28.7513 40 28.5352 39.7869 28.5352 39.5215V30.0273C28.5351 29.7649 28.322 29.5488 28.0566 29.5488H26.1465C25.8843 29.5486 25.6689 29.3356 25.6689 29.0703V27.1602C25.6689 26.8977 25.4557 26.6816 25.1904 26.6816H0.525391C0.262961 26.6816 0.046875 26.4685 0.046875 26.2031V17.1123C0.046875 16.8498 0.260045 16.6338 0.525391 16.6338H39.5225ZM39.4756 0C39.7379 0.000190035 39.9531 0.213211 39.9531 0.478516H39.9502V12.8887C39.9502 13.1511 39.7378 13.367 39.4727 13.3672H29.0127C28.7504 13.367 28.5352 13.154 28.5352 12.8887V10.5264C28.5351 10.2639 28.3219 10.0479 28.0566 10.0479H0.478516C0.216086 10.0479 0 9.83476 0 9.56934V0.478516C0 0.213092 0.21317 0 0.478516 0H39.4756Z" fill="url(#paint0_linear_196_157)"/>
<path d="M63.3012 10.532C63.0093 10.1957 62.6133 9.94352 62.1134 9.7821C61.6134 9.62069 61.1403 9.53998 60.6941 9.53998C60.4323 9.53998 60.1639 9.56688 59.8854 9.62405C59.6103 9.68122 59.3486 9.76865 59.1003 9.88971C58.8553 10.0108 58.654 10.1688 58.4996 10.3639C58.3453 10.5623 58.2681 10.801 58.2681 11.0801C58.2681 11.5308 58.4527 11.8738 58.8218 12.1159C59.1908 12.3547 59.6539 12.5598 60.2176 12.7279C60.7779 12.8961 61.3819 13.0642 62.0295 13.2357C62.6737 13.4039 63.2777 13.6426 63.8381 13.952C64.3984 14.2614 64.8648 14.6784 65.2339 15.1962C65.603 15.7175 65.7875 16.4136 65.7875 17.2845C65.7875 18.1555 65.6198 18.8382 65.2809 19.4603C64.942 20.079 64.4856 20.5935 63.9085 21.0004C63.3314 21.4073 62.6637 21.71 61.902 21.9084C61.1403 22.1068 60.3384 22.2043 59.4928 22.2043C58.4325 22.2043 57.4494 22.0564 56.5401 21.7604C55.6341 21.4645 54.7886 20.987 54.0034 20.3245L56.5636 17.7486C56.9327 18.1992 57.3957 18.549 57.9594 18.7944C58.5198 19.0399 59.1003 19.1643 59.7009 19.1643C59.9928 19.1643 60.2881 19.1341 60.59 19.0702C60.8887 19.0063 61.1571 18.9121 61.3987 18.7843C61.6369 18.6566 61.8282 18.4951 61.9758 18.3001C62.1201 18.1017 62.1939 17.8697 62.1939 17.604C62.1939 17.1534 62.006 16.7969 61.6302 16.538C61.2544 16.2791 60.7813 16.0571 60.2109 15.8722C59.6405 15.6906 59.0264 15.5056 58.3654 15.324C57.7044 15.1424 57.0904 14.8936 56.52 14.5842C55.9495 14.2748 55.4798 13.8679 55.1006 13.3601C54.7248 12.8524 54.5369 12.1865 54.5369 11.3559C54.5369 10.5253 54.7114 9.84936 55.057 9.24406C55.4026 8.63875 55.8657 8.13096 56.4394 7.72406C57.0166 7.31716 57.6809 7.01115 58.4325 6.80602C59.1841 6.60088 59.9626 6.5 60.7612 6.5C61.6839 6.5 62.5764 6.62106 63.4354 6.85982C64.2944 7.09858 65.0728 7.50212 65.7641 8.06371L63.2978 10.532H63.3012Z" fill="white"/>
<path d="M71.9246 6.87988H75.5215V12.4521H82.5075V6.87988H86.1044V21.8276H82.5075V15.3676H75.5215V21.8276H71.9246V6.87988Z" fill="white"/>
<path d="M93.0232 6.87988H104.113V9.91986H96.6202V12.7076H103.7V15.7476H96.6202V18.7876H104.529V21.8276H93.0232V6.87988Z" fill="white"/>
<path d="M110.867 6.88032H117.185C118.014 6.88032 118.803 6.9543 119.548 7.10226C120.292 7.25022 120.947 7.49571 121.507 7.84208C122.067 8.18845 122.514 8.65252 122.846 9.23428C123.175 9.81941 123.343 10.5458 123.343 11.4201C123.343 12.476 123.044 13.3739 122.443 14.1104C121.843 14.8502 120.967 15.3176 119.816 15.5127L123.967 21.8246H119.655L116.243 15.8489H114.468V21.8246H110.871V6.87695L110.867 6.88032ZM114.464 13.0645H116.585C116.907 13.0645 117.249 13.0544 117.612 13.0343C117.974 13.0141 118.299 12.9502 118.591 12.8426C118.883 12.7383 119.125 12.5702 119.316 12.3449C119.507 12.1196 119.605 11.8035 119.605 11.3966C119.605 11.0166 119.521 10.7139 119.35 10.4886C119.182 10.2633 118.964 10.0918 118.705 9.97074C118.447 9.84968 118.145 9.76897 117.806 9.72862C117.467 9.68826 117.138 9.66472 116.813 9.66472H114.461V13.0645H114.464Z" fill="white"/>
<path d="M129.268 6.87988H135.331C136.177 6.87988 136.975 6.9505 137.73 7.09174C138.482 7.23298 139.14 7.4751 139.703 7.82147C140.264 8.16784 140.71 8.63191 141.042 9.21367C141.371 9.7988 141.539 10.5319 141.539 11.4197C141.539 12.3075 141.384 13.0237 141.079 13.6156C140.77 14.2074 140.348 14.6782 139.811 15.0313C139.274 15.3844 138.636 15.6333 137.898 15.7812C137.16 15.9292 136.361 16.0032 135.499 16.0032H132.872V21.8309H129.275V6.88325L129.268 6.87988ZM132.865 13.2121H135.264C135.586 13.2121 135.898 13.1852 136.197 13.128C136.496 13.0708 136.764 12.9767 137.006 12.8421C137.244 12.7076 137.435 12.526 137.583 12.294C137.727 12.062 137.801 11.7694 137.801 11.4163C137.801 11.0363 137.704 10.7303 137.512 10.4983C137.321 10.2662 137.073 10.088 136.774 9.96022C136.475 9.83243 136.14 9.75172 135.771 9.7181C135.402 9.68447 135.049 9.66429 134.711 9.66429H132.865V13.2121Z" fill="white"/>
<path d="M150.92 6.87988H153.897L161 21.8276H156.94L155.534 18.6598H149.192L147.834 21.8276H143.867L150.924 6.87988H150.92ZM152.306 11.228L150.323 15.872H154.313L152.306 11.228Z" fill="white"/>
<path d="M54.0034 26.1592H55.1241L58.0466 32.3165L60.9691 26.1592H62.0328V33.5002H61.2845V27.0301H61.2611L58.2043 33.5002H57.8755L54.7717 27.0301H54.7483V33.5002H54V26.1592H54.0034Z" fill="white"/>
<path d="M68.3376 26.1592H73.2399V26.7813H69.0859V29.3942H72.9815V30.0163H69.0859V32.8781H73.4211V33.5002H68.3376V26.1592Z" fill="white"/>
<path d="M79.1418 26.1585H81.6215C82.316 26.1585 82.9032 26.2359 83.3864 26.3906C83.8696 26.5452 84.2722 26.7437 84.591 26.9858C84.9131 27.2279 85.1648 27.4969 85.3493 27.7895C85.5339 28.0821 85.6714 28.3645 85.7553 28.6336C85.8392 28.9026 85.8962 29.1481 85.9197 29.3633C85.9432 29.5819 85.9533 29.7332 85.9533 29.824C85.9533 29.9148 85.9432 30.0661 85.9197 30.2847C85.8962 30.5033 85.8426 30.7454 85.7553 31.0144C85.6681 31.2835 85.5339 31.5659 85.3493 31.8585C85.1648 32.1511 84.9131 32.4201 84.591 32.6622C84.2689 32.9043 83.8696 33.1027 83.3864 33.2574C82.9032 33.4121 82.3127 33.4895 81.6215 33.4895H79.1418V26.1484V26.1585ZM79.8867 32.8774H81.4269C81.957 32.8774 82.4503 32.8169 82.9099 32.6958C83.3696 32.5748 83.7723 32.3898 84.1112 32.141C84.4501 31.8921 84.7185 31.576 84.9165 31.1927C85.1144 30.8093 85.2118 30.3553 85.2118 29.8307C85.2118 29.3061 85.1144 28.8521 84.9165 28.4688C84.7185 28.0854 84.4534 27.7693 84.1112 27.5205C83.7723 27.2716 83.3696 27.0867 82.9099 26.9656C82.4503 26.8445 81.9537 26.784 81.4269 26.784H79.8867V32.8808V32.8774Z" fill="white"/>
<path d="M91.8218 26.1592H92.57V33.5002H91.8218V26.1592Z" fill="white"/>
<path d="M101.415 26.1592H102.183L105.559 33.5002H104.72L103.848 31.5498H99.603L98.6971 33.5002H97.9153L101.415 26.1592ZM101.764 26.9057L99.895 30.9276H103.576L101.764 26.9057Z" fill="white"/>
<defs>
<linearGradient id="paint0_linear_196_157" x1="0.0466997" y1="34.9774" x2="39.9476" y2="34.9774" gradientUnits="userSpaceOnUse">
<stop stop-color="#1771FF"/>
<stop offset="1" stop-color="#1F4285"/>
</linearGradient>
</defs>
</svg>
