<svg width="205" height="88" viewBox="0 0 205 88" fill="none" xmlns="http://www.w3.org/2000/svg">
<path d="M106.981 47.9583C102.605 47.9583 99.1365 51.2042 99.1365 55.4792C99.1365 59.7542 102.687 63 106.981 63C111.358 63 114.826 59.675 114.826 55.4792C114.826 51.2042 111.358 47.9583 106.981 47.9583ZM106.981 50.9667C109.624 50.9667 111.606 52.8667 111.606 55.4792C111.606 58.0917 109.541 59.9917 106.981 59.9917C104.339 59.9917 102.357 58.0917 102.357 55.4792C102.274 52.8667 104.339 50.9667 106.981 50.9667ZM172.3 58.1708V51.2833H176.016V48.275H172.3V44.2375L169.08 45.1875V48.275H166.355V51.2833H169.08V58.1708C169.08 61.8917 171.062 63.2375 176.016 62.6042V59.8333C173.539 59.9917 172.3 59.9917 172.3 58.1708ZM188.981 59.7542H181.631L188.981 51.2833V48.4333H177.585V51.2833H184.935L177.585 59.7542V62.6833H188.981V59.7542ZM123.91 48.1167V51.4417C121.763 51.2833 119.285 52.2333 119.285 55.4792V62.6833H116.065V48.3542H119.285V50.7292C120.194 48.8292 122.01 48.1167 123.91 48.1167ZM131.672 47.9583C127.295 47.9583 123.827 51.2042 123.827 55.4792C123.827 59.7542 127.378 63 131.672 63C136.049 63 139.517 59.675 139.517 55.4792C139.6 51.2042 136.131 47.9583 131.672 47.9583ZM131.672 50.9667C134.315 50.9667 136.296 52.8667 136.296 55.4792C136.296 58.0917 134.232 59.9917 131.672 59.9917C129.03 59.9917 127.048 58.0917 127.048 55.4792C127.048 52.8667 129.112 50.9667 131.672 50.9667ZM160.822 48.3542L156.115 62.6833H152.977L149.839 53.025L146.701 62.6833H143.563L138.856 48.3542H142.242L145.132 58.25L148.27 48.3542H151.326L154.463 58.25L157.354 48.3542H160.822ZM165.116 48.3542H161.895V62.6833H165.116V48.3542ZM60.325 25.95V31.8875C59.0864 31.0167 57.3522 30.3042 55.7007 30.3042C51.0763 30.3042 47.3604 34.1833 47.8558 38.6958C48.2687 42.1792 51.2415 45.0292 54.8749 45.425C56.9394 45.5833 58.8386 45.0292 60.325 44V45.1083H63.6281V25L60.325 25.95ZM60.2425 37.9042C60.2425 40.675 57.6 42.8125 54.6272 42.1792C52.8931 41.8625 51.4892 40.5167 51.0763 38.775C50.4983 35.925 52.8105 33.3917 55.7007 33.3917C58.178 33.3917 60.2425 35.3708 60.2425 37.9042ZM28.4501 30.7792V31.7292C27.2114 30.8583 25.5599 30.3042 23.9083 30.3042C19.284 30.3042 15.568 34.1833 16.0635 38.6958C16.4763 42.1792 19.4491 45.0292 23.0826 45.425C25.147 45.5833 27.0463 45.0292 28.5327 44V45.1083H31.8358V30.7792H28.4501ZM28.4501 37.9042C28.4501 40.675 25.8076 42.8125 22.8348 42.1792C21.1007 41.8625 19.6969 40.5167 19.284 38.775C18.7059 35.925 21.0181 33.3917 23.9083 33.3917C26.3857 33.3917 28.4501 35.3708 28.4501 37.9042ZM40.9193 30.3833C38.8549 30.3833 37.2859 31.0958 36.295 32.6V30.7H33.0744V45.0292H36.295V37.35C36.295 34.4208 37.9465 33.2333 40.0935 33.2333C42.158 33.2333 43.3966 34.3417 43.3966 36.5583V45.0292H46.6172V36.3208C46.6997 32.6 44.305 30.3833 40.9193 30.3833ZM100.953 40.8333C100.21 41.8625 98.8888 42.575 97.072 42.575C94.6773 42.575 92.778 41.4667 92.2826 39.1708H104.174C104.256 38.775 104.256 38.3 104.256 37.9042C104.256 33.7875 101.201 30.3833 96.7417 30.3833C92.0348 30.3833 88.8969 33.7083 88.8969 37.9042C88.8969 42.1792 92.1174 45.425 96.9895 45.425C99.8797 45.425 102.192 44.2375 103.513 42.3375L100.953 40.8333ZM96.8243 33.2333C98.8062 33.2333 100.623 34.2625 101.118 36.7167H92.2826C92.778 34.5792 94.4296 33.2333 96.8243 33.2333ZM137.865 42.6542C139.682 42.6542 141.003 41.8625 141.747 40.9125L144.389 42.4167C142.985 44.3958 140.756 45.5042 137.865 45.5042C132.911 45.5042 129.773 42.2583 129.773 37.9833C129.773 33.7083 132.993 30.4625 137.618 30.4625C142.077 30.4625 145.132 33.8667 145.132 37.9833C145.132 38.1417 145.132 38.3792 145.05 38.6167C145.05 38.8542 144.967 39.0125 144.967 39.25H133.076C133.571 41.4667 135.471 42.6542 137.865 42.6542ZM141.829 36.7167C141.416 34.2625 139.517 33.2333 137.535 33.2333C135.14 33.2333 133.489 34.5792 132.993 36.7167H141.829ZM165.116 45.1083H161.895V42.3375H165.116V45.1083ZM146.701 45.1083H149.922V37.4292C149.922 34.5 151.573 33.3125 153.72 33.3125C155.702 33.3125 157.023 34.5 157.023 36.6375V45.0292H160.244V36.2417C160.244 32.5208 157.849 30.3833 154.546 30.3833C152.482 30.3833 150.913 31.0958 149.922 32.6V30.7792H146.701V45.1083ZM108.55 34.7375C108.55 33.7083 109.541 33.2333 110.697 33.2333C111.853 33.2333 112.844 33.7083 113.422 34.6583L116.23 33.3125C115.157 31.4917 113.175 30.3833 110.697 30.3833C107.642 30.3833 105.247 32.0458 105.247 34.7375C105.247 37.7458 107.89 38.4583 110.202 39.0917H110.284C110.367 39.0917 110.45 39.1708 110.532 39.1708C112.101 39.6458 113.257 39.9625 113.257 40.9917C113.257 42.1 112.184 42.575 110.697 42.575C109.294 42.575 108.137 42.0208 107.559 40.9917L104.669 42.3375C105.66 44.2375 107.807 45.425 110.615 45.425C113.835 45.425 116.478 43.8417 116.478 40.9917C116.478 37.9042 113.67 37.1125 111.441 36.5583C109.954 36.1625 108.55 35.7667 108.55 34.7375ZM121.02 34.7375C121.02 33.7083 122.01 33.2333 123.167 33.2333C124.323 33.2333 125.314 33.7083 125.974 34.7375L128.782 33.3917C127.708 31.5708 125.644 30.4625 123.249 30.4625C120.194 30.4625 117.799 32.125 117.799 34.8167C117.799 37.825 120.442 38.5375 122.754 39.1708H123.001C124.488 39.6458 125.809 40.0417 125.809 41.0708C125.809 42.1792 124.653 42.6542 123.249 42.6542C121.763 42.6542 120.689 42.1 120.111 41.0708L117.221 42.4167C118.212 44.3167 120.276 45.5042 123.167 45.5042C126.47 45.5042 129.03 43.9208 129.03 41.0708C129.03 37.9833 126.387 37.2708 124.075 36.6375H123.992C123.827 36.6375 123.745 36.5583 123.579 36.5583C122.176 36.0833 121.02 35.7667 121.02 34.7375ZM72.7942 33.8667V30.5417C70.895 30.5417 69.0783 31.2542 68.1699 33.1542V30.7792H64.9494V45.1083H68.1699V37.9042C68.1699 34.6583 70.6472 33.7083 72.7942 33.8667ZM87.5756 42.3375V50.175C88.5666 48.6708 90.1355 47.9583 92.2 47.9583C95.5031 47.9583 97.8978 50.0958 97.8978 53.8167V62.6833H94.6773V54.2125C94.6773 52.075 93.3561 50.8875 91.3742 50.8875C89.2272 50.8875 87.5756 52.075 87.5756 55.0042V62.6833H84.3551V44.8708C83.3642 45.2667 82.2907 45.5042 81.052 45.5042C76.0973 45.5042 72.9594 42.2583 72.9594 37.9833C72.9594 33.7083 76.1799 30.4625 80.8043 30.4625C85.2635 30.4625 88.3188 33.8667 88.3188 37.9833C88.3188 38.1417 88.3188 38.3792 88.2363 38.6167C88.2363 38.8542 88.1537 39.0125 88.1537 39.25H76.2625C76.758 41.4667 78.6573 42.6542 81.052 42.6542C82.4558 42.6542 83.5293 42.1792 84.3551 41.5458C84.6028 41.3875 84.768 41.15 84.9331 40.9125L87.5756 42.3375ZM85.0157 36.7167C84.5203 34.2625 82.7036 33.2333 80.7217 33.2333C78.3269 33.2333 76.6754 34.5792 76.2625 36.7167H85.0157Z" fill="#40474F"/>
</svg>
