<svg width="205" height="88" viewBox="0 0 205 88" fill="none" xmlns="http://www.w3.org/2000/svg">
<g clip-path="url(#clip0_189_27)">
<path d="M27.117 58.2626C27.0325 58.2308 26.8847 58.154 26.7886 58.0919C26.5751 57.954 23.6133 54.9434 23.4165 54.6643C23.1553 54.2937 23.0714 53.9806 23.1497 53.6678C23.2126 53.4165 23.3338 53.2305 23.6013 52.9748C23.8411 52.7455 23.8492 52.74 26.7066 50.8633C29.9008 48.7654 30.3625 48.4847 30.8085 48.3687C31.0644 48.3022 31.3769 48.322 31.5736 48.4171C31.7771 48.5155 32.6834 49.4429 32.7794 49.6509C32.8642 49.8346 32.8906 50.1538 32.8396 50.3779C32.7304 50.8572 32.5132 51.2337 30.4611 54.5003C29.8538 55.467 29.2314 56.4642 29.078 56.7164C28.4758 57.7063 28.1983 58.0501 27.868 58.2156C27.645 58.3272 27.3396 58.3464 27.117 58.2626ZM42.7324 39.6183C42.5206 39.5433 42.311 39.3701 41.876 38.9104C41.6314 38.652 41.4792 38.4637 41.4277 38.3558C41.3329 38.1571 41.3002 37.8784 41.346 37.6597C41.4493 37.1664 41.6549 36.8068 43.6623 33.6072C44.3374 32.5313 45.0438 31.3988 45.232 31.0908C45.4203 30.7827 45.6583 30.4227 45.7611 30.2908C46.3337 29.5558 46.917 29.4862 47.6196 30.0691C47.7428 30.1713 48.4828 30.9129 49.264 31.7171C50.7183 33.214 50.8816 33.4049 51.0111 33.7594C51.0982 33.9978 51.0868 34.301 50.9825 34.5192C50.8072 34.886 50.4813 35.1731 49.5703 35.7634C49.2775 35.9532 48.2862 36.6031 47.3674 37.2078C44.8796 38.8452 44.1333 39.3172 43.7517 39.4943C43.3658 39.6734 43.0105 39.7166 42.7324 39.6183Z" fill="#D437FD"/>
<path d="M34.8862 61.4659C34.2493 61.3709 33.8937 61.0381 33.8239 60.4716C33.7822 60.1335 33.84 59.7305 34.1085 58.489C34.2466 57.8501 34.4684 56.8116 34.6013 56.1811C35.4581 52.1162 35.5726 51.7147 35.9836 51.3344C36.236 51.1009 36.347 51.0763 37.1505 51.0763C37.6592 51.0763 37.8834 51.0878 37.9845 51.1189C38.1831 51.1801 38.4018 51.3569 38.539 51.5672C38.8155 51.9912 38.9218 52.4108 39.7814 56.4715C39.9879 57.4466 40.216 58.5058 40.2883 58.8252C40.3607 59.1447 40.4413 59.5229 40.4675 59.6658C40.5242 59.9747 40.5322 60.4876 40.4835 60.6769C40.4066 60.9753 40.2141 61.203 39.9238 61.3391C39.6009 61.4904 39.4681 61.498 37.1839 61.4951C36.018 61.4936 34.984 61.4805 34.8862 61.4659ZM30.9285 39.6552C30.4501 39.5618 30.0489 39.3222 26.9274 37.2651C26.0981 36.7185 25.1105 36.0729 24.7328 35.8302C23.6722 35.149 23.3747 34.8975 23.1958 34.5309C23.0297 34.1908 23.0815 33.7895 23.3426 33.3922C23.4668 33.2032 26.3683 30.2158 26.6139 30.024C27.1482 29.6068 27.6143 29.5726 28.0596 29.9181C28.3157 30.1169 28.5773 30.4532 28.9716 31.0908C29.1516 31.3818 29.7909 32.4041 30.3923 33.3624C32.4519 36.6444 32.6645 37.0082 32.8106 37.5008C32.8989 37.7983 32.8841 38.1229 32.7722 38.3449C32.6594 38.5686 31.7388 39.4963 31.5405 39.5861C31.3948 39.6521 31.0891 39.6866 30.9285 39.6552Z" fill="#01F0E5"/>
<path d="M46.344 58.1985C45.9735 58.009 45.7249 57.7103 45.1103 56.7165C44.892 56.3634 44.2323 55.3088 43.6445 54.3729C42.5034 52.5562 41.9992 51.7356 41.7228 51.2449C41.3044 50.5022 41.2219 50.0307 41.4376 49.6163C41.565 49.3716 42.3982 48.5243 42.6182 48.4156C42.8342 48.309 43.1588 48.2975 43.4447 48.3864C43.9056 48.5297 44.2423 48.7365 47.4254 50.8309C48.3615 51.4468 49.3608 52.1001 49.6461 52.2826C49.9313 52.4652 50.2673 52.6924 50.3925 52.7876C51.1521 53.3648 51.2836 53.9502 50.8061 54.6279C50.6361 54.8692 47.6588 57.9089 47.456 58.0482C47.0673 58.3153 46.6758 58.3682 46.344 58.1985ZM20.8042 47.3974C20.355 47.2734 20.1108 46.9259 20.0284 46.2929C20.0074 46.1317 20.0003 45.2986 20.0077 43.8475C20.0201 41.415 20.0142 41.493 20.217 41.1018C20.3719 40.8032 20.6139 40.6451 21.0004 40.5901C21.2856 40.5495 21.6505 40.5893 22.2694 40.7283C22.5239 40.7855 23.6929 41.0468 24.8671 41.309C27.289 41.8497 28.4487 42.1194 28.8296 42.2305C29.5736 42.4476 29.9301 42.6814 30.1042 43.0665C30.163 43.1966 30.167 43.2567 30.167 44.0003V44.7951L30.0846 44.967C29.928 45.2935 29.5793 45.5425 29.0466 45.7083C28.5689 45.857 27.6717 46.0676 24.9268 46.6754C24.0811 46.8627 23.0464 47.0961 22.6277 47.1941C22.2089 47.2922 21.7696 47.3874 21.6515 47.4058C21.3734 47.4491 20.9771 47.4452 20.8042 47.3974ZM36.2984 36.8823C35.8744 36.7235 35.6463 36.4224 35.4416 35.7518C35.3223 35.3612 35.0259 34.0449 34.5559 31.8191C34.3482 30.8356 34.0929 29.6458 33.9886 29.175C33.7798 28.2326 33.7228 27.8416 33.753 27.5588C33.8097 27.0282 34.0696 26.7263 34.6032 26.5714C34.7813 26.5196 34.9584 26.5156 37.0644 26.5156C39.5288 26.5156 39.5206 26.5151 39.8762 26.6871C40.1041 26.7974 40.3087 27.021 40.3841 27.2425C40.4272 27.369 40.438 27.4909 40.4364 27.83C40.4346 28.2064 40.4213 28.317 40.3265 28.7471C40.2672 29.0161 40.0103 30.2128 39.7558 31.4065C38.8786 35.5196 38.8089 35.8068 38.5778 36.2631C38.4485 36.5182 38.2505 36.7321 38.0498 36.8333C37.9046 36.9066 37.8799 36.9088 37.154 36.9159C36.5902 36.9214 36.3808 36.9132 36.2984 36.8823Z" fill="#F8005B"/>
<path d="M70.5064 59.7695C68.8183 59.6886 67.3686 59.3381 66.1635 58.7197C65.024 58.1349 64.1904 57.379 63.4739 56.2806C62.4994 54.7868 62.0572 53.0811 61.923 50.2989C61.8827 49.4627 61.8819 38.5337 61.9221 37.7189C62.0355 35.4209 62.3295 33.9524 62.935 32.6599C64.2337 29.8877 66.637 28.438 70.3123 28.2099C72.8187 28.0543 75.1395 28.5944 76.7629 29.711C77.3252 30.0978 77.9632 30.6967 78.4009 31.2485C79.1524 32.1958 79.628 33.2811 79.8967 34.6621C80.0836 35.6221 80.1365 36.2902 80.1565 37.9405L80.1732 39.3084H77.5612H74.9492L74.9315 38.3837C74.906 37.0595 74.8037 36.2835 74.5532 35.5146C74.3465 34.88 74.1003 34.4447 73.7212 34.0436C73.0673 33.3517 72.2851 33.0606 71.0886 33.0638C69.8316 33.0672 69.038 33.3495 68.4304 34.0095C67.6263 34.883 67.2571 36.2928 67.1458 38.9152C67.1011 39.9668 67.1239 49.4471 67.1725 50.053C67.3066 51.7231 67.5588 52.7001 68.045 53.4336C68.4926 54.1087 69.2669 54.6079 70.2004 54.823C70.4895 54.8897 71.4486 54.9177 71.7819 54.8693C73.1903 54.6647 74.0866 53.8497 74.5626 52.3409C74.8002 51.5879 74.9034 50.795 74.9312 49.5104L74.9495 48.6621H77.5576H80.1657V49.6174C80.1654 50.9846 80.0999 51.9417 79.9401 52.9089C79.6949 54.3932 79.199 55.6258 78.4695 56.5639C77.0127 58.4374 74.9798 59.4813 72.313 59.7255C71.9247 59.761 70.8669 59.7868 70.5065 59.7695H70.5064ZM93.229 59.7577C90.4772 59.5835 88.3906 58.6187 86.9527 56.8559C85.7762 55.4136 85.1976 53.829 84.9597 51.3979C84.8739 50.5207 84.8505 50.0142 84.8329 48.6468L84.8152 47.2713L91.2682 43.6835C94.8174 41.7102 97.744 40.0787 97.7718 40.0579C97.8186 40.0228 97.8196 39.9563 97.7863 39.137C97.7206 37.525 97.6404 36.77 97.4507 35.979C97.0238 34.1986 96.1624 33.3233 94.6174 33.1001C94.2278 33.0438 93.3762 33.0528 93.0199 33.1169C92.0452 33.2925 91.3032 33.7654 90.8111 34.5246C90.4122 35.1401 90.1911 35.7903 90.0939 36.6342C90.052 36.9981 89.9915 38.399 89.9899 39.0409L89.9893 39.3084H87.3728H84.7564L84.7761 38.5671C84.8782 34.7438 85.0996 33.5624 86.0048 32.0125C86.3134 31.4841 86.648 31.0476 87.0908 30.5956C87.823 29.8482 88.5983 29.3349 89.6264 28.9169C92.1002 27.9111 95.8392 27.9498 98.2751 29.0064C99.5618 29.5645 100.639 30.4407 101.332 31.4932C102.361 33.0556 102.861 34.9156 103.008 37.7342C103.055 38.631 103.032 50.8639 102.982 51.4285C102.749 54.0733 102.346 55.3546 101.346 56.6322C100.131 58.1847 98.2968 59.2225 96.0954 59.6026C95.2594 59.747 94.0735 59.8111 93.229 59.7577ZM94.8801 55.0174C96.5669 54.7285 97.4466 53.5831 97.7419 51.2909C97.7833 50.9697 97.7931 50.4962 97.8038 48.3182C97.8108 46.8934 97.8054 45.7278 97.792 45.7279C97.7785 45.7282 96.0409 46.6951 93.9306 47.8767L90.0938 50.0252L90.084 50.2072C90.0719 50.4312 90.1267 51.1717 90.1852 51.5751C90.3297 52.572 90.6194 53.3563 91.048 53.9112C91.6977 54.7523 92.734 55.1456 94.1546 55.0903C94.3681 55.0819 94.6945 55.0491 94.8801 55.0174ZM152.431 59.7582C149.2 59.561 146.887 58.3715 145.567 56.2276C144.7 54.8201 144.277 53.2544 144.06 50.649C144.011 50.0669 143.987 38.6254 144.032 37.4896C144.152 34.4876 144.562 32.888 145.567 31.5136C145.971 30.9611 146.696 30.2518 147.288 29.8288C148.928 28.6588 151.268 28.0668 153.701 28.2069C154.651 28.2617 155.277 28.3566 156.053 28.5636C158.048 29.0955 159.551 30.171 160.636 31.8428C161.543 33.2386 161.956 34.7161 162.16 37.2909C162.178 37.5179 162.2 38.378 162.209 39.2022L162.225 40.7007L155.77 44.2899C152.219 46.264 149.295 47.8937 149.272 47.9114C149.235 47.939 149.234 48.0499 149.259 48.6621C149.336 50.5319 149.413 51.2433 149.633 52.106C150.061 53.7846 150.902 54.6268 152.374 54.8505C152.777 54.9118 153.63 54.9131 153.993 54.8529C154.942 54.6953 155.668 54.2558 156.19 53.5224C156.445 53.1656 156.704 52.5737 156.831 52.0634C156.972 51.4944 157.051 50.4868 157.052 49.2506V48.6621H159.669H162.287L162.266 49.6003C162.2 52.6113 161.984 54.0683 161.429 55.2417C160.68 56.8273 159.539 58.0163 158.052 58.763C157.052 59.2651 155.886 59.5846 154.59 59.7117C154.007 59.7689 152.972 59.7912 152.431 59.7582L152.431 59.7582ZM153.16 40.0668L156.986 37.9247L156.972 37.6002C156.862 34.9599 156.118 33.5665 154.549 33.061C154.121 32.9232 153.773 32.8787 153.126 32.8791C152.713 32.8793 152.441 32.8947 152.245 32.929C150.516 33.231 149.628 34.3287 149.335 36.5268C149.252 37.1538 149.23 37.8791 149.23 40.0835C149.23 42.1338 149.232 42.2484 149.281 42.2291C149.31 42.218 151.055 41.2449 153.16 40.0668ZM175.415 59.7681C172.488 59.6346 170.136 58.5839 168.722 56.7778C168.405 56.3726 168.182 56.0086 167.935 55.494C167.406 54.3901 167.141 53.1902 166.989 51.1992C166.959 50.8081 166.95 49.1883 166.95 43.9853C166.95 38.7822 166.959 37.1624 166.989 36.7713C167.202 33.9909 167.693 32.4527 168.808 31.0792C169.981 29.634 171.866 28.6522 174.102 28.322C174.776 28.2223 175.126 28.1997 175.983 28.2004C177.117 28.2012 177.879 28.2866 178.807 28.5167C180.441 28.9218 181.786 29.6743 182.806 30.7533C184.163 32.19 184.714 33.7795 184.917 36.8477C184.972 37.6816 184.973 50.3303 184.917 51.1075C184.697 54.2144 184.178 55.7395 182.86 57.1583C181.186 58.961 178.484 59.9081 175.415 59.7681H175.415ZM176.69 54.8522C178.406 54.5672 179.348 53.3016 179.64 50.8888C179.739 50.0648 179.749 49.3066 179.736 43.4962C179.723 37.6797 179.723 37.6387 179.609 36.8171C179.315 34.6806 178.457 33.4954 176.965 33.1619C176.214 32.9942 175.265 33.0281 174.611 33.2458C174.331 33.3391 173.948 33.5448 173.718 33.7259C172.958 34.3252 172.458 35.4472 172.267 36.9853C172.164 37.8127 172.157 38.3547 172.169 44.3674C172.181 50.6994 172.177 50.4959 172.325 51.3892C172.666 53.4353 173.597 54.5871 175.123 54.8491C175.465 54.9079 176.344 54.9097 176.69 54.8522ZM107.823 48.4558C107.834 36.8519 107.825 37.4483 107.993 36.0988C108.226 34.2197 108.69 32.8035 109.469 31.5901C110.693 29.6854 112.74 28.5762 115.623 28.2554C116.275 28.1829 117.651 28.1819 118.295 28.2535C120.425 28.4901 122.01 29.112 123.251 30.197L123.531 30.4414L123.638 30.3494C124.535 29.5768 125.26 29.1483 126.289 28.7826C128.53 27.986 131.687 27.9964 133.964 28.8078C135.705 29.4286 136.937 30.427 137.797 31.915C138.553 33.2226 138.973 34.751 139.15 36.8324C139.249 37.9944 139.256 38.839 139.256 48.9907V59.1468H136.645H134.033L134.022 49.1436C134.011 39.1928 134.009 38.9519 133.91 37.6883C133.749 35.6123 133.23 34.3035 132.308 33.6512C131.728 33.2407 131.036 33.0601 130.06 33.0645C127.811 33.0747 126.737 34.1906 126.36 36.9088C126.295 37.3784 126.252 37.9304 126.208 38.8652C126.19 39.2317 126.179 43.415 126.178 49.3117L126.178 59.1468H123.536H120.894L120.884 48.9754C120.877 41.5873 120.864 38.6744 120.839 38.3302C120.772 37.4184 120.738 37.0889 120.668 36.6613C120.346 34.6902 119.653 33.6613 118.37 33.2473C117.884 33.0906 117.147 33.0196 116.548 33.0718C115.612 33.1536 114.983 33.4014 114.474 33.8891C113.736 34.595 113.304 35.8244 113.16 37.6272C113.061 38.8574 113.06 39.0442 113.049 49.0824L113.038 59.1468H110.426H107.813L107.823 48.4558Z" fill="#090A08"/>
</g>
<defs>
<clipPath id="clip0_189_27">
<rect width="165" height="35" fill="white" transform="translate(20 26.5)"/>
</clipPath>
</defs>
</svg>
