<svg width="205" height="88" viewBox="0 0 205 88" fill="none" xmlns="http://www.w3.org/2000/svg">
<path d="M43.2793 20.375C46.1798 20.3707 48.5205 21.277 50.3008 23.0938C52.0808 24.9102 52.9706 27.2929 52.9707 30.2412V35.624H45.9238V29.7637C45.9238 29.0494 45.6454 28.3644 45.1494 27.8594C44.6533 27.3545 43.9808 27.0704 43.2793 27.0703C42.5778 27.0703 41.9043 27.3545 41.4082 27.8594C40.9123 28.3644 40.6338 29.0496 40.6338 29.7637V58.2305C40.6338 58.9445 40.9122 59.6298 41.4082 60.1348C41.9043 60.6398 42.5778 60.9238 43.2793 60.9238C43.9807 60.9238 44.6533 60.6397 45.1494 60.1348C45.6454 59.6297 45.9238 58.9446 45.9238 58.2305V52.3731H52.9707V57.7549C52.9665 60.7443 52.0862 63.1373 50.3291 64.9326C48.572 66.7279 46.2217 67.625 43.2793 67.625C40.3808 67.6228 38.0401 66.7157 36.2578 64.9033C34.4754 63.0908 33.584 60.7079 33.584 57.7549V30.2412C33.5904 27.25 34.4724 24.8575 36.2295 23.0645C37.9866 21.2715 40.3367 20.375 43.2793 20.375ZM158.911 20.375C161.809 20.3707 164.149 21.2772 165.932 23.0938C167.714 24.9103 168.605 27.2928 168.605 30.2412V35.624L161.568 35.6152V29.7539C161.581 29.3929 161.522 29.0326 161.395 28.6953C161.267 28.3579 161.074 28.05 160.827 27.7901C160.58 27.5301 160.285 27.3229 159.958 27.1817C159.631 27.0407 159.28 26.9678 158.925 26.9678C158.57 26.9678 158.218 27.0406 157.892 27.1817C157.565 27.3229 157.269 27.5301 157.022 27.7901C156.776 28.05 156.583 28.3579 156.456 28.6953C156.329 29.0326 156.269 29.3928 156.281 29.7539V33.211C156.299 34.6161 156.748 35.9804 157.564 37.1133C158.453 38.4032 159.475 39.5925 160.613 40.6602L164.245 44.1074C165.542 45.3534 166.6 46.8349 167.363 48.4756C168.197 50.2414 168.622 52.1786 168.605 54.1377V57.7363C168.599 60.7297 167.718 63.1264 165.961 64.9258C164.204 66.7253 161.854 67.625 158.911 67.625C156.011 67.6228 153.67 66.7157 151.89 64.9033C150.109 63.0908 149.219 60.708 149.219 57.7549V52.3731H156.271V58.2305C156.259 58.5917 156.319 58.9518 156.446 59.2891C156.574 59.6265 156.766 59.9344 157.013 60.1944C157.259 60.4543 157.555 60.6615 157.882 60.8027C158.208 60.9439 158.56 61.0166 158.915 61.0166C159.27 61.0166 159.622 60.944 159.949 60.8027C160.276 60.6615 160.572 60.4543 160.818 60.1944C161.065 59.9344 161.258 59.6265 161.385 59.2891C161.512 58.9518 161.572 58.5917 161.56 58.2305V54.7637C161.544 53.3577 161.103 51.9902 160.298 50.8477C159.423 49.5543 158.409 48.3651 157.274 47.3018L153.633 43.8604C152.326 42.6138 151.258 41.1316 150.48 39.4893C149.634 37.731 149.201 35.7951 149.219 33.8369V30.2412C149.223 27.25 150.104 24.8575 151.861 23.0645C153.618 21.2715 155.969 20.375 158.911 20.375ZM62.7188 40.4131H68.0068V22.7022H75.0557V65.3018H68.0068V47.5899H62.7188V65.3018H55.6699V22.7022H62.7188V40.4131ZM112.133 37.6397L118.542 22.7022H124.441V65.3018H117.392V42.9199L113.274 51.7656H110.994L106.877 42.9199V65.3018H99.8271V22.7022H105.727L112.133 37.6397ZM87.8359 22.6992C90.3025 22.6993 92.6679 23.6972 94.4121 25.4727C96.1562 27.2484 97.1367 29.6567 97.1367 32.168V55.8301C97.1367 58.3412 96.1562 60.7497 94.4121 62.5254C92.6679 64.301 90.3025 65.2988 87.8359 65.2988H87.0127C84.546 65.2988 82.1798 64.3011 80.4355 62.5254C78.6914 60.7497 77.7119 58.3411 77.7119 55.8301V32.168C77.7119 29.6568 78.6915 27.2484 80.4355 25.4727C82.1798 23.6971 84.546 22.6992 87.0127 22.6992H87.8359ZM138.546 22.6992C140.666 22.6992 142.701 23.5567 144.2 25.083C145.7 26.6095 146.542 28.6801 146.542 30.8389V39.4473C146.542 40.5164 146.336 41.5758 145.935 42.5635C145.533 43.5511 144.944 44.4483 144.201 45.2041C143.459 45.96 142.577 46.5599 141.606 46.9688C140.636 47.3778 139.596 47.5882 138.546 47.5879H134.189V65.292H127.14V22.6992H138.546ZM87.4238 29.1416C86.7382 29.1417 86.0791 29.4125 85.5859 29.8975C85.0929 30.3825 84.8039 31.0437 84.7803 31.7412V56.2569C84.768 56.618 84.8278 56.9781 84.9551 57.3154C85.0823 57.6529 85.2749 57.9608 85.5215 58.2207C85.7681 58.4807 86.0637 58.6879 86.3906 58.8291C86.7173 58.9702 87.0689 59.043 87.4238 59.043C87.7788 59.043 88.1302 58.9701 88.457 58.8291C88.7838 58.6879 89.0795 58.4806 89.3262 58.2207C89.5728 57.9608 89.7663 57.6529 89.8936 57.3154C90.021 56.9782 90.0796 56.6179 90.0674 56.2569V31.7412C90.0436 31.0436 89.7549 30.3825 89.2617 29.8975C88.7685 29.4125 88.1097 29.1416 87.4238 29.1416ZM134.189 40.3975H137.462C138 40.3974 138.517 40.1796 138.897 39.792C139.278 39.4045 139.492 38.879 139.492 38.3311V31.9854C139.492 31.7126 139.438 31.4421 139.335 31.1904C139.232 30.9389 139.081 30.7105 138.891 30.5186C138.701 30.3267 138.475 30.1743 138.228 30.0713C137.98 29.9683 137.714 29.9165 137.446 29.918H134.189V40.3975ZM169.992 20.5557C170.238 20.5569 170.48 20.6213 170.695 20.7422C170.919 20.8655 171.104 21.0516 171.228 21.2783C171.35 21.4993 171.416 21.7488 171.416 22.0029C171.416 22.2571 171.35 22.5073 171.228 22.7285C171.107 22.9548 170.926 23.142 170.705 23.2676C170.489 23.3916 170.244 23.457 169.995 23.457C169.747 23.457 169.503 23.3916 169.286 23.2676C169.063 23.1429 168.878 22.9559 168.756 22.7285C168.633 22.5073 168.568 22.257 168.568 22.0029C168.568 21.7489 168.633 21.4992 168.756 21.2783C168.88 21.0507 169.066 20.8644 169.292 20.7422C169.506 20.6208 169.747 20.5566 169.992 20.5557ZM169.992 20.793C169.788 20.7953 169.588 20.8495 169.409 20.9502C169.22 21.0523 169.064 21.2085 168.961 21.3994C168.856 21.5841 168.802 21.7939 168.801 22.0069C168.802 22.2181 168.856 22.4254 168.958 22.6094C169.062 22.7965 169.215 22.9509 169.399 23.0557C169.58 23.1611 169.784 23.2168 169.992 23.2168C170.2 23.2168 170.405 23.1611 170.585 23.0557C170.769 22.9503 170.92 22.7935 171.02 22.6035C171.123 22.42 171.178 22.2117 171.178 22C171.177 21.7875 171.122 21.579 171.02 21.3936C170.917 21.2026 170.761 21.0465 170.572 20.9444C170.394 20.8435 170.193 20.7895 169.989 20.7871L169.992 20.793ZM169.885 21.2461C170.017 21.2402 170.149 21.2553 170.276 21.291C170.355 21.3172 170.423 21.3702 170.468 21.4414C170.514 21.5081 170.54 21.5882 170.541 21.6699C170.541 21.7251 170.531 21.78 170.511 21.8311C170.49 21.8824 170.459 21.9287 170.421 21.9678C170.336 22.0527 170.224 22.1042 170.105 22.1123C170.153 22.1303 170.198 22.1573 170.235 22.1924C170.323 22.2899 170.399 22.3981 170.462 22.5137L170.647 22.835H170.349L170.213 22.5879C170.148 22.4517 170.059 22.3281 169.951 22.2246C169.893 22.1845 169.823 22.1652 169.753 22.1699H169.607V22.835L169.358 22.8027V21.2461H169.885ZM169.604 21.9229H169.92C170.022 21.9322 170.124 21.9096 170.213 21.8584C170.238 21.8375 170.258 21.8111 170.271 21.7813C170.285 21.7512 170.292 21.7186 170.292 21.6856C170.293 21.641 170.279 21.5973 170.254 21.5606C170.228 21.5238 170.191 21.4958 170.149 21.4805C170.069 21.4567 169.984 21.4465 169.9 21.4512H169.617L169.604 21.9229Z" fill="#D02C2F"/>
</svg>
