<svg width="205" height="88" viewBox="0 0 205 88" fill="none" xmlns="http://www.w3.org/2000/svg">
<path d="M26.3206 49.8931C23.0372 49.8931 20.5 47.3543 20.5 43.9941C20.5 40.7085 22.8773 37.999 26.4059 37.999C28.538 37.999 29.7639 38.7351 30.83 39.8018L29.5187 41.3592C28.6126 40.4525 27.6318 39.8871 26.3206 39.8871C24.1032 39.8018 22.5468 41.6899 22.5468 43.9087C22.5468 46.1276 24.1885 47.9303 26.3206 47.9303C27.7917 47.9303 28.538 47.3543 29.604 46.3729L30.9152 47.685C29.7639 49.0717 28.4527 49.8931 26.3206 49.8931ZM32.8874 38.2444V49.6478H34.9342V38.2444H32.8874ZM44.6885 42.0206C44.6885 43.2474 43.7824 43.9941 42.3965 43.9941H39.5289V40.0472H42.3965C43.8677 40.0472 44.6885 40.7939 44.6885 42.0206ZM47.1511 49.6478L44.1128 45.3808C45.7545 44.8901 46.8206 43.7381 46.8206 41.9353C46.8206 39.7165 45.1789 38.3297 42.5564 38.3297H37.4714V49.7331H39.5182V45.7969H41.9808L44.7738 49.7331L47.1511 49.6478ZM72.0005 38.2444H69.9537V44.8901C69.9537 47.0236 68.8024 48.0903 67.0861 48.0903C65.2845 48.0903 64.2184 46.9383 64.2184 44.8901V38.3297H62.1716V44.9755C62.1716 48.261 64.0585 49.9785 67.0114 49.9785C69.9644 49.9785 71.9366 48.1757 71.9366 44.8901C72.0005 44.7301 72.0005 38.2444 72.0005 38.2444ZM82.8209 38.2444H74.3778V49.6478H82.9061V47.845H76.35V44.8048H82.0853V43.002H76.35V40.0472H82.8315L82.8209 38.2444ZM98.4064 43.9941C98.4064 46.2876 96.85 47.8557 94.4727 47.8557H92.2553V40.1325H94.4727C96.85 40.0472 98.4064 41.7753 98.4064 43.9941ZM100.453 43.9087C100.453 40.7085 97.9906 38.1697 94.3874 38.1697H90.1232V49.5731H94.3874C98.0759 49.6478 100.453 47.269 100.453 43.9087ZM112.34 38.2444H110.293V44.8901C110.293 47.0236 109.141 48.0903 107.425 48.0903C105.624 48.0903 104.557 46.9383 104.557 44.8901V38.3297H102.511V44.9755C102.511 48.261 104.398 49.9785 107.35 49.9785C110.303 49.9785 112.276 48.1757 112.276 44.8901V38.2444H112.34ZM121.113 41.2846C121.113 40.4632 121.774 39.8871 123 39.8871C124.066 39.8871 125.047 40.2925 126.038 41.1139L127.19 39.5565C126.038 38.6604 124.727 38.0844 123 38.0844C120.783 38.0844 119.141 39.3964 119.141 41.3699C119.141 43.5034 120.537 44.1648 122.915 44.7301C125.047 45.2208 125.452 45.6369 125.452 46.5329C125.452 47.429 124.631 48.005 123.405 48.005C121.934 48.005 120.943 47.429 119.802 46.4476L118.576 47.9303C119.972 49.1571 121.529 49.8185 123.33 49.8185C125.708 49.8185 127.349 48.5064 127.349 46.4582C127.349 44.4848 126.038 43.6634 123.746 43.098C121.689 42.5967 121.113 42.1806 121.113 41.2846ZM138.916 43.9941C138.916 46.2876 137.274 48.0157 135.057 48.0157C132.765 48.0157 131.198 46.1276 131.198 43.9941C131.198 41.7753 132.84 39.9725 135.057 39.9725C137.274 39.8871 138.916 41.7753 138.916 43.9941ZM140.963 43.9087C140.963 40.7085 138.5 37.999 134.972 37.999C131.443 37.999 128.98 40.6232 128.98 43.9941C128.98 47.1943 131.443 49.9038 134.972 49.9038C138.586 49.8931 140.963 47.269 140.963 43.9087ZM143.18 49.6478H151.133V47.7597H145.142V38.159H143.095V49.6478H143.18ZM161.463 38.2444H153.02V49.6478H161.548V47.845H154.992V44.8048H160.727V43.002H154.992V40.0472H161.473V38.2444H161.463ZM163.755 38.2444V49.6478H165.802V38.2444H163.755ZM168.275 49.6478H176.228V47.7597H170.236V38.159H168.19V49.6478H168.275ZM58.0567 43.9941C58.0567 41.7753 56.415 39.9725 54.1976 39.9725C51.9802 39.9725 50.3492 41.8606 50.3492 43.9941C50.3492 46.2876 51.9909 48.0157 54.2083 48.0157C56.5003 48.005 58.0567 46.2876 58.0567 43.9941ZM52.2361 49.5731C49.8588 48.7517 48.3024 46.6182 48.3024 43.9941C48.3024 40.7939 50.7649 37.999 54.2936 37.999C57.8222 37.999 60.2847 40.6232 60.2847 43.9087C60.2847 46.3729 58.8136 48.5064 56.6815 49.4024C57.5876 49.8078 58.078 50.2238 59.304 50.8745C61.436 51.8559 63.3229 52.848 66.3612 52.848C68.6531 52.848 71.1157 51.9413 72.267 50.9599L72.6721 51.5359C71.201 53.008 68.0029 54.0001 65.1245 54.0001C63.5681 54.0001 61.436 53.7547 59.4639 52.848C58.1526 52.272 56.5109 51.2906 55.285 50.7999C54.3682 50.4692 52.8864 49.8185 52.2361 49.5731ZM181.632 43.9087C183.189 43.9087 184.5 45.1355 184.5 46.7783C184.5 48.421 183.189 49.6478 181.632 49.6478C180.076 49.6478 178.765 48.421 178.765 46.7783C178.765 45.1355 180.076 43.9087 181.632 43.9087ZM181.632 49.1571C182.944 49.1571 183.924 48.0903 183.924 46.6929C183.924 45.2955 182.944 44.3141 181.632 44.3141C180.321 44.3141 179.255 45.3808 179.255 46.6929C179.34 48.0903 180.321 49.1571 181.632 49.1571ZM180.566 45.0608H181.878C182.698 45.0608 183.029 45.3915 183.029 46.0422C183.029 46.6182 182.624 46.8636 182.123 46.9489L183.103 48.421H182.528L181.622 47.0236H181.046V48.421H180.556V45.0608H180.566ZM181.067 46.5329H181.643C182.133 46.5329 182.549 46.5329 182.549 45.9569C182.549 45.5515 182.144 45.4662 181.814 45.4662H181.153L181.067 46.5329Z" fill="black"/>
</svg>
