<svg width="205" height="88" viewBox="0 0 205 88" fill="none" xmlns="http://www.w3.org/2000/svg">
<g clip-path="url(#clip0_189_29)">
<path fill-rule="evenodd" clip-rule="evenodd" d="M175.518 28.1771C180.438 36.8845 168.816 51.3816 168.816 51.3816C168.598 51.6702 168.314 51.9021 167.987 52.0612C167.026 52.5412 165.921 52.3551 165.523 51.6486C165.351 51.3439 165.353 50.9987 165.468 50.6589C168.936 44.4405 171.796 36.9358 168.753 31.5506C165.711 26.1654 157.495 24.1915 150.072 23.4095C149.709 23.3124 149.401 23.1182 149.232 22.8135C148.831 22.1043 149.286 21.1416 150.25 20.6616C150.58 20.4944 150.943 20.4054 151.314 20.3973C151.314 20.3973 170.358 19.0329 175.521 28.1717L175.518 28.1771Z" fill="#3B6FB0"/>
<path fill-rule="evenodd" clip-rule="evenodd" d="M175.237 29.8387C169.678 21.676 152.569 23.2158 150.381 23.4504L150.072 23.4153C149.709 23.3183 149.401 23.1241 149.232 22.8194C148.831 22.1129 149.286 21.1475 150.25 20.6675C150.58 20.5003 150.943 20.4113 151.314 20.4032C151.314 20.4032 170.358 19.0387 175.521 28.1776C176.454 29.8279 176.792 31.6859 176.727 33.614C176.495 32.263 176.023 30.9902 175.24 29.836L175.237 29.8387Z" fill="#4E9DD6"/>
<path fill-rule="evenodd" clip-rule="evenodd" d="M171.16 31.0949C174.694 35.8221 173.108 42.8252 170.587 48.9358C169.558 50.4567 168.819 51.3816 168.819 51.3816C168.601 51.6702 168.317 51.9021 167.989 52.0612C167.029 52.5412 165.924 52.3551 165.525 51.6486C165.353 51.3466 165.356 50.9987 165.471 50.6589C168.939 44.4405 171.799 36.9358 168.756 31.5506C167.168 28.7407 164.172 26.8612 160.616 25.5938C165.029 26.4755 168.944 28.1259 171.16 31.0922V31.0949Z" fill="#1D4573"/>
<path fill-rule="evenodd" clip-rule="evenodd" d="M184.79 40.242C189.577 51.0232 174.263 66.7661 174.263 66.7661C173.974 67.0789 173.613 67.3216 173.212 67.4726C172.028 67.9283 170.751 67.5886 170.364 66.7122C170.197 66.3373 170.238 65.9274 170.413 65.5445C175.202 58.6223 179.418 50.1225 176.457 43.4537C173.496 36.785 164.068 33.549 155.432 31.8043C155.017 31.6479 154.676 31.3863 154.509 31.0115C154.119 30.1351 154.766 29.0537 155.95 28.598C156.357 28.4389 156.793 28.3742 157.23 28.4065C157.23 28.4065 179.764 28.927 184.788 40.242H184.79Z" fill="#3B6FB0"/>
<path fill-rule="evenodd" clip-rule="evenodd" d="M184.269 42.1615C178.667 31.9521 158.387 31.8496 155.789 31.882C155.669 31.8577 155.552 31.8307 155.432 31.8092C155.017 31.6528 154.676 31.3912 154.509 31.0164C154.119 30.14 154.766 29.0586 155.95 28.6029C156.357 28.4438 156.793 28.3791 157.23 28.4114C157.23 28.4114 179.764 28.9319 184.788 40.2469C185.694 42.291 185.879 44.513 185.585 46.7701C185.465 45.1602 185.058 43.6069 184.267 42.1642L184.269 42.1615Z" fill="#4E9DD6"/>
<path fill-rule="evenodd" clip-rule="evenodd" d="M179.333 43.1842C182.946 49.1357 180.283 57.1878 176.621 64.0885C175.24 65.7631 174.263 66.7663 174.263 66.7663C173.974 67.0791 173.613 67.3218 173.212 67.4728C172.028 67.9285 170.751 67.5887 170.364 66.7123C170.197 66.3375 170.238 65.9276 170.413 65.5447C175.202 58.6224 179.418 50.1227 176.457 43.4539C174.915 39.9752 171.605 37.4323 167.572 35.542C172.656 37.0764 177.068 39.4494 179.333 43.1815V43.1842Z" fill="#1D4374"/>
<path d="M31.6251 64.4763C28.2169 64.4763 25.0788 63.1739 22.7921 60.8089C20.5273 58.4682 19.283 55.2916 19.283 51.8615V51.7914C19.283 48.3936 20.5327 45.2197 22.8031 42.8494C25.1143 40.4359 28.2742 39.1064 31.6961 39.1064C36.103 39.1064 38.7335 40.6732 41.3313 43.0246L41.4377 43.1217L39.9397 44.6399L39.8387 44.5428C38.0132 42.7981 35.6118 41.013 31.6606 41.013C28.8582 41.013 26.274 42.1105 24.3803 44.106C22.4865 46.1015 21.4523 48.7954 21.4523 51.724V51.7941C21.4523 54.7226 22.5056 57.4435 24.4103 59.4525C26.2904 61.4507 28.9318 62.5779 31.6934 62.5671C34.9024 62.5671 37.3201 61.4858 40.0461 58.8296L40.1443 58.7325L41.5742 60.1051L41.4705 60.2049C40.0051 61.6341 38.6517 62.6157 37.2164 63.2925C35.5354 64.0853 33.7072 64.4709 31.6224 64.4709L31.6251 64.4763Z" fill="#0B1D2B"/>
<path d="M60.2663 64.0608H58.1597V54.3637L47.5066 39.5215H50.1344L50.178 39.5808L59.2512 52.4464L68.398 39.5215H70.9193L60.269 54.3314V64.0608L60.2663 64.0608Z" fill="#0B1D2B"/>
<path d="M97.8602 64.0615H95.549L92.4273 57.2687H78.1259L75.0042 64.0615H72.7993L84.3611 39.3496H86.2958L97.8575 64.0615H97.8602ZM79.0291 55.3622H91.5295L85.297 41.8035L79.0291 55.3622Z" fill="#0B1D2B"/>
<path d="M126.772 64.061H124.1L124.057 64.0071L116.277 54.0107H108.456V64.061H106.35V39.5244H116.801C119.412 39.5244 121.647 40.2013 123.257 41.4822C124.867 42.7631 125.71 44.5132 125.71 46.5599V46.63C125.71 48.6174 125.003 50.257 123.623 51.5136C122.406 52.6138 120.686 53.3554 118.64 53.6682L126.769 64.0637L126.772 64.061ZM108.459 52.1042H116.593C118.624 52.1042 120.365 51.608 121.625 50.6723C122.921 49.7069 123.606 48.3343 123.606 46.6948V46.6246C123.606 43.3914 121.022 41.4633 116.7 41.4633H108.459V52.1042Z" fill="#0B1D2B"/>
<path d="M159.287 64.0608H156.976L153.855 57.268H139.553L136.431 64.0608H134.227L134.319 63.8639L145.788 39.3516H147.723L147.761 39.4325L159.285 64.0635L159.287 64.0608ZM140.456 55.3615H152.957L146.724 41.8028L140.456 55.3615Z" fill="#0B1D2B"/>
</g>
<defs>
<clipPath id="clip0_189_29">
<rect width="167" height="48" fill="white" transform="translate(19 20)"/>
</clipPath>
</defs>
</svg>
