<svg width="205" height="88" viewBox="0 0 205 88" fill="none" xmlns="http://www.w3.org/2000/svg">
<path d="M92.7308 23.4404H91.9323L71.6423 37.1997L71.553 36.8448C68.7588 28.7598 60.8965 25.2078 50.8524 25.2078H36.4163V62.517H51.7221C61.3356 62.517 69.0204 58.5183 71.6423 50.8788L71.7294 50.6128L92.3427 64.5591L114.183 49.7237V62.5171H140.326V51.1158H127.281V25.2079H114.183V38.4024L97.8979 49.7043L94.2033 47.0414L110.8 35.6704L103.437 30.8161L86.6641 42.1871L83.1268 39.9394L99.8967 28.5695L92.7308 23.4404ZM59.1486 44.3048C59.1486 49.1926 55.657 51.4132 51.2873 51.4132H49.5213V36.7541H51.2873C56.0919 36.7541 59.1486 39.2417 59.1486 44.3048ZM168.584 62.517H142.982V25.2078H156.082V51.1157H168.584V62.517Z" fill="#0073C9"/>
</svg>
