<svg width="205" height="88" viewBox="0 0 205 88" fill="none" xmlns="http://www.w3.org/2000/svg">
<path d="M170.521 17.0457H140.609V22.4799H170.543V17.0457H170.521ZM140.609 28.0283H162.346V33.4626H140.609V28.0283ZM140.609 44.4452V39.011H170.521V44.4452H140.609ZM99.6687 33.8051C99.6687 36.5222 99.3033 38.4402 97.1798 41.203C95.2162 43.7831 90.0558 45.4956 85.6262 45.6097C80.4658 45.7239 75.922 44.3311 72.8852 41.9793C69.5972 39.422 69.4373 36.8875 69.4373 33.8279L69.5287 17L75.3283 17.0457L75.3512 33.8279C75.3512 35.8372 76.059 37.2072 77.5203 38.052L77.9085 38.2803C79.3013 39.1023 81.2193 40.2211 84.69 40.2211C89.074 40.2211 91.2432 38.6685 92.1565 37.7323C93.2068 36.6592 93.732 35.1751 93.732 33.2114L93.6407 17.0228L99.5773 17L99.6687 33.8051ZM49.481 39.0567C51.81 39.0567 53.9335 38.2118 55.4862 36.682C57.0388 35.1522 57.8608 33.0516 57.8608 30.7683C57.8608 26.1104 54.0477 22.4799 49.207 22.4799H34.2283V17.0457H50.303C54.1162 17.0457 57.5868 18.5755 60.0985 21.0643C62.6102 23.5531 64.4597 26.978 64.4597 30.7683C64.4597 34.5586 62.6102 37.9835 60.0985 40.4723C57.5868 42.9611 54.1162 44.5137 50.303 44.5137H34.2283V39.1252C40.7587 39.1023 42.768 39.0567 49.481 39.0567ZM120.927 39.0567C123.256 39.0567 125.379 38.2118 126.932 36.682C128.462 35.1522 129.306 33.0516 129.306 30.7683C129.306 26.1104 125.493 22.4799 120.653 22.4799H105.697V17.0457H121.771C125.585 17.0457 129.055 18.5755 131.567 21.0643C134.079 23.5531 135.928 26.978 135.928 30.7683C135.928 34.5586 134.079 37.9835 131.567 40.4723C129.055 42.9611 125.585 44.5137 121.771 44.5137H105.697V39.1252C112.227 39.1023 114.214 39.0567 120.927 39.0567ZM70.579 50.4275L62.8157 70.3835H57.8608L52.2895 55.3366L46.6497 70.3835H41.7633L34 50.4275H39.0918L44.2978 65.1776L49.9833 50.4275H54.687L60.3268 65.1776L65.5785 50.4275H70.579ZM76.8353 70.3835V50.4275H81.6988V70.3835H76.8353ZM113.962 57.186C113.962 61.5928 110.332 63.9446 104.852 63.9446H95.1705V70.3835H90.3298V50.4275H104.852C110.309 50.4275 113.94 52.8249 113.962 57.186ZM109.007 57.2089C109.007 54.9256 107.181 54.2406 104.464 54.2406H95.1705V60.1772H104.464C107.181 60.1772 109.007 59.4922 109.007 57.2089ZM141.317 70.3835H119.442V50.4275H141.02V54.2406H124.283V58.3505H138.257V62.1636H124.283V66.5476H141.34V70.3835H141.317ZM171 64.3328C171 68.26 167.027 71 159.515 71C154.149 71 149.788 69.5844 146.523 66.9814L149.308 63.8761C151.911 66.1366 155.291 67.1869 159.629 67.1869C163.967 67.1869 166.114 66.4106 166.114 64.7666C166.114 63.1226 163.922 62.666 159.058 62.255C152.985 61.7755 147.345 60.5197 147.345 56.2499C147.345 51.9801 152.071 49.811 158.624 49.811C163.26 49.811 167.278 50.8841 169.973 52.8706L167.301 56.0444C164.972 54.3548 162.095 53.6698 158.624 53.6469C155.747 53.6241 152.231 54.1036 152.231 55.9302C152.231 57.6427 155.268 57.8025 159.469 58.1222C166.228 58.6245 171 59.9488 171 64.3328Z" fill="black"/>
</svg>
