<svg width="205" height="88" viewBox="0 0 205 88" fill="none" xmlns="http://www.w3.org/2000/svg">
<mask id="mask0_190_37" style="mask-type:luminance" maskUnits="userSpaceOnUse" x="82" y="14" width="41" height="38">
<path d="M122.232 14.6553H82.8408V51.5153H122.232V14.6553Z" fill="white"/>
</mask>
<g mask="url(#mask0_190_37)">
<path d="M100.279 18.9797L94.3548 48.6083C94.0166 50.2993 92.5346 51.5153 90.8094 51.5153C88.5294 51.5153 86.8194 49.4291 87.264 47.1909L93.1882 17.5623C93.5264 15.8713 95.0084 14.6553 96.7336 14.6553C99.0136 14.6553 100.727 16.7415 100.279 18.9797Z" fill="#005AAB"/>
</g>
<mask id="mask1_190_37" style="mask-type:luminance" maskUnits="userSpaceOnUse" x="82" y="14" width="41" height="38">
<path d="M122.232 14.6553H82.8408V51.5153H122.232V14.6553Z" fill="white"/>
</mask>
<g mask="url(#mask1_190_37)">
<path d="M116.866 28.1945L112.781 48.6081C112.443 50.2991 110.961 51.5151 109.236 51.5151C106.956 51.5151 105.246 49.4289 105.69 47.1907L109.771 26.7771C110.11 25.0861 111.592 23.8701 113.317 23.8701C115.601 23.8701 117.311 25.9563 116.866 28.1945Z" fill="#005AAB"/>
</g>
<mask id="mask2_190_37" style="mask-type:luminance" maskUnits="userSpaceOnUse" x="82" y="14" width="41" height="38">
<path d="M122.232 14.6553H82.8408V51.5153H122.232V14.6553Z" fill="white"/>
</mask>
<g mask="url(#mask2_190_37)">
<path d="M122.232 47.8296C122.232 49.8664 120.582 51.5156 118.546 51.5156C116.509 51.5156 114.86 49.8664 114.86 47.8296C114.86 45.7928 116.509 44.1436 118.546 44.1436C120.582 44.1436 122.232 45.7928 122.232 47.8296Z" fill="#FFB81A"/>
</g>
<mask id="mask3_190_37" style="mask-type:luminance" maskUnits="userSpaceOnUse" x="82" y="14" width="41" height="38">
<path d="M122.232 14.6553H82.8408V51.5153H122.232V14.6553Z" fill="white"/>
</mask>
<g mask="url(#mask3_190_37)">
<path d="M118.853 18.353C118.853 20.3898 117.204 22.039 115.167 22.039C113.131 22.039 111.481 20.3898 111.481 18.353C111.481 16.3162 113.131 14.667 115.167 14.667C117.2 14.667 118.853 16.3162 118.853 18.353Z" fill="#EB2A2E"/>
</g>
<mask id="mask4_190_37" style="mask-type:luminance" maskUnits="userSpaceOnUse" x="82" y="14" width="41" height="38">
<path d="M122.232 14.6553H82.8408V51.5153H122.232V14.6553Z" fill="white"/>
</mask>
<g mask="url(#mask4_190_37)">
<path d="M86.4128 29.3994H103C105.28 29.3994 106.99 31.4856 106.545 33.7238L106.515 33.8682C106.177 35.5592 104.695 36.7752 102.969 36.7752H86.3824C84.1024 36.7752 82.3924 34.689 82.837 32.4508L82.8674 32.3064C83.2094 30.6154 84.6914 29.3994 86.4128 29.3994Z" fill="#EB2A2E"/>
</g>
<mask id="mask5_190_37" style="mask-type:luminance" maskUnits="userSpaceOnUse" x="47" y="58" width="111" height="16">
<path d="M157.108 58.9209H47.8921V73.3457H157.108V58.9209Z" fill="white"/>
</mask>
<g mask="url(#mask5_190_37)">
<path d="M51.0497 71.7836C50.9889 72.2168 50.7685 72.6044 50.4189 72.9008C49.7349 73.4822 48.7203 73.4784 48.2111 72.8894C47.9565 72.593 47.8539 72.2092 47.9147 71.7836L49.4993 60.4976C49.5601 60.0758 49.7653 59.6958 50.0959 59.3918C50.7761 58.7762 51.8097 58.7762 52.3303 59.3804C52.5925 59.6844 52.6989 60.072 52.6381 60.4976L51.0497 71.7836Z" fill="#1D252B"/>
</g>
<mask id="mask6_190_37" style="mask-type:luminance" maskUnits="userSpaceOnUse" x="47" y="58" width="111" height="16">
<path d="M157.108 58.9209H47.8921V73.3457H157.108V58.9209Z" fill="white"/>
</mask>
<g mask="url(#mask6_190_37)">
<path d="M59.6454 71.7836C59.5846 72.2168 59.3643 72.6044 59.0147 72.9008C58.3307 73.4822 57.3161 73.4784 56.8069 72.8894C56.5523 72.593 56.4496 72.2092 56.5104 71.7836L58.0951 60.4976C58.1559 60.0758 58.3611 59.6958 58.6917 59.3918C59.3719 58.7762 60.4055 58.7762 60.9261 59.3804C61.1883 59.6844 61.2946 60.072 61.2338 60.4976L59.6454 71.7836Z" fill="#1D252B"/>
</g>
<mask id="mask7_190_37" style="mask-type:luminance" maskUnits="userSpaceOnUse" x="47" y="58" width="111" height="16">
<path d="M157.108 58.9209H47.8921V73.3457H157.108V58.9209Z" fill="white"/>
</mask>
<g mask="url(#mask7_190_37)">
<path d="M55.1728 64.5605C55.606 64.5605 55.9708 64.7239 56.2254 65.0355C56.7194 65.6397 56.5788 66.6543 55.9024 67.2471C55.5642 67.5435 55.1576 67.6994 54.732 67.6994H50.0542C49.6324 67.6994 49.2714 67.5473 49.0092 67.2585C48.4772 66.6619 48.6216 65.6283 49.3132 65.0241C49.659 64.7201 50.0694 64.5605 50.495 64.5605H55.1728Z" fill="#1D252B"/>
</g>
<mask id="mask8_190_37" style="mask-type:luminance" maskUnits="userSpaceOnUse" x="47" y="58" width="111" height="16">
<path d="M157.108 58.9209H47.8921V73.3457H157.108V58.9209Z" fill="white"/>
</mask>
<g mask="url(#mask8_190_37)">
<path d="M70.4071 73.2503H63.0731C62.6437 73.2503 62.2827 73.0945 62.0319 72.7981C61.7773 72.5017 61.6747 72.1179 61.7355 71.6923L63.2973 60.5925C63.3581 60.1707 63.5633 59.7869 63.8977 59.4829C64.2397 59.1751 64.6463 59.0117 65.0795 59.0117H72.4135C72.8277 59.0117 73.1811 59.1675 73.4319 59.4563C73.6827 59.7451 73.7853 60.1175 73.7245 60.5355C73.6637 60.9573 73.4547 61.3297 73.1165 61.6147C72.7859 61.8959 72.3945 62.0403 71.9879 62.0403H66.2347L65.8737 64.6053H70.9695C71.3799 64.6053 71.7333 64.7573 71.9841 65.0461C72.2349 65.3387 72.3375 65.7149 72.2805 66.1291C72.2197 66.5509 72.0107 66.9233 71.6687 67.2083C71.3419 67.4857 70.9505 67.6339 70.5439 67.6339H65.4481L65.0833 70.2179H70.8365C71.2507 70.2179 71.6003 70.3737 71.8549 70.6663C72.1057 70.9551 72.2083 71.3275 72.1475 71.7455C72.0867 72.1635 71.8777 72.5397 71.5395 72.8247C71.2051 73.1059 70.8175 73.2503 70.4071 73.2503Z" fill="#1D252B"/>
</g>
<mask id="mask9_190_37" style="mask-type:luminance" maskUnits="userSpaceOnUse" x="47" y="58" width="111" height="16">
<path d="M157.108 58.9209H47.8921V73.3457H157.108V58.9209Z" fill="white"/>
</mask>
<g mask="url(#mask9_190_37)">
<path d="M84.2696 73.3458C83.768 73.3458 83.3538 73.1141 83.1068 72.6961L80.3784 68.5313L76.5024 72.7303C76.0084 73.2395 75.522 73.3458 75.1952 73.3458C74.7924 73.3458 74.4466 73.1901 74.1958 72.9013L74.192 72.8975C73.945 72.6049 73.8424 72.2401 73.8994 71.8411C73.9488 71.4877 74.1046 71.1571 74.3478 70.8835L78.8812 66.1335L75.731 61.4405C75.5486 61.1403 75.4878 60.8173 75.5372 60.4639C75.598 60.0383 75.8032 59.6583 76.1376 59.3657C76.6582 58.9059 77.4144 58.7881 77.9844 59.0883C78.1972 59.2061 78.3606 59.3581 78.4746 59.5443L81.1574 63.6939L85.0258 59.4987C85.554 58.8527 86.7396 58.7197 87.3096 59.3581C87.5718 59.6507 87.6782 60.0269 87.6212 60.4487C87.5756 60.7717 87.435 61.0795 87.2108 61.3379L82.666 66.1183L85.8504 70.8493C86.0252 71.0811 86.1012 71.4155 86.048 71.7917C85.9872 72.2135 85.7858 72.5935 85.459 72.8899C85.1246 73.1863 84.7142 73.3458 84.2696 73.3458Z" fill="#1D252B"/>
</g>
<mask id="mask10_190_37" style="mask-type:luminance" maskUnits="userSpaceOnUse" x="47" y="58" width="111" height="16">
<path d="M157.108 58.9209H47.8921V73.3457H157.108V58.9209Z" fill="white"/>
</mask>
<g mask="url(#mask10_190_37)">
<path d="M98.6222 73.3457C98.3106 73.3457 98.0294 73.2621 97.79 73.0911C97.5506 72.9163 97.3872 72.6883 97.296 72.4033L96.6272 69.9789H91.3908L90.0532 72.3767C89.8708 72.6845 89.6428 72.9125 89.3578 73.0835C88.6548 73.5015 87.815 73.3989 87.3894 72.8783C87.15 72.5819 87.0512 72.2057 87.112 71.7839C87.1386 71.5863 87.2184 71.3735 87.3514 71.1341L93.5644 60.1179C93.762 59.7797 94.009 59.5023 94.313 59.2895C94.655 59.0425 95.0464 58.9209 95.4758 58.9209H95.6582C96.0838 58.9209 96.4372 59.0463 96.7146 59.2895C96.9578 59.5099 97.1288 59.7835 97.2276 60.1103L100.347 71.1303C100.416 71.3735 100.435 71.5863 100.404 71.7839C100.344 72.2057 100.142 72.5819 99.8192 72.8783C99.4772 73.1861 99.0668 73.3457 98.6222 73.3457ZM93.0704 66.9845H95.7988L94.8982 63.7013L93.0704 66.9845Z" fill="#1D252B"/>
</g>
<mask id="mask11_190_37" style="mask-type:luminance" maskUnits="userSpaceOnUse" x="47" y="58" width="111" height="16">
<path d="M157.108 58.9209H47.8921V73.3457H157.108V58.9209Z" fill="white"/>
</mask>
<g mask="url(#mask11_190_37)">
<path d="M112.83 73.3455C112.427 73.3455 112.059 73.2125 111.77 72.9655C111.477 72.7185 111.299 72.3917 111.234 72.0003L109.992 64.9095L106.754 72.0079C106.583 72.3955 106.309 72.7185 105.948 72.9693C105.219 73.4709 104.307 73.4595 103.744 72.9921C103.471 72.7641 103.285 72.4449 103.193 72.0421L101.153 61.0031C101.122 60.7789 101.119 60.6117 101.138 60.4673C101.172 60.0645 101.373 59.6731 101.719 59.3691C102.319 58.8371 103.292 58.7687 103.832 59.2817C104.056 59.4907 104.2 59.7681 104.257 60.1025L105.534 67.8963L109.007 60.1443C109.159 59.7947 109.422 59.4869 109.756 59.2627C110.432 58.8181 111.268 58.8219 111.816 59.2627C112.093 59.4869 112.268 59.7947 112.321 60.1557L113.613 67.9001L117.079 60.1101C117.231 59.7719 117.455 59.4945 117.744 59.2817C118.409 58.7801 119.374 58.8409 119.83 59.3767C120.088 59.6769 120.179 60.0721 120.092 60.5129C120.081 60.6193 120.027 60.7865 119.944 60.9803L114.799 72.0193C114.582 72.4487 114.308 72.7679 113.974 72.9959C113.613 73.2239 113.233 73.3455 112.83 73.3455Z" fill="#1D252B"/>
</g>
<mask id="mask12_190_37" style="mask-type:luminance" maskUnits="userSpaceOnUse" x="47" y="58" width="111" height="16">
<path d="M157.108 58.9209H47.8921V73.3457H157.108V58.9209Z" fill="white"/>
</mask>
<g mask="url(#mask12_190_37)">
<path d="M129.079 73.3457C128.767 73.3457 128.486 73.2621 128.247 73.0911C128.007 72.9163 127.844 72.6883 127.753 72.4033L127.084 69.9789H121.851L120.514 72.3767C120.331 72.6845 120.103 72.9125 119.818 73.0835C119.115 73.5015 118.276 73.3989 117.85 72.8783C117.611 72.5819 117.512 72.2057 117.573 71.7839C117.599 71.5863 117.679 71.3735 117.812 71.1341L124.025 60.1179C124.223 59.7797 124.47 59.5023 124.774 59.2895C125.119 59.0425 125.511 58.9209 125.936 58.9209H126.119C126.544 58.9209 126.898 59.0463 127.175 59.2895C127.418 59.5099 127.589 59.7835 127.688 60.1103L130.808 71.1303C130.876 71.3735 130.895 71.5863 130.865 71.7839C130.804 72.2057 130.603 72.5819 130.28 72.8783C129.93 73.1861 129.52 73.3457 129.079 73.3457ZM123.523 66.9845H126.252L125.351 63.7013L123.523 66.9845Z" fill="#1D252B"/>
</g>
<mask id="mask13_190_37" style="mask-type:luminance" maskUnits="userSpaceOnUse" x="47" y="58" width="111" height="16">
<path d="M157.108 58.9209H47.8921V73.3457H157.108V58.9209Z" fill="white"/>
</mask>
<g mask="url(#mask13_190_37)">
<path d="M141.824 73.3455C141.323 73.3455 140.912 73.1138 140.662 72.6958L136.048 65.4112L139.727 65.377L143.405 70.8452C143.523 70.9934 143.671 71.3088 143.603 71.7876C143.542 72.2094 143.341 72.5855 143.018 72.8819C142.683 73.1859 142.269 73.3455 141.824 73.3455Z" fill="#1D252B"/>
</g>
<mask id="mask14_190_37" style="mask-type:luminance" maskUnits="userSpaceOnUse" x="47" y="58" width="111" height="16">
<path d="M157.108 58.9209H47.8921V73.3457H157.108V58.9209Z" fill="white"/>
</mask>
<g mask="url(#mask14_190_37)">
<path d="M133.411 73.3462C132.985 73.3462 132.624 73.1904 132.37 72.8902C132.115 72.5938 132.013 72.21 132.073 71.7844L133.647 60.5896C133.707 60.1678 133.913 59.784 134.247 59.48C134.589 59.1722 134.996 59.0088 135.429 59.0088H139.689C141.513 59.0088 142.869 59.4078 143.72 60.202C144.61 61.0266 144.963 62.1248 144.777 63.4624C144.617 64.591 143.713 68.277 138.754 68.277H135.706L135.212 71.7844C135.151 72.2176 134.935 72.6014 134.585 72.9016C134.239 73.1904 133.837 73.3462 133.411 73.3462ZM136.132 65.2294H138.704C139.601 65.2294 140.323 65.0622 140.859 64.7354C141.311 64.458 141.543 64.1046 141.615 63.5916C141.684 63.0976 141.577 62.7518 141.273 62.5048C141.026 62.3034 140.445 62.064 139.058 62.064H136.576L136.132 65.2294Z" fill="#1D252B"/>
</g>
<mask id="mask15_190_37" style="mask-type:luminance" maskUnits="userSpaceOnUse" x="47" y="58" width="111" height="16">
<path d="M157.108 58.9209H47.8921V73.3457H157.108V58.9209Z" fill="white"/>
</mask>
<g mask="url(#mask15_190_37)">
<path d="M153.783 73.2503H146.449C146.02 73.2503 145.659 73.0945 145.404 72.7943C145.153 72.4979 145.051 72.1141 145.111 71.6923L146.673 60.5925C146.734 60.1707 146.939 59.7869 147.27 59.4867C147.612 59.1751 148.022 59.0117 148.455 59.0117H155.789C156.204 59.0117 156.557 59.1675 156.808 59.4563C157.059 59.7413 157.157 60.1175 157.1 60.5355C157.04 60.9573 156.831 61.3297 156.492 61.6147C156.162 61.8959 155.77 62.0403 155.364 62.0403H149.607L149.246 64.6053H154.342C154.752 64.6053 155.105 64.7573 155.356 65.0461C155.607 65.3387 155.71 65.7149 155.653 66.1291C155.592 66.5509 155.383 66.9233 155.041 67.2083C154.714 67.4857 154.323 67.6339 153.916 67.6339H148.82L148.455 70.2179H154.212C154.627 70.2179 154.976 70.3737 155.231 70.6663C155.482 70.9551 155.58 71.3275 155.523 71.7455C155.463 72.1673 155.254 72.5397 154.919 72.8247C154.577 73.1059 154.19 73.2503 153.783 73.2503Z" fill="#1D252B"/>
</g>
</svg>
