<svg width="205" height="88" viewBox="0 0 205 88" fill="none" xmlns="http://www.w3.org/2000/svg">
<g clip-path="url(#clip0_189_18)">
<path fill-rule="evenodd" clip-rule="evenodd" d="M166.671 52.3715H172.674V31H166.671V52.3715Z" fill="#DE1E34"/>
<path fill-rule="evenodd" clip-rule="evenodd" d="M181.5 31V52.3715H175.499V31H181.5Z" fill="#DE1E34"/>
<path fill-rule="evenodd" clip-rule="evenodd" d="M36.2983 39.3007H31.4438V31H23.5V52.3715H31.4438V41.7744H36.2983V52.3715H44.243V31H36.2983V39.3007Z" fill="#DE1E34"/>
<path fill-rule="evenodd" clip-rule="evenodd" d="M73.5922 38.9472L73.1064 37.5346H66.5745V52.3711H73.1064V43.4515C73.1064 41.5083 74.3427 40.449 75.4017 40.449C76.2842 40.449 77.4313 40.6255 77.4313 42.5686V52.3711H83.9633V42.7453C83.9633 37.3581 77.918 35.2392 73.5922 38.9472Z" fill="#DE1E34"/>
<path fill-rule="evenodd" clip-rule="evenodd" d="M140.677 46.1453L137.631 37.5352H133.174L130.128 46.4985L126.95 37.5352H120.728H120.683H118.212L115.078 45.085L110.665 37.5352H103.206L111.989 52.5482L110.842 55.3733C110.444 56.2571 109.493 56.3008 109.307 55.4616C109.307 53.9443 108.077 52.7149 106.56 52.7149C105.043 52.7149 103.814 53.9443 103.814 55.4616C103.825 57.0516 105.413 59.1268 108.546 58.9941C111.68 58.862 113.004 56.2571 113.445 55.1531L120.704 37.593L125.936 52.3717H130.702L133.615 43.849L136.616 52.3717H141.118L146.193 37.5352H143.589L140.677 46.1453Z" fill="#DE1E34"/>
<path fill-rule="evenodd" clip-rule="evenodd" d="M55.4964 36.7803C50.4985 36.7803 46.4475 40.4983 46.4475 45.0844C46.4475 49.6721 50.4985 53.3901 55.4964 53.3901C60.4952 53.3901 64.5472 49.6721 64.5472 45.0844C64.5472 40.4983 60.4952 36.7803 55.4964 36.7803ZM57.748 48.9698C57.748 50.214 56.7401 51.2224 55.4964 51.2224C54.2544 51.2224 53.2465 50.214 53.2465 48.9698V41.1997C53.2465 39.9563 54.2544 38.9489 55.4964 38.9489C56.7401 38.9489 57.748 39.9563 57.748 41.1997V48.9698Z" fill="#DE1E34"/>
<path fill-rule="evenodd" clip-rule="evenodd" d="M103.931 46.2767C103.979 45.9292 104.003 45.4442 104.003 45.0844C104.003 40.4983 99.9515 36.7803 94.9536 36.7803C89.9548 36.7803 85.9028 40.4983 85.9028 45.0844C85.9028 49.6721 89.9548 53.3901 94.9536 53.3901C98.3877 53.3901 101.375 51.6341 102.909 49.0474L100.91 48.3073C99.7016 50.1546 97.4863 51.3916 94.9536 51.3916C93.7099 51.3916 92.702 50.214 92.702 48.9698V46.2774L103.931 46.2767ZM92.702 41.1997C92.702 39.9563 93.7099 38.9489 94.9536 38.9489C96.1964 38.9489 97.2043 39.9563 97.2043 41.1997V44.1578H92.702V41.1997Z" fill="#DE1E34"/>
<path fill-rule="evenodd" clip-rule="evenodd" d="M164.394 46.2767C164.443 45.9292 164.468 45.4442 164.468 45.0844C164.468 40.4983 160.416 36.7803 155.417 36.7803C150.419 36.7803 146.367 40.4983 146.367 45.0844C146.367 49.6721 150.419 53.3901 155.417 53.3901C158.852 53.3901 161.839 51.6341 163.373 49.0474L161.374 48.3073C160.166 50.1546 157.951 51.3916 155.417 51.3916C154.174 51.3916 153.166 50.214 153.166 48.9698V46.2774L164.394 46.2767ZM153.166 41.1997C153.166 39.9563 154.174 38.9489 155.417 38.9489C156.661 38.9489 157.669 39.9563 157.669 41.1997V44.1578H153.166V41.1997Z" fill="#DE1E34"/>
</g>
<defs>
<clipPath id="clip0_189_18">
<rect width="158" height="28" fill="white" transform="translate(23.5 31)"/>
</clipPath>
</defs>
</svg>
