<svg width="205" height="88" viewBox="0 0 205 88" fill="none" xmlns="http://www.w3.org/2000/svg">
<g clip-path="url(#clip0_189_11)">
<path d="M102.563 76H101.616L108.117 58.0395H117.143C117.942 58.0395 118.721 57.776 119.478 57.249C120.236 56.722 120.741 56.0791 120.993 55.3202L127.999 35.7787C128.63 34.1344 128.536 32.7536 127.715 31.6364C126.894 30.5191 125.643 29.9605 123.96 29.9605H111.463L101.111 58.8617L95.1785 75.1779C91.644 74.3347 88.3619 72.9433 85.3323 71.004C82.3448 69.0646 79.7465 66.7246 77.5375 63.9842C75.3284 61.2437 73.6137 58.166 72.3935 54.751C71.1312 51.3781 70.5 47.7945 70.5 44C70.5 40.332 71.0891 36.8327 72.2673 33.502C73.4454 30.2134 75.0865 27.22 77.1903 24.5217C79.2942 21.8235 81.7768 19.5046 84.6381 17.5652C87.4993 15.6258 90.6131 14.1924 93.9793 13.2648L87.9201 30.087L77.6322 58.0395H84.3856L93.0325 34.2609H98.145L89.498 58.0395H96.2515L104.33 35.9051C104.919 34.303 104.814 32.9328 104.015 31.7945C103.215 30.6561 101.974 30.087 100.291 30.087H94.6105L101.111 12H102.563C106.981 12 111.126 12.8432 114.997 14.5296C118.868 16.2161 122.245 18.5033 125.127 21.3913C128.01 24.2793 130.292 27.6627 131.975 31.5415C133.658 35.4203 134.5 39.5731 134.5 44C134.5 48.4269 133.658 52.5797 131.975 56.4585C130.292 60.3373 128.01 63.7207 125.127 66.6087C122.245 69.4967 118.868 71.7839 114.997 73.4704C111.126 75.1568 106.981 76 102.563 76ZM121.814 34.1344H116.701L109.569 53.7391H114.681L121.814 34.1344Z" fill="#024AD8"/>
</g>
<defs>
<clipPath id="clip0_189_11">
<rect width="64" height="64" fill="white" transform="translate(70.5 12)"/>
</clipPath>
</defs>
</svg>
