<svg width="205" height="88" viewBox="0 0 205 88" fill="none" xmlns="http://www.w3.org/2000/svg">
<path fill-rule="evenodd" clip-rule="evenodd" d="M149.619 68.0042V19.7305H126.192L126.282 68.0042H149.619Z" fill="#0097D5"/>
<path fill-rule="evenodd" clip-rule="evenodd" d="M124.418 68.0042L124.33 19.7305H100.991V68.0042H124.418Z" fill="#CF4037"/>
<path fill-rule="evenodd" clip-rule="evenodd" d="M99.1279 68.0042V19.7305H75.7009L75.7898 68.0925L99.1279 68.0042Z" fill="#0097D5"/>
<path fill-rule="evenodd" clip-rule="evenodd" d="M73.9258 68.0925L73.8376 19.7305H50.5V68.0925H73.9258Z" fill="#CF4037"/>
<path fill-rule="evenodd" clip-rule="evenodd" d="M63.8104 24.523C64.6976 24.523 65.7626 24.3453 66.3839 25.0549C66.9164 25.765 68.5133 26.3864 67.892 27.5396L67.3595 28.338C67.4483 38.5435 67.4483 47.7717 67.7143 57.7094C67.5366 58.2425 67.7143 58.775 67.6254 59.3069C67.7143 61.2591 67.6254 63.1231 67.7143 65.0748L59.3728 65.1642C58.3967 64.7206 57.4211 64.0104 56.6221 63.3885L56.5333 63.1231V60.4607L56.3556 46.7061C56.2667 41.5601 56.3556 36.2353 56.1779 31.0893C55.2018 30.468 55.2912 29.2259 54.6693 28.338C54.4033 27.1848 54.847 26.1198 55.5566 25.3208C56.089 24.7883 56.7986 24.7883 57.5976 25.0549C58.9292 25.5873 59.7276 23.9905 61.1474 24.0787C62.0358 24.0787 63.0113 24.2564 63.8104 24.523Z" fill="#28539C"/>
<path fill-rule="evenodd" clip-rule="evenodd" d="M64.3428 26.2972C64.5199 26.386 64.9636 26.386 64.9636 26.7403C65.1413 26.9179 65.5849 26.9179 65.5849 27.2727C65.1413 27.8941 65.2295 28.7808 64.9636 29.4915C64.0763 30.6447 62.39 31.3549 62.4788 32.9524C62.7454 33.9285 61.8575 34.6381 61.6804 35.5254L61.5916 35.7031C61.4145 35.6148 61.4145 35.3483 61.325 35.0817C60.8814 34.1945 59.817 33.8397 59.6393 32.8635C59.4616 31.7103 59.3728 30.29 58.1307 29.8463C57.6871 29.7581 56.9775 29.8463 56.9775 29.1367C56.8886 28.5154 56.1785 28.1606 56.445 27.451C57.3323 26.5637 58.6632 27.2733 59.6393 26.8297L60.8814 26.0313C62.2129 26.0307 63.1002 26.652 64.3428 26.2972Z" fill="white"/>
<path fill-rule="evenodd" clip-rule="evenodd" d="M58.7521 34.5501C59.4623 35.3485 60.7044 35.8816 60.7932 37.0342C61.0598 37.745 61.1486 38.6323 61.8582 39.0753C62.1242 39.1642 62.213 38.8094 62.3019 38.5434C62.3901 37.7444 62.3019 36.9454 62.5678 36.1476C62.9226 35.3485 63.6328 34.816 63.7216 34.0176C63.9876 33.8399 63.8987 33.3074 64.1653 33.3074C64.3429 38.0998 64.3429 43.4235 64.4312 48.3041L64.52 60.7278C64.6083 61.2597 64.6083 61.6139 64.6083 62.0587H58.5745C58.1308 61.9704 58.3974 61.4379 58.3085 60.9943C58.3085 60.9943 57.9531 36.9454 57.9531 31.7988C58.7521 32.4202 58.3091 33.7511 58.7521 34.5501Z" fill="white"/>
<path fill-rule="evenodd" clip-rule="evenodd" d="M87.6804 23.7235C89.5438 24.1671 91.6737 23.6347 93.3594 24.4337C94.3356 24.6996 94.3356 25.6763 95.0452 26.2088C95.4888 26.8296 95.8436 27.362 96.3767 27.8945C96.6426 28.1611 96.5543 28.5159 96.3767 28.7818C95.7553 29.4031 96.732 29.7579 96.8203 30.2022C98.5949 33.2188 97.7964 36.9456 98.0624 40.2294L97.8847 40.4065C95.2228 40.3176 92.3821 40.4947 89.8097 40.4947C89.0996 39.874 88.3011 39.3415 87.5909 38.7202C87.3244 37.9223 87.8575 37.0339 87.4138 36.3243C86.8814 36.2354 87.2362 36.9456 87.0585 37.1233L87.1467 37.3004C86.969 40.8501 86.8808 44.4881 87.1467 48.1266H87.2356C87.9457 47.5047 88.7442 46.7063 89.7203 46.7063C91.0512 46.7063 92.205 45.9973 93.536 45.9973C95.044 46.5292 97.1745 47.1499 97.3516 49.1922C97.5287 49.9906 97.2633 50.7884 96.5532 51.2333C96.9086 51.854 97.6181 52.1194 98.0612 52.6524C98.2389 56.3792 97.6176 60.2843 94.8663 62.9468C92.6475 65.2532 89.3649 65.5198 86.2589 65.2532C83.3305 64.4548 80.491 62.7685 79.0712 59.929C78.0951 58.3315 77.8291 56.4675 77.3855 54.6047C76.1428 48.7474 76.3205 42.447 76.7641 36.3243C77.0307 33.6624 77.6514 31.2665 78.6275 28.8707C78.2722 28.427 77.8291 27.8945 78.0951 27.2732C78.0951 26.3859 79.0712 26.3859 79.4266 25.6763C80.6686 24.7885 82.0884 23.9012 83.7741 24.1671C84.5731 23.9906 85.3716 23.5458 86.2589 23.6347L87.6804 23.7235Z" fill="#28539C"/>
<path fill-rule="evenodd" clip-rule="evenodd" d="M91.9396 25.7645C92.5609 26.0305 93.3593 26.563 93.3593 27.2732C92.738 27.5397 91.8507 27.6285 91.5842 28.427C90.9628 29.5802 91.2294 31.2665 91.2294 32.5086C90.6969 32.7751 90.8746 31.8872 90.5192 31.6213C90.431 31.2665 90.0756 31.2665 89.9867 30.9117C89.9867 29.9356 89.2765 29.2254 89.0106 28.3381C88.8329 28.0722 88.4781 28.0722 88.2122 27.9827C87.4137 28.0716 86.9695 28.7812 86.6147 29.4031C86.437 29.4919 86.2593 29.5808 86.0822 29.4031C85.9045 29.0483 85.4609 28.8706 85.1949 28.8706C84.3965 29.0483 84.4848 30.2015 83.6863 30.0238C83.2433 29.3142 83.5086 28.0722 82.5331 27.7168C81.8229 27.8945 81.1133 28.6929 80.492 27.9827C80.3143 27.805 80.1366 27.5397 80.3143 27.2732C81.0245 26.4747 81.9112 26.2082 82.8873 25.9422C83.9523 26.1193 84.7513 25.5868 85.7274 25.3203C87.7691 25.498 89.7214 25.5868 91.9396 25.7645Z" fill="white"/>
<path fill-rule="evenodd" clip-rule="evenodd" d="M83.3322 30.9116C83.5982 31.1782 84.0424 31.267 84.3083 31.0893C84.5749 30.734 84.8408 30.3792 85.1956 30.2903C85.6393 30.3792 86.0829 30.734 86.5265 30.5563C87.1473 30.3792 87.4138 29.4919 88.1234 29.7578C88.8336 30.5563 88.6559 31.8872 89.632 32.5974C90.5193 32.8639 90.0756 34.0177 90.8741 34.4613C90.8741 34.6385 91.14 34.6385 91.3171 34.7273C92.8257 33.5741 92.205 31.267 92.7375 29.5807C92.8263 29.5807 92.9146 29.403 93.0034 29.5807C93.6248 30.5563 94.2461 31.6212 94.3349 32.8639C94.7792 34.1948 94.6015 35.7923 94.7792 37.1232C94.6897 37.6557 93.8913 37.3891 93.4477 37.478H89.4543L89.2766 37.3003C89.3655 35.6146 89.2766 33.8394 88.0346 32.5085C87.5021 32.242 86.6148 31.976 86.0823 32.3308C84.9285 33.1298 84.662 34.5496 84.5737 35.7917C84.2183 41.0271 84.0412 46.5291 84.7514 51.588C84.396 52.1187 84.3077 52.7406 84.5737 53.2737C84.7514 54.1609 84.7514 54.9594 84.7514 55.9349C84.7514 56.2014 85.0173 56.2903 85.195 56.3785C85.7275 56.4668 86.3488 56.2015 86.7036 56.7339C87.2355 57.4441 87.1467 58.5097 87.8569 59.1298C88.3005 59.3069 88.5664 58.8633 88.7436 58.5091C88.9212 57.2658 88.8324 56.0243 89.8974 55.1365C90.1639 54.338 90.0751 53.0954 89.4537 52.4752V51.9422C89.8974 51.8539 90.341 52.0316 90.6075 52.2975C91.1394 52.8294 91.1394 53.7179 91.2283 54.3386C91.9385 54.7823 91.1394 56.6463 92.3809 56.1144C93.0028 55.3159 93.5353 54.4275 93.6242 53.5402C93.8013 53.3631 94.0678 53.1848 94.2455 53.2748C94.5115 54.4275 94.2455 55.8478 94.0678 56.9122C93.4465 59.4864 91.1389 61.7046 88.5659 62.2365C85.8152 62.4148 82.532 61.9711 81.0234 59.3081C78.8935 55.9367 78.8935 51.5891 78.4498 47.5958C78.2721 42.8923 78.2721 37.4792 79.1594 32.9539C79.4259 31.8001 79.9578 30.7351 80.4015 29.5819C80.668 29.4042 81.1999 29.5819 81.5553 29.5819C82.6226 29.1371 82.7109 30.468 83.3322 30.9116Z" fill="white"/>
<path fill-rule="evenodd" clip-rule="evenodd" d="M95.3129 49.0136C95.3129 49.2802 95.4894 49.7238 95.134 49.9009C94.4244 49.9903 93.8925 50.6993 93.7149 51.4095C93.4483 51.6761 92.7381 51.4978 92.6493 52.0314C92.6493 52.7404 92.561 53.4506 92.2945 54.1608C92.2057 53.8943 91.9391 53.6289 92.028 53.4506C92.4716 52.2968 91.6732 51.4984 90.963 50.6993C90.4311 50.434 90.1646 49.9903 89.5432 50.0786C89.1878 49.9003 89.0107 49.5455 89.0107 49.1913C89.1884 48.2146 90.1646 48.4811 90.7859 48.3917C91.7632 48.3035 92.5604 47.5044 93.5366 47.771C93.9808 48.3923 94.9569 48.3035 95.3129 49.0136ZM86.9702 51.942C87.5916 51.942 88.0358 52.2085 88.3906 52.7404C88.6571 53.4506 88.3906 54.1608 88.3906 54.9592C87.947 55.4911 88.1241 56.2013 87.9469 56.7338C87.5033 56.5555 87.6804 55.8465 87.4145 55.4029C87.2368 55.3146 87.2368 55.0475 87.0591 54.9592C86.5266 54.6038 86.4378 55.6682 85.9941 55.0475C86.6154 53.9819 85.2839 52.8287 85.9941 51.8526C86.2606 51.4984 86.7937 51.6766 86.9702 51.942Z" fill="white"/>
<path fill-rule="evenodd" clip-rule="evenodd" d="M111.373 23.8119C112.882 23.546 114.479 23.546 115.987 23.9008C117.408 23.4571 119.093 23.5454 120.336 23.9902C120.692 24.2562 121.046 24.611 121.223 24.9652C121.312 25.853 121.223 26.5626 121.223 27.3616L122.022 28.1601C122.111 30.9996 122.022 34.1939 122.111 37.0334C120.956 37.3 119.449 36.9452 118.295 37.2117C117.232 37.1229 116.163 37.1229 115.1 37.2117C114.834 37.3 114.923 37.6554 115.012 37.9219L115.899 38.3655L117.408 38.1879C118.383 38.6315 120.069 38.1879 120.424 39.6076C120.424 40.406 121.223 41.3816 120.513 42.0924L120.691 42.3589L122.111 43.5121C122.288 46.0857 122.111 48.5704 122.288 51.1434L122.022 51.2329C119.804 51.2329 117.408 51.3211 115.189 51.3211C114.924 51.5877 115.012 51.853 115.012 52.1184C115.367 52.2966 115.722 52.0313 116.076 52.0313C117.408 51.9419 119.449 51.5877 120.159 53.0957C120.07 53.7176 120.336 54.4266 120.868 54.7814C121.223 55.1368 120.956 55.5798 120.956 56.0246L120.424 56.5554C120.956 57.1773 121.755 57.6209 122.288 58.3311V64.6309L122.022 64.7203C116.876 64.6309 111.729 64.7203 106.582 64.8086C105.783 64.0984 104.807 63.6548 104.009 62.9458V50.0784C103.92 43.2456 103.83 36.501 103.83 29.6687L102.855 27.7164C102.855 26.7403 102.499 25.4976 103.477 24.9652C104.186 24.6992 104.808 23.9008 105.606 23.8119C106.138 23.9008 106.67 23.4571 107.292 23.4571C107.824 23.6348 108.446 23.546 108.977 23.3689C109.865 23.1906 110.486 23.9902 111.373 23.8119Z" fill="#28539C"/>
<path fill-rule="evenodd" clip-rule="evenodd" d="M119.271 25.7653C119.271 25.943 119.36 26.209 119.094 26.3867C118.562 26.6526 117.763 26.7415 117.585 27.4516C117.408 27.9835 117.408 28.5166 116.876 28.7825C116.076 29.2262 115.189 28.3389 114.39 28.8714C113.769 29.4927 113.858 30.4683 113.326 31.0013C113.059 30.5571 112.617 30.0246 112.084 29.6704C111.64 29.1379 111.284 27.8953 110.397 28.2507C109.509 28.5166 109.509 29.4927 109.244 30.1141C108.446 30.6465 108.446 31.6227 108.534 32.5099H108.446C108.09 31.6227 107.735 30.5577 107.204 29.6704C106.937 29.0491 107.204 28.2507 106.493 27.8953C105.961 27.8064 105.695 28.3389 105.428 28.6937C105.251 28.6937 105.074 28.782 104.985 28.6937C104.896 28.2501 104.807 27.7176 104.629 27.2739V26.4755L105.783 25.4994C106.849 25.5882 107.824 25.3217 108.889 25.6777C109.599 25.1446 110.397 25.6777 111.107 25.7659C111.641 26.2096 112.173 25.4994 112.793 25.5888C114.391 25.3223 116.343 25.5888 118.029 25.2334C118.383 25.2328 119.005 25.2328 119.271 25.7653Z" fill="white"/>
<path fill-rule="evenodd" clip-rule="evenodd" d="M118.739 28.8701C119.005 30.467 118.827 32.1533 119.005 33.7507L118.827 33.9278L111.64 34.0167L111.55 34.1938L111.64 38.8973C111.462 39.341 110.841 39.7846 110.93 40.3171C110.841 41.2044 111.55 42.0028 112.172 42.5359C112.793 43.4231 112.704 44.6658 113.591 45.3754C114.568 45.5531 114.301 44.3993 114.657 43.9556C114.745 43.512 115.012 43.0683 115.367 42.9795C115.632 43.0683 115.722 43.4231 115.81 43.7779C116.521 44.2216 116.076 45.6413 117.319 45.4636C118.205 44.8429 117.763 43.4231 118.826 42.8907L119.005 43.1566C118.915 44.577 119.005 46.1738 119.093 47.6824C119.181 47.9478 118.915 48.3032 118.561 48.1261L111.728 48.2143L111.64 48.3914L111.728 55.2243C111.995 55.9345 112.882 55.7574 113.236 56.4664C113.414 57.1766 114.301 57.2648 114.568 57.975C114.479 59.0406 115.632 59.3059 115.81 60.1932C116.165 60.4597 116.608 60.7263 117.052 60.5486C117.762 59.8396 117.674 58.774 117.939 57.709C118.204 57.4437 118.561 57.2654 119.005 57.1771C119.182 58.331 119.093 59.6619 119.182 60.8157C119.093 61.0822 119.448 61.703 118.826 61.613C114.479 61.7024 110.308 61.7024 106.048 61.7024C105.87 56.467 105.96 51.1427 105.87 45.9967L105.693 30.3787L105.781 30.2899C106.847 31.0001 107.557 32.331 107.645 33.5736C107.736 33.7471 107.861 33.8997 108.014 34.0219C108.167 34.1441 108.344 34.2331 108.533 34.2832C109.155 34.1944 109.155 33.4848 109.508 33.0412C109.508 31.9762 110.041 30.9118 110.75 30.0239C111.017 30.0239 111.017 30.2905 111.195 30.4676C111.905 30.9112 112.791 31.2666 112.881 32.1539C113.058 32.4198 113.235 32.7752 113.59 32.5969C114.3 31.7102 114.566 30.6453 115.366 29.9351C116.075 30.2899 116.785 30.1122 117.495 29.8462C117.94 29.6691 118.295 29.0478 118.739 28.8701Z" fill="white"/>
<path fill-rule="evenodd" clip-rule="evenodd" d="M115.277 39.9628C116.343 40.0511 117.141 39.6963 118.206 39.6963C118.916 39.6963 118.739 40.4947 119.182 40.9383C118.916 41.5597 118.028 41.2043 117.763 41.9145C117.585 42.4464 117.23 42.9794 116.965 43.3342C116.521 42.8018 116.876 41.9145 116.343 41.3814C115.899 40.9383 115.277 41.2043 114.745 41.4702C114.213 41.9145 114.036 42.6241 113.858 43.3342C113.326 43.3342 113.681 42.6241 113.414 42.2687C113.326 41.5591 112.439 41.1155 112.617 40.4053C113.148 39.9616 113.858 39.2515 114.657 39.6951L115.277 39.9628ZM118.383 53.8062C118.472 54.3381 118.472 54.6935 118.827 55.0483C118.827 55.492 118.383 55.2254 118.118 55.4037C117.408 55.7591 117.408 56.7346 116.609 56.9111C116.254 57.4442 116.876 57.8878 116.609 58.4197C116.521 58.6863 116.609 59.1299 116.431 59.2182C115.899 59.1299 116.254 58.5974 116.166 58.2426C115.987 57.2659 114.834 57.0888 114.48 56.2015C114.39 55.6685 114.125 55.136 113.681 54.7812C113.592 54.3376 114.125 54.3376 114.302 54.2493C115.722 54.427 116.876 53.0072 118.383 53.8062Z" fill="white"/>
<path fill-rule="evenodd" clip-rule="evenodd" d="M135.776 24.4336C136.93 24.5225 138.083 23.7234 139.148 24.2565C139.77 25.0549 140.745 24.4336 141.544 24.523C142.609 24.7001 143.407 24.3454 144.472 24.1677C145.004 24.1677 145.714 23.9911 146.158 24.4342L147.312 25.6769C147.312 26.2976 147.223 26.8295 146.78 27.1849C146.868 27.5403 147.223 27.5403 147.312 27.8056C147.223 30.7346 147.4 33.7512 147.4 36.8573C145.182 37.0344 143.141 36.9455 140.923 37.0344C140.656 37.7451 140.745 38.2765 140.834 38.9866C141.455 39.342 142.076 39.7851 142.875 39.6086C144.028 39.4309 145.449 39.5197 146.07 40.5847C146.248 41.0277 146.248 41.4714 145.981 41.7379C145.803 42.0933 145.271 42.2698 145.271 42.714L147.4 44.4003C147.4 46.7068 147.579 48.9262 147.4 51.0555L141.012 51.1438C140.657 51.322 140.834 51.9422 140.834 52.2093C142.254 53.0078 143.94 52.4759 145.094 53.8068C145.449 54.517 146.513 55.3154 145.892 56.2027C145.626 56.2909 145.537 56.6463 145.537 56.9117L147.489 58.5103C147.489 60.5502 147.578 62.5025 147.489 64.4553L147.4 64.6324C141.899 64.6324 136.663 64.5453 131.339 64.6324L129.475 63.3903V62.0594L129.387 41.206C129.298 36.06 129.298 31.0906 129.12 26.0317C129.033 25.5886 128.676 25.1444 128.943 24.7896C129.387 24.4348 129.83 23.8135 130.452 23.7246C132.226 23.724 134.09 23.9906 135.776 24.4336Z" fill="#28539C"/>
<path fill-rule="evenodd" clip-rule="evenodd" d="M137.462 25.9423C138.439 26.0305 139.326 26.6519 140.391 26.3859C141.278 26.3859 142.432 26.1194 143.319 26.3859C143.763 26.0305 144.561 25.9423 145.183 26.1194C145.449 26.2971 145.271 26.4742 145.271 26.563C144.828 26.9178 144.029 27.0955 143.674 27.8051C143.674 28.5153 142.964 28.9589 142.698 29.4914C141.988 29.4914 141.988 28.6041 141.366 28.5153C140.569 28.6041 139.68 28.693 139.415 29.4914C139.327 30.2016 138.528 30.2898 138.172 30.8223C137.463 30.4669 137.64 29.5802 137.019 29.0478C136.221 28.7812 135.422 28.6041 134.711 28.6924C134.268 29.136 134.18 29.8456 133.824 30.2892C133.026 29.8456 132.937 28.7806 132.316 28.1599C131.872 27.4497 131.074 27.0067 131.251 26.0299C131.162 25.9417 131.073 25.764 131.162 25.5869L131.784 25.498C133.647 25.498 135.509 26.3859 137.462 25.9423Z" fill="white"/>
<path fill-rule="evenodd" clip-rule="evenodd" d="M132.936 30.9116C133.468 31.0005 133.912 31.3553 134.267 31.7989C134.711 31.533 134.445 30.734 134.889 30.468C135.066 30.2021 135.51 30.2903 135.776 30.3797C136.575 31.0899 137.285 31.9766 138.261 32.6868C138.882 32.6868 138.793 31.8878 139.148 31.4447C139.947 31.0893 140.214 29.8467 141.367 30.0244C141.989 30.2021 142.61 30.5568 143.231 30.7345C143.674 30.6457 143.674 30.2021 144.029 30.1132C144.384 31.267 144.029 32.4203 144.296 33.5741L144.029 33.7518C141.811 33.84 139.68 33.6629 137.64 33.84L137.463 33.9289C137.64 36.0594 137.551 37.9228 137.64 39.9633C137.286 40.3181 136.487 40.4952 136.575 41.1165C136.664 42.0927 137.197 43.0688 137.995 43.6013C138.528 44.5774 138.617 45.9089 139.77 46.6179C140.479 46.6179 140.479 44.6662 141.19 45.8195C141.367 46.2631 141.545 46.7067 141.988 46.885C142.343 47.0621 142.52 46.885 142.786 46.7968C143.142 46.4414 143.142 45.82 143.585 45.5541C143.497 44.9328 143.585 44.312 144.207 43.9572C144.472 44.4009 144.207 45.111 144.295 45.5541C144.207 46.3531 144.472 47.151 144.295 47.9494L137.639 48.0388V48.1271C137.729 50.0793 137.639 52.1193 137.639 53.9832C137.374 54.1615 137.285 54.5163 137.197 54.7817C137.374 55.8472 138.349 56.6457 138.439 57.7101C138.527 58.1549 139.06 58.4202 139.414 58.5097C139.858 58.5097 139.858 57.8877 140.213 57.9766C140.745 58.5985 140.834 60.1948 141.987 60.0177L143.053 58.7756L144.207 58.0666C144.472 58.5103 144.295 59.131 144.384 59.6629V61.4386C140.213 61.5269 135.51 61.6146 131.428 61.4386L131.339 61.2603L131.161 42.5369V29.0488C131.961 29.4919 131.871 30.734 132.936 30.9116Z" fill="white"/>
<path fill-rule="evenodd" clip-rule="evenodd" d="M143.673 41.205C144.028 41.205 144.117 41.5604 143.94 41.9151C143.496 42.3588 143.496 43.1572 142.698 43.6009C142.342 44.1333 142.431 45.1095 142.342 45.8191C141.455 45.3754 142.254 43.1572 140.656 43.512C140.213 43.7786 139.946 44.1333 140.034 44.7541L139.946 44.8429C139.591 44.4876 139.769 43.8662 139.591 43.5114C139.059 43.0684 138.526 42.5353 138.526 41.9146C138.438 41.7369 138.348 41.648 138.438 41.4703C138.704 41.0267 139.235 40.8496 139.679 40.7607C141.012 40.939 142.343 41.5604 143.673 41.205ZM143.762 55.0484C143.94 55.4038 144.207 55.9357 143.851 56.2905C143.585 56.8224 143.053 56.9112 142.609 57.1778C142.343 57.5331 142.166 58.0662 141.811 58.3316C141.278 57.7097 141.455 56.9112 141.101 56.2905C140.745 56.0251 140.39 55.492 139.947 55.8468C139.591 56.1134 139.77 56.7341 139.326 56.8224C139.503 56.2016 138.793 55.4915 139.148 54.9596C139.503 54.6042 139.591 54.0711 140.123 54.0711C141.366 53.8946 142.698 54.25 143.762 55.0484Z" fill="white"/>
<path fill-rule="evenodd" clip-rule="evenodd" d="M152.548 64.5435C152.991 64.5435 153.346 64.7206 153.701 65.0742C154.057 65.4296 154.233 65.7844 154.233 66.3175C154.233 66.7611 154.056 67.1147 153.701 67.4713C153.435 67.8255 152.991 68.0032 152.548 68.0032C152.016 68.0032 151.66 67.8249 151.305 67.4713C150.95 67.1153 150.774 66.7611 150.774 66.3175C150.774 65.7844 150.951 65.429 151.305 65.0742C151.66 64.7206 152.015 64.5435 152.548 64.5435ZM154.5 66.2292C154.5 65.6961 154.322 65.2525 153.878 64.8971C153.522 64.4535 153.079 64.2764 152.547 64.2764C151.925 64.2764 151.481 64.4535 151.128 64.8971C150.684 65.2525 150.506 65.6955 150.506 66.2292C150.506 66.8499 150.684 67.2936 151.128 67.6484C151.482 68.092 151.925 68.2691 152.547 68.2691C153.079 68.2691 153.522 68.092 153.878 67.6484C154.322 67.2936 154.5 66.8499 154.5 66.2292ZM152.991 65.8732C152.991 65.9627 152.991 66.1398 152.813 66.1398C152.724 66.2292 152.635 66.2292 152.458 66.2292H152.103V65.4296H152.369C152.635 65.4296 152.813 65.4296 152.901 65.519C152.991 65.6073 152.991 65.6961 152.991 65.8732ZM151.749 65.1642V67.3824H152.104V66.4952H152.37C152.636 66.4952 152.725 66.4952 152.814 66.5834C152.991 66.6717 152.991 66.8499 152.991 67.0271V67.2053L153.079 67.2936V67.3818H153.435V67.2936C153.347 67.2936 153.347 67.2936 153.347 67.2053V66.8499C153.347 66.7617 153.347 66.6717 153.258 66.5834C153.17 66.4063 153.08 66.4063 152.903 66.3181C152.991 66.3181 153.08 66.318 153.169 66.2298C153.251 66.1879 153.319 66.124 153.366 66.0454C153.413 65.9667 153.437 65.8765 153.435 65.785C153.435 65.5196 153.258 65.3413 153.079 65.2531C152.902 65.1648 152.724 65.1648 152.459 65.1648L151.749 65.1642Z" fill="#28539C"/>
</svg>
