<svg width="205" height="88" viewBox="0 0 205 88" fill="none" xmlns="http://www.w3.org/2000/svg">
<path fill-rule="evenodd" clip-rule="evenodd" d="M162.689 39.797C162.689 37.9953 162.539 36.4946 164.49 36.4946C166.743 36.4946 166.442 37.9962 166.442 39.797H162.689ZM168.843 40.5478C169.294 40.5478 169.443 40.6983 169.443 40.0972C169.443 37.395 167.192 35.7439 164.641 35.7439C161.789 35.7439 159.538 38.2955 159.538 41.2977C159.538 44.0007 161.488 46.8525 164.49 46.8525C167.042 46.8525 168.843 45.6519 169.595 43.0994H168.843C168.243 44.9002 166.893 46.1008 164.94 46.1008C162.99 46.1008 162.689 44.4496 162.689 42.6488V40.5469L168.843 40.5478ZM73.8309 37.9962C74.7322 36.345 75.9327 35.5942 77.8841 35.5942C81.0359 35.5942 81.0359 38.1458 81.0359 40.6974V45.6519H82.5366V46.4018H76.3825V45.6519H78.1842V40.848C78.1842 38.446 78.0337 36.9453 76.533 36.9453C75.4821 36.9453 74.5817 37.8457 74.131 38.7461C73.8309 39.6474 73.8309 40.848 73.8309 42.199V45.6519H75.4821V46.4018H69.1783V45.6519H70.98V36.6452H69.0287V35.8944C70.5303 35.8944 72.1815 35.8944 73.8318 35.7439L73.8309 37.9962ZM35.7065 46.4018V45.6519H38.2581L31.6533 37.3951L38.7078 29.7402H35.556V28.8398H42.4609V29.7402H39.9093L34.3554 35.5942L42.761 45.6519H43.9616V46.4018H35.7065Z" fill="black"/>
<path fill-rule="evenodd" clip-rule="evenodd" d="M31.3531 45.6516H34.0552V46.4015H25.6496V45.6516H27.9011V29.7399H25.5V28.8395H33.9047V29.7399H31.3531V45.6516ZM46.6636 39.7967C46.6636 37.995 46.3635 36.4943 48.4644 36.4943C50.7159 36.4943 50.2661 37.9959 50.2661 39.7967H46.6636ZM52.8177 40.5475C53.2684 40.5475 53.418 40.698 53.418 40.0968C53.418 37.3947 51.1665 35.7435 48.614 35.7435C45.6127 35.7435 43.3612 38.2951 43.3612 41.2974C43.3612 44.0004 45.463 46.8521 48.3148 46.8521C51.0169 46.8521 52.8177 45.6516 53.418 43.0991H52.6672C52.2165 44.8999 50.8655 46.1005 48.9142 46.1005C46.9628 46.1005 46.6627 44.4493 46.6627 42.6484V40.5466L52.8177 40.5475ZM95.7461 33.0423C96.6465 33.0423 97.6974 33.0423 98.5978 32.8918V36.1942H101.15V36.945H98.5978V44.0004C98.5978 44.8999 98.5978 45.5002 99.6487 45.5002C100.549 45.5002 100.999 44.8999 101.3 44.15L101.9 44.4493C101.3 45.9508 100.098 46.7007 98.5978 46.7007C96.0462 46.7007 95.7461 45.9508 95.7461 44.4493V36.945H94.0949V36.1942H95.7461V33.0423ZM102.801 46.4015V45.6516H104.452V29.4398H102.5V28.8395C104.151 28.8395 105.802 28.6899 107.302 28.3889V37.995H107.453C108.053 36.4934 109.254 35.593 111.055 35.593C111.956 35.593 114.056 36.0437 114.357 37.2442C114.507 38.5953 114.507 40.2465 114.507 41.5975V45.6516H116.008V46.4015H110.155V45.6516H111.655V40.8476C111.655 38.296 111.655 36.7954 110.155 36.7954C108.953 36.7954 108.053 37.6958 107.752 38.7467C107.302 39.648 107.302 40.8485 107.302 42.1996V45.6525H108.953V46.4024L102.801 46.4015ZM138.372 41.1478V46.7007H137.772L136.723 45.3506C135.521 46.4015 133.87 46.8521 132.218 46.8521C127.566 46.8521 124.114 42.3483 124.114 37.8454C124.114 34.3925 125.765 31.3911 128.766 29.4398C129.817 28.8395 131.169 28.6899 132.519 28.6899C134.021 28.6899 135.371 28.99 136.572 30.0401L137.623 28.8395H138.223V34.0932H137.473C137.022 31.091 135.072 29.4398 132.37 29.4398C130.719 29.4398 130.118 29.7399 129.067 31.091C127.867 33.0423 128.166 35.8941 128.166 38.1455C128.166 39.6471 128.016 41.4479 128.617 43.2487C129.067 44.8999 130.118 45.9508 132.218 46.1005C135.521 46.2519 136.873 44.0004 137.623 41.1478H138.372ZM148.581 41.2974C148.581 44.7503 148.581 46.1005 146.178 46.1005C143.777 46.1005 143.777 44.7503 143.777 41.2974C143.777 38.1455 143.627 36.1942 146.178 36.1942C148.88 36.1942 148.581 38.1455 148.581 41.2974ZM140.474 41.2974C140.474 44.2996 143.176 46.8521 146.178 46.8521C149.331 46.8521 151.881 44.2996 151.881 41.2974C151.881 38.2951 149.331 35.5939 146.178 35.5939C143.176 35.5939 140.474 38.296 140.474 41.2974ZM152.482 46.4015V45.6516H154.284V29.4398H152.482V28.6899C153.983 28.6899 155.634 28.5394 157.285 28.2393V45.6516H159.086V46.4015H152.482ZM59.272 37.9959H59.4216C60.322 36.3447 61.5234 35.5939 63.4748 35.5939C66.477 35.5939 66.477 38.1455 66.477 40.6971V45.6516H68.1282V46.4015H61.9741V45.6516H63.6253V40.8476C63.6253 38.4457 63.6253 36.945 62.1246 36.945C60.9232 36.945 60.0228 37.8454 59.7226 38.7458C59.272 39.6471 59.272 40.8476 59.272 42.1987V45.6516H61.0728V46.4015H54.769V45.6516H56.4202V36.6448H54.6194V35.8941C55.9705 35.8941 57.6217 35.8941 59.2729 35.7435L59.272 37.9959ZM86.4392 39.7967C86.4392 37.995 86.139 36.4943 88.24 36.4943C90.4914 36.4943 90.0417 37.9959 90.0417 39.7967H86.4392ZM92.5933 40.5475C93.0439 40.5475 93.1945 40.698 93.1945 40.0968C93.1945 37.3947 90.943 35.7435 88.3914 35.7435C85.5388 35.7435 83.1377 38.2951 83.1377 41.2974C83.1377 44.0004 85.2395 46.8521 88.0913 46.8521C90.7934 46.8521 92.5942 45.6516 93.1945 43.0991H92.4437C91.993 44.8999 90.642 46.1005 88.6906 46.1005C86.7393 46.1005 86.4392 44.4493 86.4392 42.6484V40.5466L92.5933 40.5475ZM67.3765 53.0063H68.7276L72.03 57.8084V53.0063H73.381V59.6092H72.03L68.578 54.8071V59.6092H67.3765V53.0063ZM76.3824 53.0063H81.6361V54.0554H77.5838V55.7066H81.336V56.7575H77.5838V58.5583H81.7866V59.6092H76.3824V53.0063ZM83.5874 53.0063H84.9385L86.2895 58.1095L87.7902 53.0063H89.1413L90.4923 58.1095H90.642L91.993 53.0063H93.3432L91.2431 59.6092H89.8921L88.3914 54.506L86.8898 59.6092H85.5388L83.5874 53.0063ZM102.5 57.0585L99.6478 53.0063H101.149L103.1 56.0076L105.05 53.0063H106.552L103.852 57.0585V59.6092H102.5V57.0585ZM111.205 53.7562C112.856 53.7562 113.457 54.9567 113.457 56.3069C113.457 57.6588 112.856 58.8594 111.205 58.8594C109.705 58.8594 108.954 57.6588 108.954 56.3069C108.953 54.9567 109.705 53.7562 111.205 53.7562ZM111.205 52.8549C109.105 52.8549 107.753 54.3564 107.753 56.3069C107.753 58.2591 109.105 59.7607 111.205 59.7607C113.457 59.7607 114.809 58.2591 114.809 56.3069C114.809 54.3564 113.457 52.8549 111.205 52.8549ZM118.711 53.9058H120.811C121.563 53.9058 122.163 54.0554 122.163 54.9567C122.163 55.7066 121.713 56.0076 120.963 56.0076H118.711V53.9058ZM117.511 59.6092H118.711V56.9071H120.662C121.862 56.9071 122.163 57.5092 122.163 58.7097C122.163 59.009 122.163 59.31 122.313 59.6092H123.665C123.514 59.31 123.364 58.7097 123.364 57.958C123.364 56.9071 122.614 56.6079 122.163 56.4583C122.463 56.4583 123.514 56.0076 123.514 54.8071C123.514 53.6065 122.614 53.0063 120.963 53.0063H117.511V59.6092ZM126.216 53.0063H127.566V56.0076L130.868 53.0063H132.37L129.518 55.7066L132.669 59.6092H131.018L128.617 56.4583L127.566 57.3578V59.6092H126.216V53.0063ZM176.198 29.7399C174.546 29.7399 173.047 31.2415 173.047 32.8918C173.047 34.6935 174.546 36.0446 176.198 36.0446C177.998 36.0446 179.5 34.6935 179.5 32.8918C179.5 31.2415 177.998 29.7399 176.198 29.7399ZM176.198 30.3411H176.349C177.699 30.3411 178.75 31.392 178.75 32.8927C178.75 34.3943 177.699 35.5948 176.198 35.5948C174.847 35.5948 173.647 34.3934 173.647 32.8927C173.647 31.5416 174.698 30.3411 176.198 30.3411ZM174.997 31.091V34.6935H175.597V33.1919H176.198L177.249 34.6935H177.849L176.798 33.1919C177.398 33.0414 177.699 32.7413 177.699 32.141C177.699 31.3902 177.249 31.0901 176.499 31.0901L174.997 31.091ZM175.597 32.7422V31.5407H176.349C176.947 31.5407 177.099 31.6913 177.099 32.1419C177.099 32.4421 176.947 32.7422 176.499 32.7422H175.597Z" fill="black"/>
</svg>
