<svg width="205" height="88" viewBox="0 0 205 88" fill="none" xmlns="http://www.w3.org/2000/svg">
<g clip-path="url(#clip0_190_34)">
<path d="M45.8526 28.8178C45.8526 28.8178 45.8526 31.7808 45.8526 32.6133C42.0581 32.6133 40.7275 32.6133 38.2142 32.6133C38.2142 31.7808 38.2142 28.8178 38.2142 28.8178C38.2389 25.3405 35.3806 22.5 31.8571 22.5H25.5V28.8178C25.5 32.295 28.3582 35.1355 31.8571 35.1355C31.8571 35.1355 34.8386 35.1355 35.6763 35.1355C35.6763 37.6333 35.6763 38.9556 35.6763 42.7267C34.8386 42.7267 31.8571 42.7267 31.8571 42.7267C28.3582 42.7267 25.5 45.5672 25.5 49.0689C25.5 52.5706 28.3582 55.3867 31.8571 55.3867C31.8571 55.3867 34.8386 55.3867 35.6763 55.3867C35.6763 56.2192 35.6763 59.1822 35.6763 59.1822C35.6763 62.6595 38.5346 65.5 42.0334 65.5C45.5323 65.5 48.3906 62.6595 48.3906 59.1822C48.3906 59.1822 48.3906 56.2192 48.3906 55.3867C52.1851 55.3867 53.5157 55.3867 56.029 55.3867C56.029 56.2192 56.029 59.1822 56.029 59.1822C56.029 62.6595 58.8872 65.5 62.3861 65.5H68.7432V59.1822C68.7432 55.705 65.885 52.8645 62.3861 52.8645C62.3861 52.8645 59.4046 52.8645 58.5669 52.8645C58.5669 50.3667 58.5669 49.0444 58.5669 45.2733C59.4046 45.2733 62.3861 45.2733 62.3861 45.2733C65.885 45.2733 68.7432 42.4328 68.7432 38.9556C68.7432 35.4784 65.885 32.6378 62.3861 32.6378C62.3861 32.6378 59.4046 32.6378 58.5669 32.6378C58.5669 31.8052 58.5669 28.8423 58.5669 28.8423C58.5669 25.365 55.7086 22.5245 52.2098 22.5245C48.7109 22.5 45.8526 25.3405 45.8526 28.8178ZM31.8571 25.0222C33.9515 25.0222 35.6763 26.7363 35.6763 28.8178C35.6763 28.8178 35.6763 31.7808 35.6763 32.6133C34.8386 32.6133 31.8571 32.6133 31.8571 32.6133C29.7627 32.6133 28.0379 30.8992 28.0379 28.8178C28.0379 28.8178 28.0379 26.4425 28.0379 25.0222C29.467 25.0222 31.8571 25.0222 31.8571 25.0222ZM48.4152 28.8178C48.4152 26.7363 50.14 25.0222 52.2344 25.0222C54.3288 25.0222 56.0536 26.7363 56.0536 28.8178C56.0536 28.8178 56.0536 31.7808 56.0536 32.6133C53.5403 32.6133 52.2098 32.6133 48.4152 32.6133C48.4152 31.7808 48.4152 28.8178 48.4152 28.8178ZM45.8526 35.16C45.8526 37.6577 45.8526 38.9801 45.8526 42.7511C42.0581 42.7511 40.7275 42.7511 38.2142 42.7511C38.2142 38.9801 38.2142 37.6577 38.2142 35.16C40.7522 35.16 42.0827 35.16 45.8526 35.16ZM56.0536 35.16C56.0536 37.6577 56.0536 38.9801 56.0536 42.7511C53.5403 42.7511 52.2098 42.7511 48.4152 42.7511C48.4152 38.9801 48.4152 37.6577 48.4152 35.16C52.2098 35.16 53.5157 35.16 56.0536 35.16ZM62.4107 35.16C64.5051 35.16 66.2299 36.8741 66.2299 38.9556C66.2299 41.037 64.5051 42.7511 62.4107 42.7511C62.4107 42.7511 59.4293 42.7511 58.5915 42.7511C58.5915 38.9801 58.5915 37.6577 58.5915 35.16C59.4293 35.16 62.4107 35.16 62.4107 35.16ZM28.0379 49.0689C28.0379 46.9875 29.7627 45.2733 31.8571 45.2733C31.8571 45.2733 34.8386 45.2733 35.6763 45.2733C35.6763 49.0444 35.6763 50.3667 35.6763 52.8645C34.8386 52.8645 31.8571 52.8645 31.8571 52.8645C29.7627 52.8645 28.0379 51.1503 28.0379 49.0689ZM45.8526 45.2733C45.8526 49.0444 45.8526 50.3667 45.8526 52.8645C42.0581 52.8645 40.7275 52.8645 38.2142 52.8645C38.2142 50.3667 38.2142 49.0444 38.2142 45.2733C40.7522 45.2733 42.0827 45.2733 45.8526 45.2733ZM56.0536 45.2733C56.0536 49.0444 56.0536 50.3667 56.0536 52.8645C53.5403 52.8645 52.2098 52.8645 48.4152 52.8645C48.4152 50.3667 48.4152 49.0444 48.4152 45.2733C52.2098 45.2733 53.5157 45.2733 56.0536 45.2733ZM45.8526 55.3867C45.8526 56.2192 45.8526 59.1822 45.8526 59.1822C45.8526 61.2637 44.1278 62.9778 42.0334 62.9778C39.939 62.9778 38.2142 61.2882 38.2142 59.1822C38.2142 59.1822 38.2142 56.2192 38.2142 55.3867C40.7522 55.3867 42.0827 55.3867 45.8526 55.3867ZM62.4107 55.3867C64.5051 55.3867 66.2299 57.0763 66.2299 59.1822C66.2299 59.1822 66.2299 61.5575 66.2299 62.9778C64.8008 62.9778 62.4107 62.9778 62.4107 62.9778C60.3163 62.9778 58.5915 61.2882 58.5915 59.1822C58.5915 59.1822 58.5915 56.2192 58.5915 55.3867C59.4293 55.3867 62.4107 55.3867 62.4107 55.3867Z" fill="#00AEEF"/>
<path d="M86.4594 47.2568H81.0878V55.3866H76.7266V32.6133H86.3608C91.141 32.6133 93.9253 35.5028 93.9253 39.9595C93.9253 44.1959 90.9931 47.2568 86.4594 47.2568ZM81.0878 36.6537V43.2898H86.3362C88.3566 43.2898 89.564 42.2613 89.564 39.984C89.564 37.6822 88.332 36.6782 86.3362 36.6782H81.0878V36.6537ZM106.886 53.8194C105.752 54.9948 104.052 55.7295 101.662 55.7295C98.0648 55.7295 94.763 53.9174 94.763 50.2443C94.763 46.4487 97.9662 45.4447 101.736 45.1264C104.57 44.857 106.59 44.5387 106.59 43.1674C106.59 42.2858 105.432 41.5512 103.486 41.5512C101.933 41.5512 100.159 42.2369 99.765 43.6816H95.4037C95.8226 40.4738 98.9272 38.074 103.387 38.074C110.286 38.074 110.804 42.5062 110.804 43.853V52.6195C110.804 53.4276 111.075 54.7255 111.296 55.3866H107.305C107.108 54.9459 106.984 54.4316 106.886 53.8194ZM106.763 47.2568C105.826 47.8445 104.422 48.1383 102.648 48.3342C100.504 48.5546 99.1736 49.0199 99.1736 50.2687C99.1736 51.2238 100.307 51.8849 102.056 51.8849C104.668 51.8849 106.787 51.0034 106.787 48.824V47.2568H106.763ZM122.138 51.4197C119.97 51.5421 118.861 50.6605 118.861 48.3098V42.3348H121.941V38.4903H118.861V34.1805H114.5V38.4658H112.455V42.3348H114.5V48.2608C114.5 52.8889 117.136 55.8764 122.113 55.3377V51.4197H122.138ZM132.61 51.4197C130.442 51.5421 129.333 50.6605 129.333 48.3098V42.3348H132.413V38.4903H129.333V34.1805H124.972V38.4658H122.927V42.3348H124.972V48.2608C124.972 52.8889 127.608 55.8764 132.585 55.3377V51.4197H132.61ZM138.006 48.6281C138.573 50.685 140.224 51.9829 142.269 51.9829C143.723 51.9829 145.152 51.3707 145.866 50.0239H150.523C149.538 53.4766 146.532 55.8029 142.294 55.8029C137.513 55.8029 133.571 51.8604 133.571 46.9874C133.571 42.0899 137.489 38.0985 142.294 38.0985C147.32 38.0985 151.46 41.9675 150.844 48.6526H138.006V48.6281ZM146.507 45.0774C145.99 43.1184 144.339 41.8695 142.244 41.8695C140.273 41.8695 138.672 43.1184 138.056 45.0774H146.507ZM162.671 38.1719C160.626 37.8536 158.581 38.4658 157.201 40.1799V38.5148H153.037V55.4111H157.398V47.1099C157.398 45.7631 157.57 44.3918 158.482 43.4367C159.468 42.3838 160.921 42.1879 162.671 42.3838V38.1719ZM179.5 45.5182C179.5 41.0615 176.864 38.074 172.872 38.074C171.048 38.074 169.57 38.8576 168.486 40.1309V38.4903H164.322V55.3866H168.683V45.5182C168.683 43.6082 170.038 42.1634 171.985 42.1634C174.868 42.1634 175.163 44.5142 175.163 45.5182V55.3866H179.5V45.5182Z" fill="black"/>
</g>
<defs>
<clipPath id="clip0_190_34">
<rect width="154" height="43" fill="white" transform="translate(25.5 22.5)"/>
</clipPath>
</defs>
</svg>
