<svg width="205" height="88" viewBox="0 0 205 88" fill="none" xmlns="http://www.w3.org/2000/svg">
<path d="M178.324 52.8871C178.77 52.8871 178.974 53.0161 178.974 53.3396C178.974 53.6493 178.77 53.7583 178.338 53.7583H177.935V52.8871H178.324ZM178.41 52.5673H177.458V55.1963H177.935V54.0705H178.406L178.918 55.1963H179.454L178.887 53.994C179.255 53.9176 179.464 53.6605 179.464 53.2882C179.464 52.8105 179.119 52.5673 178.41 52.5673ZM178.348 51.6045C177.749 51.6045 177.207 51.8302 176.796 52.2627C176.361 52.7216 176.119 53.3133 176.119 53.9238C176.119 54.5369 176.348 55.1061 176.771 55.5524C177.202 56.0062 177.755 56.2506 178.348 56.2506C178.931 56.2506 179.497 56.0062 179.935 55.5586C180.356 55.1323 180.587 54.5632 180.587 53.9238C180.587 53.307 180.35 52.7278 179.942 52.2953C179.516 51.844 178.956 51.6045 178.348 51.6045ZM180.288 53.9427C180.288 54.4779 180.089 54.9769 179.726 55.3455C179.342 55.7329 178.864 55.941 178.338 55.941C177.842 55.941 177.352 55.7266 176.984 55.3393C176.615 54.9506 176.408 54.4516 176.408 53.9238C176.408 53.3973 176.621 52.8807 177.002 52.4834C177.36 52.1085 177.835 51.9067 178.354 51.9067C178.887 51.9067 179.367 52.1148 179.738 52.5084C180.097 52.8807 180.288 53.3847 180.288 53.9427Z" fill="#006AD6"/>
<path d="M121.191 52.5467C119.306 52.3185 119.425 50.9182 119.425 49.3587C119.425 48.8885 119.425 43.7672 119.425 42.4145H123.41V39.0997H119.425V35.6309H114.92V39.096H111.73V42.4145H114.92V51.0185C114.92 55.6271 118.015 56.2401 120.029 56.2401C121.821 56.2401 123.447 55.8728 123.447 55.8728C123.447 55.8728 123.435 52.4853 123.435 52.2183C122.559 52.5204 121.966 52.6395 121.191 52.5467Z" fill="#006AD6"/>
<path d="M167.164 38.7617C164.946 38.7617 162.894 39.282 160.894 40.3452C159.528 39.2971 157.738 38.7856 155.425 38.7856C153.186 38.7856 149.595 39.3284 147.248 40.0229L147.061 40.0781V56.0073H151.631V42.6344C152.532 42.2131 153.871 41.9235 154.96 41.9235C157.835 41.9235 158.424 43.537 158.424 45.1016V56.0073H163.06V43.0744C163.902 42.4438 165.421 41.9235 166.456 41.9235C169.168 41.9235 169.828 43.4794 169.828 45.1016V56.0073H174.365V44.6378C174.365 42.8676 173.73 38.7617 167.164 38.7617Z" fill="#006AD6"/>
<path d="M64.2356 39.0996V52.6042C62.8568 53.0079 61.5515 53.2261 60.3582 53.1421C57.8742 52.9666 57.1775 52.257 57.1775 49.3221V39.0996H52.4733C52.4733 39.0996 52.4312 49.8124 52.4733 50.9983C52.5167 52.1855 52.3588 56.2437 60.3739 56.2437C64.2983 56.2437 68.9386 55.3197 68.9386 55.3197V39.0996H64.2356Z" fill="#006AD6"/>
<path d="M84.3673 52.5995C83.1898 52.9154 81.5819 53.2689 79.6692 53.0496C78.0421 52.8627 76.5198 52.4654 76.5198 50.8017C76.5198 49.5944 77.2574 48.589 80.2055 48.589C80.2055 48.589 83.4381 48.5915 84.3673 48.5915V52.5995ZM80.9938 38.7939C79.4679 38.7939 76.157 39.0209 73.8127 39.5988C73.8127 40.0364 73.8127 43.2846 73.8127 43.2846C73.8127 43.2846 76.4824 41.8329 81.2336 41.8329C82.6992 41.8329 84.3734 42.3945 84.3734 44.6787C84.3734 45.3094 84.3673 45.4197 84.3673 45.4197C84.3673 45.4197 78.8604 45.4924 78.2518 45.4924C74.7999 45.4924 72.1627 47.5184 72.2242 50.7841C72.305 55.009 76.1883 56.1788 79.8656 56.1788C85.9245 56.1788 88.9064 55.3112 88.9064 55.3112L88.9052 43.7197C88.9052 40.8036 86.5525 38.7939 80.9938 38.7939Z" fill="#006AD6"/>
<path d="M36.178 52.5387C31.0279 52.5387 29.7623 48.5244 29.7623 43.8808C29.7623 39.2121 31.0279 35.3695 36.178 35.3695C41.063 35.3695 42.478 39.2121 42.478 43.8808C42.478 48.4768 41.2811 52.5387 36.178 52.5387ZM44.0472 52.6126C44.0472 52.5148 44.0484 52.4722 44.0496 52.4309C46.1456 51.2499 47.7908 49.9937 47.7908 43.8808C47.7908 36.0741 45.2163 31.7363 36.178 31.7363C27.0493 31.7363 24.4133 36.2208 24.4133 43.8808C24.4133 52.1136 27.4265 56.1192 36.178 56.1192C36.3733 56.1192 50.0832 56.1192 50.0832 56.1192V52.6126H44.0472Z" fill="#006AD6"/>
<path d="M138.472 39.1201V52.6248C137.094 53.0272 135.788 53.2454 134.595 53.1613C132.112 52.9858 131.414 52.2775 131.414 49.3426V39.1201H126.711C126.711 39.1201 126.669 49.8316 126.711 51.0175C126.753 52.2048 126.596 56.2642 134.61 56.2642C138.535 56.2642 143.175 55.339 143.175 55.339V39.1201H138.472Z" fill="#006AD6"/>
<path d="M97.6253 55.9917V42.4883C99.0042 42.0834 100.311 41.8652 101.504 41.9505C103.988 42.126 104.683 42.8344 104.683 45.7692V55.9917H109.386C109.386 55.9917 109.43 45.279 109.386 44.0931C109.345 42.9071 109.502 38.8477 101.487 38.8477C97.5639 38.8477 92.9224 39.7716 92.9224 39.7716V55.9917H97.6253Z" fill="#006AD6"/>
</svg>
