<svg width="205" height="88" viewBox="0 0 205 88" fill="none" xmlns="http://www.w3.org/2000/svg">
<path d="M57.8448 58.6951C57.8448 58.6951 55.9755 43.5652 56.9063 31.8756C60.5748 32.5033 63.7661 33.8776 65.2877 34.5621L66.4817 26.7219C53.7918 23.2679 44.5548 25.5268 42.6937 26.3904C41.0998 30.576 41.2995 36.6214 41.2995 36.6214C44.7647 33.7614 47.6289 32.5432 50.6195 31.8802C50.3532 33.3403 48.6723 45.8732 50.2672 58.6951H57.8448Z" fill="url(#paint0_linear_189_15)"/>
<path d="M65.2201 48.2264C65.3491 51.8804 65.8115 56.0732 66.2646 58.6948H59.6982C59.4151 53.6491 58.9988 45.1673 59.9301 36.8641H65.0481C65.0481 36.8641 65.0834 36.8913 65.0507 38.1719C65.7275 37.6751 66.1934 37.1031 67.2569 36.8166C68.3331 36.5285 69.7406 36.6216 70.8731 36.8166L69.8332 42.0234C67.6613 41.9589 64.9754 41.4493 65.2201 48.2264Z" fill="url(#paint1_linear_189_15)"/>
<path d="M77.1339 54.4166C78.0913 54.4166 78.8675 52.3839 78.8675 47.5874C78.8675 42.7898 78.0913 40.7576 77.1339 40.7576C76.1795 40.7576 75.4054 42.7893 75.4054 47.5874C75.4054 52.3844 76.1795 54.4166 77.1339 54.4166ZM69.8384 47.7506C69.8384 39.6356 73.1382 36.3955 77.2055 36.3955C81.2754 36.3955 84.5778 39.6356 84.5778 47.7506C84.5778 55.9494 81.2749 59.1159 77.2055 59.1159C73.1382 59.1159 69.8384 55.9494 69.8384 47.7506Z" fill="url(#paint2_linear_189_15)"/>
<path d="M90.9498 51.5093C90.8054 48.3709 90.7368 43.5192 90.9498 40.8101C92.5902 40.454 93.9475 42.0953 93.9475 45.7294C93.9481 49.3732 93.0915 51.9365 90.9498 51.5093ZM91.3763 56.2142C94.9465 56.2142 99.2985 55.2175 99.2985 46.5163C99.2985 37.8872 95.5542 36.779 91.3061 36.603C89.594 36.5308 86.0965 36.8644 86.0965 36.8644C85.4985 39.8539 84.9538 54.2997 85.9532 63.4297C85.9532 63.4297 90.7404 63.4353 92.3348 63.422C92.3348 63.422 91.5365 58.3518 91.3763 56.2142Z" fill="url(#paint3_linear_189_15)"/>
<path d="M100.571 36.8643C100.502 38.3255 99.4239 48.3304 100.358 58.6949H106.535C106.535 58.6949 105.489 48.3089 106.115 36.8643H100.571Z" fill="url(#paint4_linear_189_15)"/>
<path d="M110.251 27.6979C110.251 28.0668 109.46 28.3753 108.391 30.232C108.301 30.3855 107.667 31.6093 107.562 31.8441C107.458 32.081 107.21 32.5947 107.05 32.8858C106.88 33.1913 106.539 33.6446 106.539 33.6446C105.931 34.478 104.829 35.0648 103.565 35.1283C102.914 35.1575 102.178 35.1968 102.059 34.8408C101.908 34.388 104.203 30.7569 108.609 28.383C105.404 29.0302 103.281 31.2128 102.243 32.6668C101.681 33.4568 101.437 34.237 101.32 34.2749C100.979 34.3762 100.443 33.4691 100.434 32.7738C100.413 31.4108 101.419 29.8713 103.323 28.8506C105.665 27.5941 110.251 27.3045 110.251 27.6979Z" fill="url(#paint5_linear_189_15)"/>
<path d="M114.804 41.0268C116.589 40.5949 117.676 41.2739 118.389 41.8428V37.3865C117.605 36.8892 116.66 36.3955 114.088 36.3955C110.019 36.3955 106.722 39.5517 106.722 47.6682C106.722 55.7883 110.019 58.9476 114.092 58.9476C116.66 58.9435 117.605 58.4528 118.389 57.9545V53.4951C117.677 54.0687 116.589 54.743 114.804 54.3143C113.875 54.0948 112.588 52.4688 112.588 47.6687C112.587 42.8743 113.874 41.2483 114.804 41.0268Z" fill="url(#paint6_linear_189_15)"/>
<path d="M127.452 52.2307C127.452 53.4617 126.804 53.8889 126.07 53.8889C125.341 53.8889 124.344 53.7467 124.344 51.8987C124.344 49.1748 126.659 48.3725 127.452 47.1789C127.452 47.1789 127.452 51.7887 127.452 52.2307ZM125.135 40.6674C127.278 40.5241 127.494 42.3788 126.065 43.1641C120.412 46.2702 118.907 48.5055 118.907 52.221C118.907 58.6946 124.01 58.9648 126.004 59.0077C129.301 59.0696 131.997 58.6706 131.997 58.6706C131.997 58.6706 132.904 54.4021 132.574 44.4253C132.274 35.5291 126.349 35.6755 120.353 37.5455C120.454 39.2901 120.353 42.1424 120.353 42.1424C122.641 41.001 124.128 40.7339 125.135 40.6674Z" fill="url(#paint7_linear_189_15)"/>
<path d="M143.48 36.5303C142.147 36.5303 140.697 36.8163 139.667 38.4018L139.677 38.3952L139.711 36.8495H134.157C134.093 38.3107 133.227 48.3294 134.157 58.6945H140.054C140.054 58.6945 138.912 51.8648 139.559 44.0246C139.82 40.8883 142.404 41.5304 142.602 43.9422C143.268 52.0781 142.482 58.6945 142.482 58.6945H148.407C148.404 50.5985 150.519 36.5303 143.48 36.5303Z" fill="url(#paint8_linear_189_15)"/>
<path d="M157.946 52.2307C157.946 53.4617 157.297 53.8889 156.564 53.8889C155.832 53.8889 154.835 53.7467 154.835 51.8987C154.835 49.1748 157.149 48.3725 157.946 47.1789C157.946 47.1789 157.946 51.7887 157.946 52.2307ZM155.63 40.6674C157.772 40.5241 157.987 42.3788 156.558 43.1641C150.901 46.2702 149.401 48.5055 149.401 52.221C149.401 58.6946 154.501 58.9648 156.496 59.0077C159.792 59.0696 162.488 58.6706 162.488 58.6706C162.488 58.6706 163.399 54.4021 163.062 44.4253C162.766 35.5291 156.841 35.6755 150.846 37.5455C150.948 39.2901 150.846 42.1424 150.846 42.1424C153.133 41.001 154.621 40.7339 155.63 40.6674Z" fill="url(#paint9_linear_189_15)"/>
<path d="M162.605 62.3651C162.836 62.3651 163.04 62.3503 163.04 62.0766C163.04 61.8555 162.839 61.8162 162.652 61.8162H162.284V62.3651H162.605ZM162.284 63.3659H162.013V61.588H162.694C163.111 61.588 163.323 61.7435 163.323 62.0955C163.323 62.4122 163.121 62.5529 162.86 62.5846L163.366 63.3654H163.062L162.594 62.5974H162.284V63.3659ZM162.609 63.7614C163.308 63.7614 163.861 63.216 163.861 62.4721C163.861 61.743 163.308 61.192 162.609 61.192C161.904 61.192 161.356 61.743 161.356 62.4721C161.356 63.216 161.904 63.7614 162.609 63.7614ZM161.045 62.4721C161.045 61.5875 161.761 60.9336 162.609 60.9336C163.452 60.9336 164.173 61.5875 164.173 62.4721C164.173 63.3654 163.453 64.0213 162.609 64.0213C161.761 64.0218 161.045 63.3659 161.045 62.4721Z" fill="#055039"/>
<defs>
<linearGradient id="paint0_linear_189_15" x1="53.8866" y1="24.8643" x2="53.8866" y2="58.6951" gradientUnits="userSpaceOnUse">
<stop stop-color="#028C63"/>
<stop offset="1" stop-color="#055039"/>
</linearGradient>
<linearGradient id="paint1_linear_189_15" x1="65.1141" y1="36.6334" x2="65.1141" y2="58.6948" gradientUnits="userSpaceOnUse">
<stop stop-color="#028C63"/>
<stop offset="1" stop-color="#055039"/>
</linearGradient>
<linearGradient id="paint2_linear_189_15" x1="77.2079" y1="36.3954" x2="77.2079" y2="59.1161" gradientUnits="userSpaceOnUse">
<stop stop-color="#028C63"/>
<stop offset="1" stop-color="#055039"/>
</linearGradient>
<linearGradient id="paint3_linear_189_15" x1="92.349" y1="36.5925" x2="92.349" y2="63.4307" gradientUnits="userSpaceOnUse">
<stop stop-color="#028C63"/>
<stop offset="1" stop-color="#055039"/>
</linearGradient>
<linearGradient id="paint4_linear_189_15" x1="103.257" y1="36.8644" x2="103.257" y2="58.6955" gradientUnits="userSpaceOnUse">
<stop stop-color="#028C63"/>
<stop offset="1" stop-color="#055039"/>
</linearGradient>
<linearGradient id="paint5_linear_189_15" x1="110.261" y1="27.3698" x2="101.085" y2="34.132" gradientUnits="userSpaceOnUse">
<stop stop-color="#028C63"/>
<stop offset="1" stop-color="#055039"/>
</linearGradient>
<linearGradient id="paint6_linear_189_15" x1="112.556" y1="36.3954" x2="112.556" y2="58.9477" gradientUnits="userSpaceOnUse">
<stop stop-color="#028C63"/>
<stop offset="1" stop-color="#055039"/>
</linearGradient>
<linearGradient id="paint7_linear_189_15" x1="125.777" y1="36.5193" x2="125.777" y2="59.0145" gradientUnits="userSpaceOnUse">
<stop stop-color="#028C63"/>
<stop offset="1" stop-color="#055039"/>
</linearGradient>
<linearGradient id="paint8_linear_189_15" x1="141.216" y1="36.5305" x2="141.216" y2="58.6951" gradientUnits="userSpaceOnUse">
<stop stop-color="#028C63"/>
<stop offset="1" stop-color="#055039"/>
</linearGradient>
<linearGradient id="paint9_linear_189_15" x1="156.269" y1="36.5193" x2="156.269" y2="59.0145" gradientUnits="userSpaceOnUse">
<stop stop-color="#028C63"/>
<stop offset="1" stop-color="#055039"/>
</linearGradient>
</defs>
</svg>
